G04 Layer: BottomLayer*
G04 EasyEDA v6.4.14, 2021-01-19T22:22:16+01:00*
G04 02485e9e15114f7e80ffde9a8eea953d,da693c564b984109b00d12f045165e1a,10*
G04 Gerber Generator version 0.2*
G04 Scale: 100 percent, Rotated: No, Reflected: No *
G04 Dimensions in millimeters *
G04 leading zeros omitted , absolute positions ,4 integer and 5 decimal *
%FSLAX45Y45*%
%MOMM*%

%ADD10C,0.2540*%
%ADD11C,0.4000*%
%ADD12C,0.7000*%
%ADD14C,0.5000*%
%ADD15C,1.0000*%
%ADD16C,0.6200*%
%ADD48C,1.1999*%
%ADD49C,0.2032*%

%LPD*%
G36*
X32352640Y1891538D02*
G01*
X32351065Y1891639D01*
X32348017Y1892655D01*
X32346646Y1893468D01*
X32157924Y2082038D01*
X32135165Y2082139D01*
X32132117Y2083155D01*
X32130746Y2083968D01*
X32119824Y2094738D01*
X32097065Y2094839D01*
X32094017Y2095855D01*
X32092646Y2096668D01*
X32078828Y2110333D01*
X32077253Y2112365D01*
X32069125Y2125116D01*
X32059524Y2138172D01*
X32055612Y2144064D01*
X32052209Y2147671D01*
X32048754Y2150567D01*
X32038544Y2160879D01*
X32027723Y2170531D01*
X32016344Y2179472D01*
X32004355Y2187651D01*
X31998158Y2191410D01*
X31996176Y2192985D01*
X31954724Y2234438D01*
X31925361Y2234539D01*
X31922567Y2235352D01*
X31920129Y2236927D01*
X31918249Y2239111D01*
X31917030Y2241753D01*
X31916624Y2244598D01*
X31916725Y2681935D01*
X31917081Y2683459D01*
X31918503Y2686253D01*
X31920688Y2688488D01*
X31927952Y2692603D01*
X31939585Y2699715D01*
X31950761Y2707538D01*
X31961429Y2716022D01*
X31971538Y2725064D01*
X31981139Y2734767D01*
X31990131Y2745028D01*
X31998462Y2755798D01*
X32006133Y2767025D01*
X32013093Y2778760D01*
X32019392Y2790850D01*
X32024878Y2803296D01*
X32030517Y2814116D01*
X32032041Y2816301D01*
X32233971Y3034385D01*
X32275170Y3075584D01*
X32277100Y3077108D01*
X32298030Y3089351D01*
X32319417Y3100832D01*
X32341159Y3111550D01*
X32363308Y3121456D01*
X32385812Y3130550D01*
X32397141Y3134817D01*
X32420102Y3142691D01*
X32431685Y3146348D01*
X32455002Y3152952D01*
X32478573Y3158744D01*
X32502297Y3163722D01*
X32526224Y3167786D01*
X32550252Y3170986D01*
X32574433Y3173374D01*
X32586523Y3174238D01*
X32606691Y3174136D01*
X32609434Y3173323D01*
X32611872Y3171748D01*
X32613803Y3169564D01*
X32614971Y3166922D01*
X32615377Y3164078D01*
X32614971Y3161182D01*
X32611720Y3152698D01*
X32609993Y3145282D01*
X32609129Y3136138D01*
X32608113Y3133242D01*
X32606335Y3130753D01*
X32130796Y2655265D01*
X32126885Y2650693D01*
X32123735Y2645562D01*
X32122465Y2642819D01*
X32120636Y2637078D01*
X32120027Y2634132D01*
X32119570Y2628138D01*
X32119468Y2414879D01*
X32118655Y2412136D01*
X32117131Y2409748D01*
X32114947Y2407818D01*
X32112356Y2406599D01*
X32109562Y2406192D01*
X32102755Y2405684D01*
X32096100Y2404364D01*
X32092849Y2403449D01*
X32086499Y2400960D01*
X32080555Y2397760D01*
X32074967Y2393848D01*
X32069938Y2389327D01*
X32065468Y2384247D01*
X32061658Y2378608D01*
X32058508Y2372614D01*
X32056120Y2366264D01*
X32054495Y2359660D01*
X32053682Y2352903D01*
X32053682Y2345944D01*
X32054596Y2338832D01*
X32056374Y2331923D01*
X32057594Y2328570D01*
X32060692Y2322118D01*
X32064553Y2316073D01*
X32066738Y2313228D01*
X32070090Y2309368D01*
X32071411Y2306624D01*
X32071919Y2303576D01*
X32072021Y2263292D01*
X32072935Y2257348D01*
X32073748Y2254453D01*
X32076085Y2248916D01*
X32079234Y2243785D01*
X32081063Y2241397D01*
X32413448Y1908860D01*
X32415327Y1906320D01*
X32415937Y1904847D01*
X32416445Y1901698D01*
X32416038Y1898853D01*
X32414819Y1896211D01*
X32412939Y1894027D01*
X32410501Y1892452D01*
X32407707Y1891639D01*
G37*

%LPD*%
G36*
X32707326Y1831543D02*
G01*
X32704481Y1831949D01*
X32701890Y1833168D01*
X32699706Y1834997D01*
X32698131Y1837385D01*
X32697318Y1840128D01*
X32697013Y1845106D01*
X32696048Y1852066D01*
X32694219Y1858873D01*
X32691527Y1865426D01*
X32688072Y1871522D01*
X32683856Y1877212D01*
X32679030Y1882292D01*
X32673544Y1886762D01*
X32667600Y1890522D01*
X32661199Y1893468D01*
X32654494Y1895652D01*
X32647534Y1896973D01*
X32640524Y1897380D01*
X32636764Y1897278D01*
X32629348Y1896262D01*
X32625690Y1895398D01*
X32623048Y1895043D01*
X32539939Y1895043D01*
X32536841Y1895551D01*
X32535368Y1896160D01*
X32532777Y1898040D01*
X32151574Y2279243D01*
X32149694Y2281783D01*
X32149084Y2283256D01*
X32148627Y2286406D01*
X32148729Y2305100D01*
X32149643Y2308047D01*
X32151370Y2310587D01*
X32155841Y2315921D01*
X32159651Y2321763D01*
X32162699Y2328062D01*
X32164934Y2334666D01*
X32166153Y2339441D01*
X32166712Y2340813D01*
X32168490Y2343150D01*
X32185051Y2359710D01*
X32188962Y2364282D01*
X32192112Y2369413D01*
X32193382Y2372156D01*
X32195211Y2377897D01*
X32195820Y2380843D01*
X32196277Y2386838D01*
X32196379Y2402027D01*
X32197192Y2404770D01*
X32198767Y2407208D01*
X32200951Y2409088D01*
X32203593Y2410307D01*
X32206438Y2410714D01*
X32208012Y2410612D01*
X32209536Y2410256D01*
X32212330Y2408834D01*
X32214565Y2406650D01*
X32216039Y2403856D01*
X32217156Y2398979D01*
X32219138Y2392426D01*
X32221932Y2386126D01*
X32225488Y2380234D01*
X32229704Y2374798D01*
X32234530Y2369921D01*
X32239915Y2365705D01*
X32245808Y2362098D01*
X32252056Y2359304D01*
X32258609Y2357221D01*
X32265365Y2356002D01*
X32272224Y2355596D01*
X32279386Y2356053D01*
X32286397Y2357374D01*
X32293204Y2359609D01*
X32299656Y2362657D01*
X32305701Y2366518D01*
X32311187Y2371090D01*
X32313676Y2372868D01*
X32316623Y2373782D01*
X32945324Y2373884D01*
X32951318Y2374341D01*
X32957160Y2375763D01*
X32960005Y2376779D01*
X32965339Y2379522D01*
X32967879Y2381199D01*
X32972451Y2385110D01*
X33018222Y2430881D01*
X33019593Y2432050D01*
X33021168Y2432964D01*
X33026146Y2434488D01*
X33032496Y2436977D01*
X33035544Y2438450D01*
X33041336Y2442006D01*
X33046619Y2446274D01*
X33051394Y2451100D01*
X33055560Y2456434D01*
X33059065Y2462276D01*
X33061859Y2468473D01*
X33063840Y2474976D01*
X33065059Y2481630D01*
X33065465Y2488438D01*
X33065059Y2495245D01*
X33063840Y2502001D01*
X33061808Y2508504D01*
X33059014Y2514752D01*
X33055458Y2520645D01*
X33051242Y2526030D01*
X33046415Y2530856D01*
X33041031Y2535072D01*
X33035138Y2538628D01*
X33028889Y2541422D01*
X33022387Y2543454D01*
X33015631Y2544673D01*
X33008824Y2545080D01*
X33002016Y2544673D01*
X32995260Y2543454D01*
X32988758Y2541422D01*
X32982509Y2538628D01*
X32976616Y2535072D01*
X32971232Y2530856D01*
X32966406Y2526030D01*
X32962189Y2520645D01*
X32958633Y2514752D01*
X32955839Y2508504D01*
X32953807Y2502001D01*
X32952588Y2495245D01*
X32952182Y2488438D01*
X32952334Y2484120D01*
X32952944Y2478328D01*
X32952842Y2476703D01*
X32951826Y2473706D01*
X32951013Y2472334D01*
X32931201Y2452522D01*
X32928356Y2451100D01*
X32926832Y2450693D01*
X32688631Y2450592D01*
X32685786Y2450998D01*
X32683145Y2452217D01*
X32680960Y2454097D01*
X32679386Y2456535D01*
X32678573Y2459329D01*
X32678573Y2462174D01*
X32679386Y2464968D01*
X32681875Y2471420D01*
X32683551Y2478125D01*
X32684364Y2484983D01*
X32684364Y2491841D01*
X32683551Y2498648D01*
X32681926Y2505303D01*
X32679487Y2511704D01*
X32676287Y2517749D01*
X32672426Y2523388D01*
X32667905Y2528519D01*
X32662774Y2533040D01*
X32657135Y2536901D01*
X32651090Y2540101D01*
X32644689Y2542540D01*
X32638034Y2544165D01*
X32631227Y2544978D01*
X32624268Y2544978D01*
X32617156Y2544064D01*
X32613650Y2543302D01*
X32606843Y2541066D01*
X32600392Y2538018D01*
X32594346Y2534158D01*
X32588860Y2529586D01*
X32586371Y2527808D01*
X32583424Y2526893D01*
X32367423Y2526893D01*
X32364426Y2527909D01*
X32363054Y2528722D01*
X32329882Y2561742D01*
X32328053Y2564231D01*
X32327037Y2567127D01*
X32326681Y2572156D01*
X32325665Y2579065D01*
X32323786Y2585770D01*
X32321042Y2592222D01*
X32317588Y2598318D01*
X32313372Y2603906D01*
X32308495Y2608935D01*
X32303059Y2613304D01*
X32297115Y2617012D01*
X32290765Y2619959D01*
X32284111Y2622042D01*
X32277253Y2623362D01*
X32270293Y2623769D01*
X32263435Y2623362D01*
X32256679Y2622143D01*
X32250126Y2620111D01*
X32243877Y2617266D01*
X32238035Y2613710D01*
X32232650Y2609494D01*
X32227824Y2604617D01*
X32223608Y2599232D01*
X32220052Y2593390D01*
X32217258Y2587091D01*
X32215531Y2582367D01*
X32213702Y2579776D01*
X32211111Y2577846D01*
X32208063Y2576830D01*
X32205015Y2576830D01*
X32202221Y2577642D01*
X32200951Y2578303D01*
X32198767Y2580233D01*
X32197192Y2582672D01*
X32196379Y2585415D01*
X32196379Y2609646D01*
X32197395Y2612644D01*
X32198208Y2614015D01*
X32660539Y3076549D01*
X32663028Y3078327D01*
X32665924Y3079343D01*
X32674407Y3080105D01*
X32681164Y3081578D01*
X32684465Y3082594D01*
X32690917Y3085287D01*
X32696912Y3088741D01*
X32702500Y3092856D01*
X32707529Y3097682D01*
X32711898Y3103016D01*
X32715606Y3108909D01*
X32718552Y3115208D01*
X32719772Y3118459D01*
X32721499Y3125165D01*
X32722413Y3132074D01*
X32723124Y3135020D01*
X32723734Y3136392D01*
X32725664Y3138779D01*
X32728153Y3140456D01*
X32731049Y3141370D01*
X32734148Y3141370D01*
X32735723Y3141014D01*
X32737196Y3140405D01*
X32739736Y3138525D01*
X32818324Y3059938D01*
X32980782Y3059836D01*
X32983830Y3058820D01*
X32985202Y3058007D01*
X33135824Y2907538D01*
X33158582Y2907436D01*
X33161630Y2906420D01*
X33163002Y2905607D01*
X33178140Y2890621D01*
X33179258Y2889300D01*
X33192669Y2869488D01*
X33205420Y2849219D01*
X33217358Y2828493D01*
X33228635Y2807360D01*
X33239100Y2785872D01*
X33244078Y2775000D01*
X33253375Y2752953D01*
X33261909Y2730601D01*
X33265922Y2719324D01*
X33273238Y2696565D01*
X33279740Y2673553D01*
X33285480Y2650286D01*
X33288020Y2638602D01*
X33288224Y2636520D01*
X33288224Y2365756D01*
X33288020Y2363673D01*
X33284312Y2346960D01*
X33283702Y2345182D01*
X33282788Y2343556D01*
X33281620Y2342134D01*
X33199324Y2259838D01*
X33199222Y2148179D01*
X33198206Y2145131D01*
X33197393Y2143760D01*
X32980477Y1926691D01*
X32978547Y1925167D01*
X32956957Y1912569D01*
X32934859Y1900732D01*
X32912405Y1889760D01*
X32889494Y1879650D01*
X32887564Y1879041D01*
X32885583Y1878838D01*
X32869124Y1878838D01*
X32857795Y1867662D01*
X32855204Y1866290D01*
X32843317Y1862124D01*
X32831328Y1858213D01*
X32807198Y1851101D01*
X32795057Y1847850D01*
X32770572Y1842058D01*
X32745883Y1837182D01*
X32733488Y1835099D01*
G37*

%LPC*%
G36*
X33046924Y2647696D02*
G01*
X33053731Y2648102D01*
X33060487Y2649321D01*
X33066989Y2651353D01*
X33073238Y2654147D01*
X33079131Y2657703D01*
X33084515Y2661920D01*
X33089342Y2666746D01*
X33093558Y2672130D01*
X33097114Y2678023D01*
X33099908Y2684272D01*
X33101940Y2690774D01*
X33103159Y2697530D01*
X33103565Y2704338D01*
X33103159Y2711145D01*
X33101940Y2717901D01*
X33099908Y2724404D01*
X33097114Y2730652D01*
X33093558Y2736545D01*
X33089342Y2741930D01*
X33084515Y2746756D01*
X33079131Y2750972D01*
X33073238Y2754528D01*
X33066989Y2757322D01*
X33060487Y2759354D01*
X33053731Y2760573D01*
X33046924Y2760980D01*
X33039761Y2760522D01*
X33032750Y2759202D01*
X33025943Y2756966D01*
X33019492Y2753918D01*
X33013446Y2750058D01*
X33007960Y2745486D01*
X33005471Y2743708D01*
X33002524Y2742793D01*
X32633615Y2742793D01*
X32630618Y2743809D01*
X32629246Y2744622D01*
X32585812Y2787853D01*
X32584034Y2790342D01*
X32583018Y2793238D01*
X32582662Y2798267D01*
X32581596Y2805176D01*
X32580783Y2808579D01*
X32578446Y2815183D01*
X32577024Y2818384D01*
X32573518Y2824429D01*
X32569302Y2830017D01*
X32564476Y2835046D01*
X32559040Y2839415D01*
X32553097Y2843123D01*
X32546747Y2846070D01*
X32543445Y2847238D01*
X32536638Y2848914D01*
X32529729Y2849778D01*
X32522820Y2849778D01*
X32516013Y2848965D01*
X32509358Y2847340D01*
X32502957Y2844901D01*
X32496912Y2841701D01*
X32491273Y2837840D01*
X32486142Y2833319D01*
X32481621Y2828188D01*
X32477760Y2822549D01*
X32474560Y2816504D01*
X32472122Y2810103D01*
X32470496Y2803448D01*
X32469683Y2796641D01*
X32469683Y2789732D01*
X32470547Y2782824D01*
X32472223Y2776016D01*
X32474763Y2769514D01*
X32478116Y2763367D01*
X32482129Y2757627D01*
X32486853Y2752496D01*
X32492188Y2747975D01*
X32498030Y2744114D01*
X32501077Y2742438D01*
X32507529Y2739745D01*
X32510882Y2738678D01*
X32517740Y2737205D01*
X32526224Y2736443D01*
X32529119Y2735427D01*
X32531608Y2733649D01*
X32587996Y2677210D01*
X32592568Y2673299D01*
X32597699Y2670149D01*
X32600442Y2668879D01*
X32606183Y2667050D01*
X32609129Y2666441D01*
X32615124Y2665984D01*
X33002524Y2665882D01*
X33005471Y2664968D01*
X33007960Y2663190D01*
X33013446Y2658618D01*
X33019492Y2654757D01*
X33025943Y2651709D01*
X33032750Y2649474D01*
X33039761Y2648153D01*
G37*

%LPD*%
G36*
X914552Y1798878D02*
G01*
X911707Y1799285D01*
X909066Y1800504D01*
X906881Y1802384D01*
X905306Y1804822D01*
X904494Y1807616D01*
X904494Y1810512D01*
X905306Y1813255D01*
X910437Y1820570D01*
X911961Y1823212D01*
X914298Y1828800D01*
X915720Y1834692D01*
X916076Y1837689D01*
X916279Y1949246D01*
X917295Y1952243D01*
X918108Y1953615D01*
X1273251Y2308910D01*
X1277162Y2313482D01*
X1280312Y2318613D01*
X1281582Y2321356D01*
X1283411Y2327097D01*
X1284020Y2330043D01*
X1284478Y2336038D01*
X1284579Y2393238D01*
X1285494Y2396185D01*
X1287272Y2398674D01*
X1291844Y2404160D01*
X1295704Y2410206D01*
X1298752Y2416657D01*
X1300988Y2423464D01*
X1302308Y2430475D01*
X1302766Y2437638D01*
X1302308Y2444750D01*
X1301800Y2448255D01*
X1300022Y2455164D01*
X1297381Y2461768D01*
X1293977Y2467965D01*
X1289761Y2473756D01*
X1284935Y2478938D01*
X1279448Y2483459D01*
X1276502Y2485491D01*
X1274267Y2487371D01*
X1272692Y2489809D01*
X1271879Y2492603D01*
X1271778Y2539238D01*
X1271320Y2545232D01*
X1269898Y2551074D01*
X1268882Y2553919D01*
X1266139Y2559253D01*
X1264462Y2561793D01*
X1260551Y2566365D01*
X772312Y3054553D01*
X770534Y3057042D01*
X769518Y3059938D01*
X769162Y3065068D01*
X768045Y3072130D01*
X767181Y3075635D01*
X764743Y3082340D01*
X761492Y3088741D01*
X758850Y3093110D01*
X757936Y3095955D01*
X757936Y3098952D01*
X758748Y3101695D01*
X760323Y3104134D01*
X762508Y3106013D01*
X765149Y3107232D01*
X769975Y3108045D01*
X772515Y3108096D01*
X787806Y3106267D01*
X803046Y3104083D01*
X805637Y3103321D01*
X1123340Y2962097D01*
X1125626Y2960674D01*
X1143812Y2945384D01*
X1161440Y2929432D01*
X1178509Y2912821D01*
X1194917Y2895701D01*
X1210767Y2877972D01*
X1225956Y2859684D01*
X1240536Y2840888D01*
X1254404Y2821584D01*
X1267612Y2801823D01*
X1275689Y2789174D01*
X1277823Y2786888D01*
X1279398Y2784856D01*
X1287221Y2772714D01*
X1295806Y2761081D01*
X1300327Y2755493D01*
X1309979Y2744724D01*
X1320292Y2734614D01*
X1331264Y2725216D01*
X1333296Y2722981D01*
X1334566Y2720289D01*
X1334922Y2718816D01*
X1335024Y2212238D01*
X1334566Y2209190D01*
X1333195Y2206396D01*
X1158341Y1956612D01*
X1157122Y1955190D01*
X1155649Y1953971D01*
X931570Y1804568D01*
X929386Y1803501D01*
X917854Y1799437D01*
X916228Y1799031D01*
G37*

%LPD*%
G36*
X659587Y1768348D02*
G01*
X657250Y1768602D01*
X458774Y1815439D01*
X230936Y1954682D01*
X229768Y1955850D01*
X90424Y2183638D01*
X80721Y2183739D01*
X77825Y2184654D01*
X75336Y2186330D01*
X73406Y2188718D01*
X68173Y2202027D01*
X59690Y2226106D01*
X52171Y2250541D01*
X45516Y2275230D01*
X39827Y2300173D01*
X39624Y2302256D01*
X39624Y2573020D01*
X39827Y2575102D01*
X45059Y2598267D01*
X46228Y2601061D01*
X228752Y2905252D01*
X229768Y2906674D01*
X231038Y2907893D01*
X232460Y2908858D01*
X520547Y3071672D01*
X522274Y3072485D01*
X524103Y3072892D01*
X649173Y3090672D01*
X652018Y3090265D01*
X654659Y3089046D01*
X656844Y3087166D01*
X658418Y3084728D01*
X659231Y3081934D01*
X659180Y3078937D01*
X657047Y3070504D01*
X656183Y3063494D01*
X656183Y3056432D01*
X657047Y3049524D01*
X658723Y3042716D01*
X661263Y3036214D01*
X664616Y3030067D01*
X668629Y3024327D01*
X673354Y3019196D01*
X678688Y3014675D01*
X684530Y3010814D01*
X687578Y3009138D01*
X694029Y3006445D01*
X697382Y3005378D01*
X704240Y3003905D01*
X712724Y3003143D01*
X715619Y3002127D01*
X718108Y3000349D01*
X1193139Y2525115D01*
X1194562Y2522270D01*
X1194968Y2520746D01*
X1195070Y2464409D01*
X1194866Y2462326D01*
X1192784Y2456738D01*
X1190650Y2449220D01*
X1189990Y2445410D01*
X1189583Y2441549D01*
X1189583Y2434082D01*
X1190498Y2426970D01*
X1191260Y2423464D01*
X1193495Y2416657D01*
X1196543Y2410206D01*
X1200404Y2404160D01*
X1204976Y2398674D01*
X1206754Y2396185D01*
X1207668Y2393238D01*
X1207668Y2354529D01*
X1206652Y2351532D01*
X1205839Y2350160D01*
X850696Y1994865D01*
X846785Y1990293D01*
X843635Y1985162D01*
X842365Y1982419D01*
X840536Y1976678D01*
X839927Y1973732D01*
X839469Y1967738D01*
X839368Y1859229D01*
X838352Y1856232D01*
X837539Y1854860D01*
X812901Y1830222D01*
X810056Y1828800D01*
X808532Y1828393D01*
X769823Y1828393D01*
X766876Y1829307D01*
X764387Y1831086D01*
X758901Y1835657D01*
X752856Y1839518D01*
X746404Y1842566D01*
X739597Y1844802D01*
X732586Y1846122D01*
X725424Y1846580D01*
X718616Y1846173D01*
X711860Y1844954D01*
X705358Y1842922D01*
X699109Y1840128D01*
X693216Y1836572D01*
X687832Y1832356D01*
X683006Y1827530D01*
X678789Y1822145D01*
X675233Y1816252D01*
X672439Y1810004D01*
X670407Y1803501D01*
X669188Y1796745D01*
X668782Y1789938D01*
X668985Y1785061D01*
X669747Y1778507D01*
X669340Y1775663D01*
X668121Y1773021D01*
X666242Y1770837D01*
X663803Y1769262D01*
X661060Y1768449D01*
G37*

%LPD*%
G36*
X12302286Y25654D02*
G01*
X12294108Y25857D01*
X12281001Y26822D01*
X12274499Y27686D01*
X12266574Y29209D01*
X12263932Y30632D01*
X12262764Y31597D01*
X12218924Y75438D01*
X12183465Y75539D01*
X12180417Y76555D01*
X12179046Y77368D01*
X12162790Y93472D01*
X12158167Y99618D01*
X12154560Y104851D01*
X12148058Y115722D01*
X12142317Y127050D01*
X12137440Y138785D01*
X12133376Y150825D01*
X12131700Y156921D01*
X12130278Y163118D01*
X12130024Y165252D01*
X12130125Y174396D01*
X12131141Y177444D01*
X12131954Y178816D01*
X12168124Y215138D01*
X12168225Y2374036D01*
X12169038Y2376830D01*
X12170613Y2379218D01*
X12172797Y2381148D01*
X12175439Y2382316D01*
X12178284Y2382723D01*
X12189206Y2381148D01*
X12196927Y2381097D01*
X12203734Y2381910D01*
X12210389Y2383536D01*
X12216790Y2385974D01*
X12222835Y2389174D01*
X12228474Y2393035D01*
X12233605Y2397556D01*
X12238126Y2402687D01*
X12241987Y2408326D01*
X12245187Y2414371D01*
X12247626Y2420772D01*
X12249251Y2427427D01*
X12250064Y2434234D01*
X12250064Y2441295D01*
X12249708Y2444953D01*
X12248286Y2452116D01*
X12245949Y2459075D01*
X12244476Y2462428D01*
X12240107Y2470048D01*
X12239294Y2472893D01*
X12239193Y2605024D01*
X12239650Y2608173D01*
X12240260Y2609646D01*
X12242139Y2612186D01*
X12386513Y2756560D01*
X12389053Y2758440D01*
X12390526Y2759049D01*
X12393676Y2759506D01*
X12533680Y2759405D01*
X12536525Y2758592D01*
X12541402Y2755696D01*
X12545110Y2753766D01*
X12550394Y2751480D01*
X12551664Y2750667D01*
X12553797Y2748432D01*
X12555118Y2745638D01*
X12555474Y2744165D01*
X12555474Y2741168D01*
X12554661Y2738424D01*
X12553086Y2735986D01*
X12550902Y2734106D01*
X12548311Y2732887D01*
X12545415Y2732481D01*
X12541808Y2732582D01*
X12535001Y2732176D01*
X12528296Y2730906D01*
X12521742Y2728874D01*
X12515494Y2726080D01*
X12509652Y2722524D01*
X12504267Y2718308D01*
X12499441Y2713482D01*
X12495225Y2708097D01*
X12491669Y2702255D01*
X12488875Y2696006D01*
X12486843Y2689453D01*
X12485573Y2682748D01*
X12485166Y2675890D01*
X12485624Y2668879D01*
X12486894Y2662021D01*
X12487859Y2658618D01*
X12490450Y2652064D01*
X12493802Y2645918D01*
X12497866Y2640177D01*
X12502642Y2634996D01*
X12507976Y2630474D01*
X12513868Y2626664D01*
X12516967Y2624988D01*
X12523470Y2622296D01*
X12530226Y2620467D01*
X12537186Y2619451D01*
X12542266Y2619146D01*
X12545212Y2618130D01*
X12547701Y2616301D01*
X12833959Y2329891D01*
X12835382Y2327046D01*
X12835788Y2325522D01*
X12835890Y2312670D01*
X12835432Y2309622D01*
X12834874Y2308199D01*
X12833096Y2305659D01*
X12826746Y2300122D01*
X12822174Y2294991D01*
X12818262Y2289302D01*
X12815011Y2283256D01*
X12812572Y2276805D01*
X12810896Y2270099D01*
X12810083Y2263292D01*
X12810083Y2256078D01*
X12811099Y2248662D01*
X12813030Y2241448D01*
X12816535Y2233066D01*
X12816890Y2231542D01*
X12816890Y2228545D01*
X12816078Y2225751D01*
X12814554Y2223312D01*
X12812369Y2221433D01*
X12809728Y2220214D01*
X12806832Y2219807D01*
X12803733Y2220315D01*
X12800888Y2221738D01*
X12518237Y2504236D01*
X12516408Y2506726D01*
X12515392Y2509621D01*
X12514630Y2518105D01*
X12513157Y2524912D01*
X12510820Y2531516D01*
X12507722Y2537764D01*
X12503861Y2543606D01*
X12499340Y2548890D01*
X12494209Y2553614D01*
X12488468Y2557678D01*
X12482322Y2560980D01*
X12475819Y2563520D01*
X12469063Y2565196D01*
X12465608Y2565755D01*
X12458649Y2566162D01*
X12451791Y2565755D01*
X12445085Y2564536D01*
X12438532Y2562504D01*
X12432284Y2559710D01*
X12426442Y2556154D01*
X12421057Y2551938D01*
X12416231Y2547112D01*
X12412014Y2541727D01*
X12408458Y2535834D01*
X12405664Y2529586D01*
X12403632Y2523083D01*
X12402362Y2516327D01*
X12401956Y2509520D01*
X12402058Y2506014D01*
X12402921Y2499055D01*
X12404648Y2492298D01*
X12407188Y2485796D01*
X12410490Y2479598D01*
X12414554Y2473909D01*
X12419279Y2468727D01*
X12424613Y2464206D01*
X12430455Y2460345D01*
X12436703Y2457246D01*
X12443358Y2454960D01*
X12450165Y2453487D01*
X12458700Y2452725D01*
X12461595Y2451709D01*
X12464084Y2449931D01*
X12750139Y2163673D01*
X12751562Y2160828D01*
X12751968Y2159304D01*
X12751968Y2037537D01*
X12751054Y2034590D01*
X12749276Y2032101D01*
X12744704Y2026615D01*
X12740843Y2020570D01*
X12737795Y2014118D01*
X12735560Y2007311D01*
X12734239Y2000300D01*
X12733782Y1993138D01*
X12734188Y1986330D01*
X12735407Y1979574D01*
X12737439Y1973072D01*
X12740233Y1966823D01*
X12743789Y1960930D01*
X12748006Y1955546D01*
X12752832Y1950720D01*
X12758216Y1946503D01*
X12764109Y1942947D01*
X12770358Y1940153D01*
X12776860Y1938121D01*
X12783616Y1936902D01*
X12790424Y1936496D01*
X12797231Y1936902D01*
X12803987Y1938121D01*
X12810490Y1940153D01*
X12816738Y1942947D01*
X12822631Y1946503D01*
X12828016Y1950720D01*
X12832842Y1955546D01*
X12837058Y1960930D01*
X12840614Y1966823D01*
X12843408Y1973072D01*
X12845440Y1979574D01*
X12846659Y1986330D01*
X12847066Y1993138D01*
X12846608Y2000300D01*
X12845288Y2007311D01*
X12843052Y2014118D01*
X12840004Y2020570D01*
X12836144Y2026615D01*
X12831572Y2032101D01*
X12829794Y2034590D01*
X12828879Y2037537D01*
X12828778Y2177796D01*
X12828320Y2183688D01*
X12827000Y2189378D01*
X12824764Y2194864D01*
X12822580Y2199081D01*
X12822123Y2200808D01*
X12821920Y2202637D01*
X12822326Y2205482D01*
X12823545Y2208123D01*
X12825425Y2210308D01*
X12827863Y2211882D01*
X12830657Y2212695D01*
X12833908Y2212644D01*
X12835686Y2212136D01*
X12840309Y2209647D01*
X12846558Y2206853D01*
X12853060Y2204821D01*
X12859816Y2203602D01*
X12866624Y2203196D01*
X12874752Y2203754D01*
X12882676Y2205482D01*
X12888315Y2207260D01*
X12890093Y2207463D01*
X12892989Y2207056D01*
X12895580Y2205837D01*
X12897764Y2203958D01*
X12898678Y2202789D01*
X12899847Y2200148D01*
X12900253Y2197303D01*
X12900152Y2112314D01*
X12899237Y2109368D01*
X12897510Y2106879D01*
X12892887Y2101342D01*
X12889077Y2095347D01*
X12885978Y2088896D01*
X12883794Y2082088D01*
X12882981Y2078583D01*
X12882067Y2071471D01*
X12882067Y2064512D01*
X12882930Y2057704D01*
X12884556Y2051050D01*
X12886994Y2044649D01*
X12890144Y2038604D01*
X12894056Y2032965D01*
X12898577Y2027834D01*
X12903708Y2023313D01*
X12909346Y2019452D01*
X12912293Y2017725D01*
X12918541Y2014931D01*
X12925094Y2012899D01*
X12931800Y2011680D01*
X12938658Y2011273D01*
X12945770Y2011730D01*
X12955371Y2013407D01*
X12958318Y2012950D01*
X12961010Y2011680D01*
X12963194Y2009698D01*
X12964058Y2008530D01*
X12965226Y2005787D01*
X12965938Y2000859D01*
X12967512Y1994154D01*
X12968579Y1990852D01*
X12971373Y1984552D01*
X12974878Y1978609D01*
X12979095Y1973122D01*
X12983921Y1968195D01*
X12989356Y1963877D01*
X12995249Y1960270D01*
X13001548Y1957425D01*
X13004800Y1956257D01*
X13011505Y1954580D01*
X13018363Y1953768D01*
X13025221Y1953768D01*
X13032028Y1954580D01*
X13038683Y1956206D01*
X13045084Y1958644D01*
X13051129Y1961845D01*
X13056768Y1965706D01*
X13061899Y1970227D01*
X13066420Y1975357D01*
X13070281Y1980996D01*
X13073481Y1987042D01*
X13075919Y1993442D01*
X13077545Y2000097D01*
X13078358Y2006904D01*
X13078358Y2013864D01*
X13077494Y2020925D01*
X13075716Y2027834D01*
X13073075Y2034438D01*
X13069671Y2040636D01*
X13065455Y2046427D01*
X13060629Y2051608D01*
X13055142Y2056130D01*
X13051028Y2059025D01*
X13049097Y2061210D01*
X13047878Y2063851D01*
X13047471Y2066696D01*
X13047471Y2501341D01*
X13047980Y2504490D01*
X13049402Y2507335D01*
X13147751Y2605887D01*
X13150240Y2607665D01*
X13153136Y2608681D01*
X13158165Y2609037D01*
X13165074Y2610104D01*
X13168477Y2610916D01*
X13175081Y2613253D01*
X13178282Y2614676D01*
X13184327Y2618181D01*
X13189915Y2622397D01*
X13194944Y2627223D01*
X13199313Y2632659D01*
X13203021Y2638602D01*
X13205968Y2644952D01*
X13207136Y2648254D01*
X13208812Y2655062D01*
X13209676Y2661970D01*
X13209676Y2668879D01*
X13208863Y2675686D01*
X13207238Y2682341D01*
X13204799Y2688742D01*
X13201599Y2694787D01*
X13197738Y2700426D01*
X13193217Y2705557D01*
X13188086Y2710078D01*
X13182447Y2713939D01*
X13176402Y2717139D01*
X13170001Y2719578D01*
X13163346Y2721203D01*
X13156539Y2722016D01*
X13149630Y2722016D01*
X13142722Y2721152D01*
X13135914Y2719476D01*
X13129412Y2716936D01*
X13123265Y2713583D01*
X13117525Y2709570D01*
X13112394Y2704846D01*
X13107873Y2699512D01*
X13104012Y2693670D01*
X13102336Y2690622D01*
X13099643Y2684170D01*
X13098576Y2680817D01*
X13097103Y2673959D01*
X13096341Y2665476D01*
X13095325Y2662580D01*
X13093547Y2660091D01*
X12994335Y2560878D01*
X12991744Y2559050D01*
X12988747Y2558034D01*
X12985699Y2558034D01*
X12982905Y2558846D01*
X12980466Y2560421D01*
X12978587Y2562606D01*
X12977368Y2565196D01*
X12976961Y2568092D01*
X12976860Y2578201D01*
X12976504Y2581198D01*
X12975082Y2587040D01*
X12974066Y2589885D01*
X12971322Y2595219D01*
X12969646Y2597759D01*
X12965734Y2602331D01*
X12907924Y2660091D01*
X12906146Y2662580D01*
X12905130Y2665476D01*
X12904774Y2670505D01*
X12903708Y2677414D01*
X12902895Y2680817D01*
X12900558Y2687421D01*
X12899136Y2690622D01*
X12895630Y2696667D01*
X12891414Y2702255D01*
X12886588Y2707284D01*
X12881152Y2711653D01*
X12875209Y2715361D01*
X12868859Y2718308D01*
X12865557Y2719476D01*
X12858750Y2721152D01*
X12851841Y2722016D01*
X12844932Y2722016D01*
X12838125Y2721203D01*
X12831470Y2719578D01*
X12825069Y2717139D01*
X12819024Y2713939D01*
X12813385Y2710078D01*
X12808254Y2705557D01*
X12803733Y2700426D01*
X12799872Y2694787D01*
X12796672Y2688742D01*
X12794234Y2682341D01*
X12792608Y2675686D01*
X12791795Y2668879D01*
X12791795Y2661970D01*
X12792659Y2655062D01*
X12794335Y2648254D01*
X12796875Y2641752D01*
X12800228Y2635605D01*
X12804241Y2629865D01*
X12808966Y2624734D01*
X12814300Y2620213D01*
X12820142Y2616352D01*
X12823190Y2614676D01*
X12829641Y2611983D01*
X12832994Y2610916D01*
X12839852Y2609443D01*
X12848336Y2608681D01*
X12851231Y2607665D01*
X12853720Y2605887D01*
X12897307Y2562301D01*
X12899136Y2559710D01*
X12900152Y2556662D01*
X12900253Y2396744D01*
X12899847Y2393899D01*
X12898678Y2391257D01*
X12896748Y2389073D01*
X12894310Y2387498D01*
X12891566Y2386685D01*
X12888518Y2386736D01*
X12886944Y2387092D01*
X12884150Y2388514D01*
X12600432Y2672181D01*
X12599009Y2674874D01*
X12598603Y2676347D01*
X12598247Y2681376D01*
X12597130Y2688285D01*
X12596266Y2691688D01*
X12593878Y2698292D01*
X12590729Y2704541D01*
X12586817Y2710383D01*
X12582194Y2715666D01*
X12576962Y2720340D01*
X12571222Y2724353D01*
X12565024Y2727604D01*
X12560350Y2729585D01*
X12557963Y2731465D01*
X12556236Y2734005D01*
X12555626Y2735427D01*
X12555169Y2738475D01*
X12555575Y2741320D01*
X12556794Y2743962D01*
X12558674Y2746146D01*
X12561112Y2747721D01*
X12563906Y2748534D01*
X12572339Y2748635D01*
X12579146Y2749448D01*
X12585801Y2751074D01*
X12592202Y2753512D01*
X12598247Y2756712D01*
X12603886Y2760573D01*
X12609017Y2765094D01*
X12613538Y2770225D01*
X12617399Y2775864D01*
X12620599Y2781909D01*
X12623038Y2788310D01*
X12624663Y2794965D01*
X12625476Y2801772D01*
X12625476Y2808579D01*
X12624663Y2815386D01*
X12623038Y2822041D01*
X12620599Y2828442D01*
X12617399Y2834487D01*
X12613538Y2840126D01*
X12609017Y2845257D01*
X12603886Y2849778D01*
X12598247Y2853639D01*
X12592202Y2856839D01*
X12585801Y2859278D01*
X12579146Y2860903D01*
X12572339Y2861716D01*
X12565278Y2861716D01*
X12561620Y2861360D01*
X12554458Y2859938D01*
X12547498Y2857601D01*
X12544145Y2856128D01*
X12536525Y2851759D01*
X12533680Y2850946D01*
X12370562Y2850845D01*
X12364059Y2850388D01*
X12357709Y2848965D01*
X12354610Y2847949D01*
X12348667Y2845257D01*
X12343180Y2841701D01*
X12340640Y2839669D01*
X12184278Y2683611D01*
X12181433Y2682189D01*
X12179858Y2681782D01*
X12176861Y2681782D01*
X12174067Y2682595D01*
X12171629Y2684170D01*
X12169749Y2686354D01*
X12168530Y2688945D01*
X12168124Y2691841D01*
X12168225Y2879394D01*
X12169038Y2882188D01*
X12170613Y2884627D01*
X12177471Y2892044D01*
X12180011Y2893923D01*
X12182957Y2894939D01*
X15009164Y2939745D01*
X15010790Y2939643D01*
X15013533Y2938830D01*
X15015972Y2937256D01*
X15017851Y2935071D01*
X15019070Y2932480D01*
X15019477Y2929585D01*
X15019172Y2926994D01*
X15018308Y2923438D01*
X15017394Y2916123D01*
X15017343Y2908960D01*
X15018207Y2902051D01*
X15019934Y2895244D01*
X15022474Y2888742D01*
X15025776Y2882595D01*
X15029840Y2876854D01*
X15034564Y2871724D01*
X15039848Y2867202D01*
X15045690Y2863342D01*
X15048788Y2861665D01*
X15055240Y2858973D01*
X15061946Y2857093D01*
X15068854Y2856026D01*
X15073884Y2855671D01*
X15076779Y2854655D01*
X15079268Y2852877D01*
X15137892Y2794406D01*
X15142768Y2790850D01*
X15148153Y2788107D01*
X15153843Y2786278D01*
X15156789Y2785668D01*
X15159786Y2785313D01*
X15525292Y2785110D01*
X15528340Y2784094D01*
X15529661Y2783281D01*
X15614396Y2698750D01*
X15616224Y2696210D01*
X15617240Y2693162D01*
X15617240Y2690012D01*
X15615869Y2685084D01*
X15614599Y2678176D01*
X15614142Y2671165D01*
X15614294Y2666898D01*
X15615869Y2656179D01*
X15615462Y2653334D01*
X15614243Y2650693D01*
X15612363Y2648508D01*
X15609925Y2646934D01*
X15607131Y2646121D01*
X14941600Y2646019D01*
X14938451Y2646527D01*
X14935606Y2647950D01*
X14930323Y2653080D01*
X14928494Y2655570D01*
X14927478Y2658465D01*
X14927122Y2663494D01*
X14926106Y2670403D01*
X14924176Y2677160D01*
X14921484Y2683611D01*
X14918029Y2689656D01*
X14913813Y2695244D01*
X14908936Y2700274D01*
X14903500Y2704642D01*
X14897557Y2708351D01*
X14891207Y2711297D01*
X14887905Y2712466D01*
X14881148Y2714142D01*
X14877694Y2714701D01*
X14870734Y2715107D01*
X14863876Y2714701D01*
X14857171Y2713482D01*
X14850618Y2711450D01*
X14844369Y2708656D01*
X14838527Y2705100D01*
X14833142Y2700883D01*
X14828316Y2696057D01*
X14824100Y2690672D01*
X14820544Y2684780D01*
X14817750Y2678531D01*
X14815718Y2672029D01*
X14814448Y2665272D01*
X14814042Y2658465D01*
X14814143Y2654960D01*
X14815007Y2648051D01*
X14816734Y2641244D01*
X14819274Y2634742D01*
X14822576Y2628595D01*
X14826640Y2622854D01*
X14831364Y2617724D01*
X14836648Y2613202D01*
X14842490Y2609342D01*
X14845588Y2607665D01*
X14852040Y2604973D01*
X14858746Y2603093D01*
X14865654Y2602026D01*
X14870684Y2601671D01*
X14873579Y2600655D01*
X14876068Y2598877D01*
X14896592Y2578506D01*
X14901468Y2574950D01*
X14904110Y2573477D01*
X14909647Y2571191D01*
X14915489Y2569768D01*
X14921484Y2569311D01*
X15944342Y2569210D01*
X15947136Y2568397D01*
X15949574Y2566822D01*
X15951454Y2564638D01*
X15952673Y2561996D01*
X15953079Y2559151D01*
X15952978Y2375154D01*
X15952165Y2372360D01*
X15950590Y2369972D01*
X15948406Y2368042D01*
X15945764Y2366873D01*
X15942919Y2366467D01*
X15941243Y2366568D01*
X15939617Y2366975D01*
X15936671Y2368600D01*
X15931032Y2372461D01*
X15924987Y2375611D01*
X15918637Y2378049D01*
X15911982Y2379675D01*
X15905226Y2380488D01*
X15898266Y2380488D01*
X15891154Y2379573D01*
X15884245Y2377795D01*
X15880842Y2376576D01*
X15874390Y2373477D01*
X15868345Y2369616D01*
X15862858Y2365044D01*
X15860369Y2363317D01*
X15857423Y2362403D01*
X15855899Y2362250D01*
X15460268Y2362149D01*
X15454325Y2361234D01*
X15451429Y2360422D01*
X15445841Y2358085D01*
X15440710Y2354935D01*
X15438374Y2353106D01*
X15396768Y2311654D01*
X15394279Y2309876D01*
X15391384Y2308860D01*
X15386354Y2308504D01*
X15379446Y2307437D01*
X15376042Y2306624D01*
X15369489Y2304288D01*
X15366288Y2302865D01*
X15360243Y2299360D01*
X15354655Y2295144D01*
X15349626Y2290318D01*
X15345206Y2284882D01*
X15341549Y2278938D01*
X15338602Y2272588D01*
X15336469Y2265934D01*
X15335199Y2259025D01*
X15334843Y2255570D01*
X15334742Y2251506D01*
X15334335Y2248662D01*
X15333167Y2246020D01*
X15331236Y2243836D01*
X15328798Y2242261D01*
X15326055Y2241448D01*
X15323007Y2241499D01*
X15321432Y2241854D01*
X15318638Y2243277D01*
X15276931Y2284679D01*
X15271140Y2289200D01*
X15264892Y2292959D01*
X15261590Y2294585D01*
X15254732Y2297176D01*
X15247619Y2298903D01*
X15240355Y2299817D01*
X15177973Y2300020D01*
X15174925Y2301036D01*
X15173553Y2301849D01*
X15078710Y2396540D01*
X15073223Y2401417D01*
X15067178Y2405583D01*
X15060726Y2408986D01*
X15053868Y2411577D01*
X15046756Y2413304D01*
X15039492Y2414219D01*
X14587626Y2414219D01*
X14580362Y2413304D01*
X14573250Y2411577D01*
X14566392Y2408986D01*
X14559940Y2405583D01*
X14553895Y2401417D01*
X14548408Y2396540D01*
X14453666Y2301951D01*
X14450822Y2300528D01*
X14449247Y2300122D01*
X14362734Y2300020D01*
X14355673Y2299614D01*
X14348713Y2298395D01*
X14341957Y2296363D01*
X14335506Y2293569D01*
X14329359Y2290064D01*
X14323720Y2285847D01*
X14318589Y2280970D01*
X14314068Y2275586D01*
X14310156Y2269693D01*
X14307007Y2263394D01*
X14304619Y2256739D01*
X14302994Y2249881D01*
X14302181Y2242870D01*
X14302181Y2235860D01*
X14302994Y2228850D01*
X14304619Y2221992D01*
X14307007Y2215337D01*
X14310156Y2209038D01*
X14314068Y2203145D01*
X14318589Y2197760D01*
X14323720Y2192883D01*
X14329359Y2188667D01*
X14335506Y2185162D01*
X14341957Y2182368D01*
X14348713Y2180336D01*
X14355673Y2179116D01*
X14362684Y2178710D01*
X14429282Y2178608D01*
X14432076Y2177796D01*
X14434515Y2176221D01*
X14436394Y2174036D01*
X14437563Y2171395D01*
X14438020Y2168550D01*
X14437512Y2165400D01*
X14435277Y2160524D01*
X14433905Y2156968D01*
X14432788Y2153361D01*
X14431263Y2145893D01*
X14430756Y2138324D01*
X14431162Y2131517D01*
X14432432Y2124760D01*
X14434464Y2118258D01*
X14437258Y2112010D01*
X14440814Y2106117D01*
X14445030Y2100732D01*
X14449856Y2095906D01*
X14455241Y2091689D01*
X14461083Y2088134D01*
X14467332Y2085339D01*
X14473885Y2083307D01*
X14480590Y2082088D01*
X14487448Y2081682D01*
X14494560Y2082139D01*
X14501571Y2083460D01*
X14508378Y2085695D01*
X14514880Y2088743D01*
X14520875Y2092604D01*
X14523719Y2094788D01*
X14527580Y2098141D01*
X14528901Y2098954D01*
X14531848Y2099868D01*
X15039746Y2099868D01*
X15042743Y2098852D01*
X15044115Y2098040D01*
X15185339Y1957019D01*
X15187168Y1954428D01*
X15188184Y1951431D01*
X15188184Y1948383D01*
X15187371Y1945639D01*
X15185847Y1943201D01*
X15183662Y1941322D01*
X15181072Y1940102D01*
X15176347Y1939137D01*
X15169794Y1937359D01*
X15163495Y1934768D01*
X15157551Y1931416D01*
X15152065Y1927402D01*
X15147137Y1922780D01*
X15142718Y1917547D01*
X15139009Y1911857D01*
X15136012Y1905762D01*
X15133269Y1897989D01*
X15131694Y1895551D01*
X15129510Y1893620D01*
X15126868Y1892452D01*
X15125446Y1892096D01*
X15122398Y1892147D01*
X15120823Y1892503D01*
X15119350Y1893112D01*
X15116810Y1894992D01*
X15062911Y1948891D01*
X15058339Y1952802D01*
X15053208Y1955952D01*
X15047620Y1958238D01*
X15041778Y1959660D01*
X15035784Y1960118D01*
X14613686Y1960016D01*
X14610689Y1959660D01*
X14604847Y1958238D01*
X14599259Y1955952D01*
X14594128Y1952802D01*
X14589556Y1948891D01*
X14449094Y1808429D01*
X14446554Y1806549D01*
X14445081Y1805939D01*
X14441932Y1805432D01*
X14392554Y1805432D01*
X14389557Y1805939D01*
X14386763Y1807260D01*
X14382902Y1810613D01*
X14377162Y1814830D01*
X14370862Y1818284D01*
X14367611Y1819757D01*
X14360804Y1821942D01*
X14353794Y1823313D01*
X14346631Y1823770D01*
X14339824Y1823364D01*
X14333067Y1822094D01*
X14326565Y1820062D01*
X14320316Y1817268D01*
X14314424Y1813712D01*
X14309039Y1809496D01*
X14304213Y1804670D01*
X14299996Y1799285D01*
X14296440Y1793443D01*
X14293646Y1787194D01*
X14291614Y1780641D01*
X14290395Y1773936D01*
X14289989Y1767078D01*
X14290395Y1760220D01*
X14291665Y1753412D01*
X14293748Y1746808D01*
X14296593Y1740560D01*
X14300200Y1734667D01*
X14304467Y1729232D01*
X14309394Y1724406D01*
X14314881Y1720189D01*
X14320824Y1716684D01*
X14327174Y1713890D01*
X14333778Y1711909D01*
X14338706Y1710842D01*
X14341500Y1709420D01*
X14343735Y1707134D01*
X14345157Y1704339D01*
X14345513Y1702816D01*
X14345513Y1699768D01*
X14344700Y1696974D01*
X14342110Y1692554D01*
X14338960Y1686001D01*
X14336623Y1679092D01*
X14335810Y1675587D01*
X14334896Y1668373D01*
X14334896Y1661109D01*
X14335810Y1654048D01*
X14336572Y1650542D01*
X14338807Y1643735D01*
X14340230Y1640433D01*
X14343735Y1634185D01*
X14347951Y1628394D01*
X14352879Y1623161D01*
X14358467Y1618640D01*
X14362633Y1615795D01*
X14364563Y1613611D01*
X14365782Y1610918D01*
X14366189Y1608023D01*
X14365782Y1605076D01*
X14364462Y1602333D01*
X14362430Y1600098D01*
X14359636Y1597761D01*
X14354606Y1592529D01*
X14350288Y1586738D01*
X14346783Y1580438D01*
X14344040Y1573733D01*
X14342211Y1566722D01*
X14341297Y1559509D01*
X14341297Y1552244D01*
X14341652Y1548587D01*
X14343075Y1541424D01*
X14344497Y1536344D01*
X14344548Y1533194D01*
X14343634Y1530299D01*
X14341957Y1527810D01*
X14339620Y1525930D01*
X14335048Y1523847D01*
X14328851Y1520393D01*
X14323110Y1516227D01*
X14317980Y1511350D01*
X14315643Y1508709D01*
X14311528Y1502918D01*
X14309699Y1499870D01*
X14306702Y1493469D01*
X14304518Y1486763D01*
X14303197Y1479804D01*
X14302790Y1472692D01*
X14303197Y1465884D01*
X14304416Y1459179D01*
X14306448Y1452626D01*
X14309242Y1446377D01*
X14312798Y1440535D01*
X14317014Y1435150D01*
X14321840Y1430324D01*
X14327225Y1426108D01*
X14333118Y1422552D01*
X14339366Y1419758D01*
X14345869Y1417726D01*
X14352625Y1416456D01*
X14359432Y1416050D01*
X14366240Y1416456D01*
X14371421Y1417167D01*
X14374266Y1416761D01*
X14376907Y1415542D01*
X14379092Y1413662D01*
X14380667Y1411224D01*
X14381480Y1408430D01*
X14381480Y1405382D01*
X14380463Y1402384D01*
X14378635Y1399794D01*
X14346478Y1367637D01*
X14344142Y1365910D01*
X14339671Y1364030D01*
X14333575Y1360830D01*
X14327886Y1356969D01*
X14322755Y1352448D01*
X14318183Y1347317D01*
X14314271Y1341678D01*
X14311071Y1335582D01*
X14308632Y1329182D01*
X14307007Y1322527D01*
X14306143Y1315720D01*
X14306143Y1308862D01*
X14307007Y1302054D01*
X14308632Y1295400D01*
X14311071Y1288999D01*
X14314220Y1282954D01*
X14318132Y1277315D01*
X14322653Y1272184D01*
X14327784Y1267663D01*
X14333423Y1263802D01*
X14336369Y1262075D01*
X14342618Y1259281D01*
X14349171Y1257249D01*
X14355876Y1256030D01*
X14362734Y1255623D01*
X14369542Y1256030D01*
X14376298Y1257249D01*
X14382851Y1259332D01*
X14389100Y1262126D01*
X14394992Y1265682D01*
X14400377Y1269949D01*
X14405203Y1274826D01*
X14407438Y1277467D01*
X14411299Y1283106D01*
X14414449Y1289202D01*
X14416379Y1293723D01*
X14418106Y1296009D01*
X14686076Y1563827D01*
X14687448Y1564690D01*
X14688921Y1565300D01*
X14692071Y1565757D01*
X14694103Y1565554D01*
X14699589Y1563573D01*
X14706955Y1561541D01*
X14714524Y1560525D01*
X14721789Y1560525D01*
X14725243Y1560830D01*
X14732050Y1562100D01*
X14738654Y1564182D01*
X14744954Y1567078D01*
X14750846Y1570685D01*
X14756282Y1575003D01*
X14761159Y1579981D01*
X14764359Y1583842D01*
X14766899Y1585620D01*
X14769846Y1586534D01*
X14772843Y1586534D01*
X14775637Y1585722D01*
X14776907Y1585061D01*
X14779091Y1583131D01*
X14780615Y1580692D01*
X14781428Y1577949D01*
X14781580Y1576476D01*
X14781682Y1334668D01*
X14782596Y1328724D01*
X14783409Y1325829D01*
X14785746Y1320241D01*
X14788896Y1315110D01*
X14790724Y1312773D01*
X14895169Y1207973D01*
X14896592Y1205179D01*
X14896998Y1203604D01*
X14896998Y1200505D01*
X14896084Y1197559D01*
X14893239Y1190701D01*
X14892172Y1187196D01*
X14890750Y1179931D01*
X14890242Y1172565D01*
X14890648Y1165758D01*
X14891918Y1159002D01*
X14893950Y1152499D01*
X14896744Y1146251D01*
X14900300Y1140358D01*
X14904516Y1134973D01*
X14909342Y1130147D01*
X14914727Y1125931D01*
X14920569Y1122375D01*
X14926818Y1119581D01*
X14933371Y1117549D01*
X14940076Y1116330D01*
X14946934Y1115923D01*
X14953742Y1116330D01*
X14960447Y1117549D01*
X14967000Y1119581D01*
X14973249Y1122375D01*
X14979091Y1125931D01*
X14984476Y1130147D01*
X14989301Y1134973D01*
X14993518Y1140358D01*
X14997074Y1146251D01*
X14999868Y1152499D01*
X15001900Y1159002D01*
X15003170Y1165758D01*
X15003576Y1172565D01*
X15003068Y1179880D01*
X15002510Y1183487D01*
X15001697Y1187043D01*
X14999360Y1193952D01*
X14997887Y1197305D01*
X14994280Y1203655D01*
X14989860Y1209497D01*
X14986406Y1213358D01*
X14985034Y1216050D01*
X14983206Y1223111D01*
X14980869Y1228445D01*
X14977821Y1233373D01*
X14974011Y1237792D01*
X14861235Y1350568D01*
X14859355Y1353159D01*
X14858746Y1354632D01*
X14858390Y1356156D01*
X14858390Y1648866D01*
X14859304Y1651812D01*
X14861032Y1654302D01*
X14865604Y1659788D01*
X14869464Y1665833D01*
X14872563Y1672285D01*
X14874748Y1679092D01*
X14876119Y1686102D01*
X14876576Y1693265D01*
X14876119Y1700377D01*
X14875560Y1703933D01*
X14874748Y1707388D01*
X14874443Y1709928D01*
X14874849Y1712823D01*
X14876068Y1715414D01*
X14877948Y1717598D01*
X14879116Y1718513D01*
X14881758Y1719681D01*
X14884603Y1720088D01*
X14887752Y1719630D01*
X14889226Y1719021D01*
X14891816Y1717141D01*
X16085870Y523036D01*
X16090442Y519125D01*
X16095573Y515975D01*
X16098316Y514705D01*
X16104057Y512876D01*
X16107003Y512267D01*
X16112998Y511809D01*
X16197986Y511708D01*
X16200932Y510793D01*
X16203422Y509066D01*
X16208908Y504494D01*
X16214953Y500634D01*
X16221405Y497585D01*
X16228161Y495401D01*
X16235172Y494080D01*
X16238728Y493725D01*
X16245738Y493725D01*
X16252545Y494538D01*
X16259149Y496163D01*
X16265550Y498601D01*
X16268649Y500075D01*
X16274491Y503631D01*
X16279876Y507847D01*
X16284701Y512673D01*
X16288918Y518058D01*
X16292474Y523951D01*
X16295268Y530199D01*
X16297300Y536702D01*
X16298570Y543458D01*
X16298976Y550265D01*
X16298570Y557072D01*
X16297300Y563829D01*
X16295268Y570331D01*
X16292474Y576580D01*
X16288918Y582472D01*
X16284701Y587857D01*
X16279876Y592683D01*
X16274491Y596900D01*
X16268649Y600456D01*
X16262400Y603250D01*
X16255847Y605282D01*
X16249142Y606501D01*
X16242334Y606907D01*
X16238728Y606806D01*
X16231616Y605891D01*
X16228110Y605129D01*
X16221303Y602894D01*
X16214801Y599795D01*
X16208756Y595934D01*
X16203269Y591312D01*
X16200729Y589534D01*
X16197783Y588619D01*
X16131489Y588619D01*
X16128492Y589635D01*
X16127120Y590448D01*
X16086531Y631037D01*
X16085108Y633882D01*
X16084600Y637032D01*
X16085007Y639876D01*
X16086226Y642518D01*
X16088106Y644702D01*
X16090544Y646226D01*
X16093338Y647039D01*
X16094760Y647192D01*
X16215817Y647039D01*
X16218763Y646125D01*
X16221303Y644398D01*
X16223945Y642010D01*
X16229736Y637794D01*
X16235984Y634339D01*
X16239286Y632866D01*
X16242639Y631647D01*
X16249548Y629869D01*
X16256660Y628954D01*
X16263670Y628954D01*
X16270478Y629818D01*
X16277082Y631444D01*
X16283482Y633882D01*
X16289528Y637032D01*
X16295166Y640943D01*
X16300297Y645464D01*
X16304818Y650595D01*
X16308730Y656234D01*
X16311880Y662279D01*
X16314318Y668680D01*
X16315944Y675284D01*
X16316807Y682091D01*
X16316807Y689000D01*
X16315944Y695909D01*
X16314267Y702614D01*
X16311727Y709117D01*
X16308476Y715213D01*
X16304463Y720902D01*
X16299789Y726084D01*
X16293388Y731621D01*
X16291610Y734161D01*
X16291001Y735634D01*
X16290544Y738682D01*
X16290645Y740257D01*
X16291610Y743254D01*
X16294557Y750214D01*
X16295674Y753821D01*
X16296538Y757478D01*
X16297554Y764946D01*
X16297554Y772160D01*
X16297249Y775665D01*
X16295979Y782472D01*
X16293846Y789127D01*
X16292525Y792327D01*
X16288410Y800150D01*
X16287902Y801928D01*
X16287699Y803808D01*
X16287800Y805281D01*
X16288664Y808126D01*
X16290290Y810564D01*
X16293998Y813968D01*
X16298824Y819150D01*
X16302939Y824890D01*
X16306342Y831087D01*
X16308933Y837641D01*
X16310660Y844499D01*
X16311575Y851509D01*
X16311575Y858621D01*
X16310660Y865632D01*
X16308933Y872490D01*
X16306342Y879094D01*
X16302939Y885291D01*
X16298773Y891032D01*
X16293947Y896213D01*
X16290239Y899566D01*
X16288613Y902055D01*
X16287800Y904849D01*
X16287851Y908202D01*
X16288359Y910031D01*
X16290950Y914704D01*
X16293846Y921054D01*
X16295979Y927709D01*
X16297249Y934567D01*
X16297656Y941527D01*
X16297503Y945642D01*
X16297046Y949756D01*
X16296335Y953769D01*
X16294963Y959256D01*
X16294963Y962152D01*
X16295776Y964895D01*
X16297300Y967333D01*
X16299484Y969213D01*
X16302075Y970432D01*
X16308578Y972819D01*
X16314724Y975969D01*
X16320414Y979830D01*
X16323106Y982014D01*
X16327983Y986891D01*
X16332301Y992276D01*
X16335857Y998169D01*
X16338753Y1004468D01*
X16340785Y1011021D01*
X16342055Y1017828D01*
X16342461Y1024686D01*
X16342055Y1031595D01*
X16341547Y1035050D01*
X16339870Y1041755D01*
X16337381Y1048207D01*
X16334130Y1054303D01*
X16330168Y1059992D01*
X16325494Y1065123D01*
X16320312Y1069695D01*
X16314572Y1073556D01*
X16308374Y1076706D01*
X16305885Y1078230D01*
X16303955Y1080414D01*
X16302685Y1083106D01*
X16302278Y1086002D01*
X16302532Y1088339D01*
X16303396Y1092708D01*
X16303904Y1097076D01*
X16304107Y1101547D01*
X16303701Y1108710D01*
X16304209Y1111808D01*
X16305580Y1114602D01*
X16306596Y1115822D01*
X16309136Y1117701D01*
X16313861Y1119530D01*
X16320160Y1122629D01*
X16326053Y1126490D01*
X16331438Y1131011D01*
X16336162Y1136192D01*
X16340277Y1141882D01*
X16343630Y1148080D01*
X16346169Y1154633D01*
X16347897Y1161440D01*
X16348456Y1164894D01*
X16348862Y1171905D01*
X16348405Y1179017D01*
X16347897Y1182522D01*
X16346119Y1189380D01*
X16343477Y1196035D01*
X16340074Y1202232D01*
X16335908Y1207973D01*
X16331031Y1213205D01*
X16325545Y1217726D01*
X16319550Y1221536D01*
X16313099Y1224584D01*
X16308324Y1226362D01*
X16305733Y1228242D01*
X16303853Y1230833D01*
X16303244Y1232306D01*
X16302888Y1233830D01*
X16302939Y1237437D01*
X16303701Y1242161D01*
X16304260Y1248460D01*
X16305276Y1251407D01*
X16307206Y1253896D01*
X16308425Y1254912D01*
X16311270Y1256284D01*
X16316299Y1257198D01*
X16323106Y1259027D01*
X16326408Y1260246D01*
X16332758Y1263345D01*
X16338702Y1267155D01*
X16344087Y1271676D01*
X16348913Y1276858D01*
X16353028Y1282598D01*
X16356380Y1288796D01*
X16358971Y1295349D01*
X16360698Y1302207D01*
X16361257Y1305661D01*
X16361663Y1312722D01*
X16361257Y1319682D01*
X16359987Y1326489D01*
X16357854Y1333093D01*
X16355009Y1339443D01*
X16351351Y1345336D01*
X16346982Y1350772D01*
X16342004Y1355648D01*
X16336467Y1359814D01*
X16333520Y1361694D01*
X16327323Y1364792D01*
X16320769Y1367129D01*
X16315944Y1368450D01*
X16313353Y1369974D01*
X16312184Y1370990D01*
X16310508Y1373479D01*
X16309594Y1376375D01*
X16309644Y1379677D01*
X16310305Y1384554D01*
X16310508Y1389481D01*
X16310254Y1394917D01*
X16310711Y1397863D01*
X16312032Y1400606D01*
X16314064Y1402791D01*
X16316655Y1404315D01*
X16321430Y1405686D01*
X16327882Y1408074D01*
X16333978Y1411224D01*
X16339667Y1415084D01*
X16344849Y1419656D01*
X16349472Y1424787D01*
X16353383Y1430426D01*
X16356634Y1436522D01*
X16359073Y1442974D01*
X16360749Y1449628D01*
X16361562Y1456486D01*
X16361562Y1463802D01*
X16360495Y1471523D01*
X16358362Y1478991D01*
X16356279Y1484630D01*
X16356076Y1486712D01*
X16355974Y1751025D01*
X16355618Y1754022D01*
X16354196Y1759864D01*
X16353180Y1762709D01*
X16350437Y1768043D01*
X16348760Y1770583D01*
X16344849Y1775155D01*
X16178936Y1941220D01*
X16177513Y1944065D01*
X16177107Y1945589D01*
X16177006Y2649982D01*
X16177412Y2652877D01*
X16178631Y2658364D01*
X16179038Y2663952D01*
X16178580Y2669946D01*
X16178022Y2672892D01*
X16176142Y2678633D01*
X16173399Y2683967D01*
X16169894Y2688844D01*
X16079063Y2779826D01*
X16074491Y2783738D01*
X16069360Y2786888D01*
X16066617Y2788158D01*
X16060877Y2789986D01*
X16057930Y2790596D01*
X16051936Y2791053D01*
X16037407Y2791053D01*
X16034359Y2791510D01*
X16031616Y2792882D01*
X16027704Y2796235D01*
X16021964Y2800451D01*
X16015665Y2803906D01*
X16012413Y2805379D01*
X16009061Y2806598D01*
X16002101Y2808376D01*
X15994989Y2809290D01*
X15988030Y2809290D01*
X15981222Y2808427D01*
X15974568Y2806801D01*
X15968167Y2804363D01*
X15962122Y2801213D01*
X15956483Y2797302D01*
X15951352Y2792780D01*
X15946831Y2787650D01*
X15942970Y2782011D01*
X15941243Y2779064D01*
X15938449Y2772816D01*
X15936417Y2766263D01*
X15935198Y2759557D01*
X15934791Y2752699D01*
X15935198Y2745892D01*
X15936417Y2739186D01*
X15938449Y2732633D01*
X15941243Y2726385D01*
X15944799Y2720543D01*
X15949015Y2715158D01*
X15953841Y2710332D01*
X15959226Y2706116D01*
X15965119Y2702560D01*
X15971367Y2699766D01*
X15977869Y2697734D01*
X15984626Y2696464D01*
X15991433Y2696057D01*
X15998596Y2696514D01*
X16005708Y2697886D01*
X16012515Y2700121D01*
X16019018Y2703220D01*
X16025063Y2707132D01*
X16029330Y2710383D01*
X16030956Y2711145D01*
X16032683Y2711602D01*
X16034461Y2711754D01*
X16037560Y2711246D01*
X16040404Y2709824D01*
X16098367Y2651861D01*
X16099790Y2649016D01*
X16100196Y2647492D01*
X16100298Y1927098D01*
X16100755Y1921103D01*
X16102177Y1915261D01*
X16103193Y1912416D01*
X16105936Y1907082D01*
X16107613Y1904542D01*
X16111524Y1899970D01*
X16277437Y1733905D01*
X16278860Y1731060D01*
X16279266Y1729536D01*
X16279368Y1701850D01*
X16278961Y1698955D01*
X16277742Y1696364D01*
X16275862Y1694180D01*
X16273424Y1692605D01*
X16270630Y1691792D01*
X16269207Y1691690D01*
X16263467Y1692605D01*
X16256254Y1693316D01*
X16253206Y1693925D01*
X16251783Y1694535D01*
X16249345Y1696415D01*
X16248329Y1697583D01*
X16246957Y1700377D01*
X16246601Y1701850D01*
X16246043Y1710385D01*
X16244722Y1717192D01*
X16243757Y1720545D01*
X16241166Y1727047D01*
X16239642Y1730146D01*
X16235934Y1736089D01*
X16231514Y1741474D01*
X16226485Y1746300D01*
X16220948Y1750466D01*
X16214902Y1753920D01*
X16208451Y1756613D01*
X16205149Y1757680D01*
X16198291Y1759153D01*
X16191382Y1759762D01*
X16188334Y1760321D01*
X16185642Y1761743D01*
X16184473Y1762709D01*
X16031718Y1915668D01*
X16030295Y1918462D01*
X16029889Y1920036D01*
X16029787Y2565958D01*
X16030244Y2569006D01*
X16030803Y2570429D01*
X16032581Y2572969D01*
X16034969Y2575610D01*
X16039185Y2581402D01*
X16042640Y2587650D01*
X16045281Y2594305D01*
X16047059Y2601214D01*
X16047974Y2608326D01*
X16047974Y2615336D01*
X16047161Y2622143D01*
X16045535Y2628747D01*
X16043097Y2635148D01*
X16041624Y2638247D01*
X16038068Y2644089D01*
X16033851Y2649474D01*
X16029025Y2654300D01*
X16023640Y2658516D01*
X16017748Y2662072D01*
X16011499Y2664866D01*
X16004997Y2666898D01*
X15998240Y2668168D01*
X15991433Y2668574D01*
X15984575Y2668168D01*
X15977869Y2666898D01*
X15971316Y2664866D01*
X15965068Y2662072D01*
X15959226Y2658516D01*
X15953841Y2654300D01*
X15947745Y2648254D01*
X15946323Y2647289D01*
X15944748Y2646578D01*
X15943122Y2646172D01*
X15941395Y2646019D01*
X15734487Y2646121D01*
X15731693Y2646934D01*
X15729254Y2648508D01*
X15727375Y2650693D01*
X15726156Y2653334D01*
X15725749Y2656179D01*
X15727324Y2666898D01*
X15727375Y2674721D01*
X15726460Y2681833D01*
X15724682Y2688742D01*
X15722041Y2695397D01*
X15718536Y2701645D01*
X15716554Y2704592D01*
X15711932Y2710129D01*
X15706699Y2715006D01*
X15702686Y2718155D01*
X15699892Y2721610D01*
X15570911Y2850692D01*
X15566339Y2854604D01*
X15561208Y2857754D01*
X15558465Y2859024D01*
X15552775Y2860852D01*
X15549829Y2861462D01*
X15543834Y2861919D01*
X15181326Y2862021D01*
X15178278Y2863037D01*
X15176957Y2863850D01*
X15133523Y2907080D01*
X15131694Y2909570D01*
X15130678Y2912465D01*
X15130322Y2917748D01*
X15129154Y2925064D01*
X15127884Y2930093D01*
X15127884Y2933039D01*
X15128697Y2935782D01*
X15130272Y2938221D01*
X15132456Y2940151D01*
X15135047Y2941320D01*
X15137942Y2941726D01*
X16782237Y2937662D01*
X16784980Y2936798D01*
X16787418Y2935274D01*
X16789298Y2933090D01*
X16790517Y2930448D01*
X16790924Y2927604D01*
X16790924Y2158238D01*
X16816324Y2132838D01*
X18632424Y2132838D01*
X18668746Y2169007D01*
X18671590Y2170430D01*
X18673165Y2170836D01*
X18758560Y2170938D01*
X18835624Y2158238D01*
X18924524Y2158238D01*
X18949568Y2859938D01*
X18950127Y2862935D01*
X18951600Y2865628D01*
X18953734Y2867761D01*
X18956426Y2869184D01*
X18959474Y2869692D01*
X20740928Y2920238D01*
X21101202Y2907690D01*
X21102675Y2907334D01*
X21105317Y2905963D01*
X21107450Y2903880D01*
X21108873Y2901238D01*
X21109533Y2898343D01*
X21131225Y2556408D01*
X21130818Y2553512D01*
X21129650Y2550922D01*
X21127720Y2548737D01*
X21126602Y2547823D01*
X21123960Y2546654D01*
X21121065Y2546248D01*
X21118118Y2546705D01*
X21116696Y2547213D01*
X21112480Y2549855D01*
X21106333Y2553004D01*
X21099830Y2555392D01*
X21096528Y2556306D01*
X21089721Y2557475D01*
X21084794Y2557932D01*
X21083320Y2558288D01*
X21080730Y2559710D01*
X21079561Y2560675D01*
X21077783Y2563063D01*
X21077174Y2564434D01*
X21076615Y2567381D01*
X21075853Y2574290D01*
X21074227Y2581046D01*
X21073160Y2584348D01*
X21070316Y2590698D01*
X21066760Y2596692D01*
X21062492Y2602179D01*
X21057565Y2607106D01*
X21052078Y2611374D01*
X21046084Y2614930D01*
X21039734Y2617774D01*
X21033079Y2619756D01*
X21026221Y2620975D01*
X21021294Y2621432D01*
X21019820Y2621788D01*
X21017230Y2623210D01*
X21016061Y2624175D01*
X21014283Y2626563D01*
X21013674Y2627934D01*
X21013115Y2630881D01*
X21012861Y2634335D01*
X21011692Y2641092D01*
X21009711Y2647696D01*
X21006917Y2654046D01*
X21003412Y2659938D01*
X20999196Y2665425D01*
X20994319Y2670352D01*
X20988934Y2674620D01*
X20983041Y2678226D01*
X20976742Y2681071D01*
X20970189Y2683103D01*
X20966836Y2683865D01*
X20959978Y2684678D01*
X20953018Y2684678D01*
X20946110Y2683814D01*
X20939302Y2682138D01*
X20932800Y2679598D01*
X20926653Y2676245D01*
X20920913Y2672232D01*
X20915782Y2667508D01*
X20911261Y2662174D01*
X20907400Y2656332D01*
X20905724Y2653284D01*
X20903031Y2646832D01*
X20901964Y2643479D01*
X20900491Y2636621D01*
X20899729Y2628138D01*
X20898713Y2625242D01*
X20896935Y2622753D01*
X20878596Y2604465D01*
X20874685Y2599893D01*
X20871535Y2594762D01*
X20870265Y2592019D01*
X20868436Y2586278D01*
X20867827Y2583332D01*
X20867370Y2577338D01*
X20867268Y2133092D01*
X20866455Y2130298D01*
X20864880Y2127859D01*
X20862696Y2125980D01*
X20860054Y2124760D01*
X20857210Y2124354D01*
X20855178Y2124557D01*
X20849437Y2126640D01*
X20841614Y2128774D01*
X20833588Y2129840D01*
X20829524Y2129993D01*
X20305166Y2129891D01*
X20297902Y2128977D01*
X20290790Y2127250D01*
X20283932Y2124659D01*
X20277429Y2121255D01*
X20271435Y2117090D01*
X20268590Y2114753D01*
X20174508Y2020671D01*
X20169987Y2014880D01*
X20166228Y2008632D01*
X20164602Y2005330D01*
X20162012Y1998472D01*
X20160284Y1991360D01*
X20159370Y1984095D01*
X20159370Y1976932D01*
X20160183Y1969922D01*
X20161808Y1963064D01*
X20164247Y1956409D01*
X20167396Y1950110D01*
X20171257Y1944217D01*
X20175829Y1938832D01*
X20180960Y1933956D01*
X20186599Y1929739D01*
X20192695Y1926234D01*
X20199197Y1923440D01*
X20205954Y1921408D01*
X20212862Y1920189D01*
X20219924Y1919782D01*
X20227239Y1920239D01*
X20234452Y1921560D01*
X20237958Y1922525D01*
X20244816Y1925116D01*
X20251318Y1928520D01*
X20257312Y1932686D01*
X20260157Y1935022D01*
X20332192Y2006752D01*
X20335036Y2008174D01*
X20336560Y2008581D01*
X20829524Y2008682D01*
X20833588Y2008835D01*
X20841614Y2009902D01*
X20849437Y2012035D01*
X20855178Y2014118D01*
X20857210Y2014321D01*
X20860054Y2013915D01*
X20862696Y2012696D01*
X20864880Y2010816D01*
X20866455Y2008378D01*
X20867268Y2005584D01*
X20867268Y1757629D01*
X20866252Y1754632D01*
X20865439Y1753260D01*
X20581569Y1469237D01*
X20579029Y1467358D01*
X20577556Y1466748D01*
X20574406Y1466291D01*
X20410627Y1466392D01*
X20407680Y1467307D01*
X20405191Y1469034D01*
X20399705Y1473606D01*
X20393660Y1477467D01*
X20387208Y1480566D01*
X20380401Y1482750D01*
X20373390Y1484122D01*
X20366228Y1484579D01*
X20359420Y1484172D01*
X20352664Y1482902D01*
X20346162Y1480870D01*
X20339913Y1478076D01*
X20334020Y1474520D01*
X20328636Y1470304D01*
X20323810Y1465478D01*
X20319593Y1460093D01*
X20316037Y1454251D01*
X20313243Y1448003D01*
X20311211Y1441450D01*
X20309992Y1434744D01*
X20309586Y1427886D01*
X20309992Y1421028D01*
X20310500Y1417624D01*
X20311262Y1414272D01*
X20311516Y1411833D01*
X20311110Y1408938D01*
X20310602Y1407515D01*
X20308925Y1405077D01*
X20307909Y1404010D01*
X20305369Y1402486D01*
X20302524Y1401724D01*
X20295717Y1400556D01*
X20289113Y1398574D01*
X20282814Y1395780D01*
X20276921Y1392275D01*
X20271486Y1388059D01*
X20266609Y1383182D01*
X20262342Y1377797D01*
X20258735Y1371904D01*
X20255890Y1365656D01*
X20253858Y1359103D01*
X20252588Y1352296D01*
X20252182Y1345438D01*
X20252588Y1338529D01*
X20253858Y1331722D01*
X20254772Y1328420D01*
X20257262Y1321968D01*
X20260513Y1315872D01*
X20264475Y1310182D01*
X20269098Y1305052D01*
X20274280Y1300530D01*
X20280020Y1296670D01*
X20286167Y1293520D01*
X20289367Y1292199D01*
X20296022Y1290269D01*
X20299375Y1289558D01*
X20304302Y1288846D01*
X20306995Y1287678D01*
X20309281Y1285798D01*
X20310957Y1283309D01*
X20311770Y1280464D01*
X20311922Y1278991D01*
X20311567Y1276350D01*
X20310703Y1272692D01*
X20309687Y1265275D01*
X20309738Y1257300D01*
X20310195Y1253083D01*
X20311008Y1248968D01*
X20311211Y1246682D01*
X20310805Y1243787D01*
X20309586Y1241094D01*
X20307604Y1238910D01*
X20305115Y1237386D01*
X20302270Y1236624D01*
X20295514Y1235405D01*
X20288961Y1233373D01*
X20285760Y1232103D01*
X20279664Y1228902D01*
X20274026Y1225042D01*
X20268844Y1220520D01*
X20264323Y1215390D01*
X20260411Y1209751D01*
X20258684Y1206754D01*
X20255890Y1200505D01*
X20253807Y1193952D01*
X20252588Y1187196D01*
X20252182Y1180338D01*
X20252588Y1173530D01*
X20253807Y1166774D01*
X20255839Y1160272D01*
X20258633Y1154023D01*
X20262189Y1148130D01*
X20266406Y1142746D01*
X20271232Y1137920D01*
X20276616Y1133703D01*
X20282509Y1130147D01*
X20288758Y1127353D01*
X20295260Y1125321D01*
X20302016Y1124102D01*
X20308824Y1123696D01*
X20315986Y1124153D01*
X20322997Y1125474D01*
X20329804Y1127709D01*
X20336256Y1130757D01*
X20342301Y1134618D01*
X20347787Y1139190D01*
X20350276Y1140968D01*
X20353223Y1141882D01*
X20550124Y1141984D01*
X20556118Y1142441D01*
X20561960Y1143863D01*
X20564805Y1144879D01*
X20570139Y1147622D01*
X20572679Y1149299D01*
X20577251Y1153210D01*
X21086572Y1662734D01*
X21090128Y1667611D01*
X21092871Y1672996D01*
X21094700Y1678686D01*
X21095309Y1681632D01*
X21095766Y1687626D01*
X21095766Y2342184D01*
X21096274Y2345334D01*
X21096884Y2346807D01*
X21098764Y2349398D01*
X21109686Y2360320D01*
X21112175Y2362098D01*
X21115070Y2363114D01*
X21120252Y2363470D01*
X21127466Y2364638D01*
X21132393Y2365857D01*
X21135390Y2365857D01*
X21138286Y2364943D01*
X21140826Y2363216D01*
X21142706Y2360828D01*
X21143366Y2359406D01*
X21143976Y2356459D01*
X21197824Y1510284D01*
X21172627Y100787D01*
X21172119Y97688D01*
X21170646Y94894D01*
X21168410Y92710D01*
X21165616Y91287D01*
X21162467Y90830D01*
X21160130Y91084D01*
X20854924Y164338D01*
X20804124Y113537D01*
X20804022Y90779D01*
X20803006Y87731D01*
X20802193Y86360D01*
X20793202Y77368D01*
X20790357Y75946D01*
X20788782Y75539D01*
X18884138Y75438D01*
X18881293Y75844D01*
X18878651Y77063D01*
X18876467Y78943D01*
X18874892Y81381D01*
X18874079Y84175D01*
X18874130Y87172D01*
X18874486Y88747D01*
X18875908Y91592D01*
X19013271Y229108D01*
X19015760Y230886D01*
X19018656Y231902D01*
X19023685Y232257D01*
X19030594Y233324D01*
X19037300Y235204D01*
X19043751Y237896D01*
X19049796Y241401D01*
X19055384Y245617D01*
X19060414Y250444D01*
X19064833Y255879D01*
X19068491Y261823D01*
X19071437Y268173D01*
X19073571Y274828D01*
X19074841Y281736D01*
X19075196Y285191D01*
X19075196Y292100D01*
X19074333Y298907D01*
X19072707Y305562D01*
X19070269Y311962D01*
X19067119Y318008D01*
X19063208Y323646D01*
X19058686Y328777D01*
X19053556Y333298D01*
X19047917Y337159D01*
X19044970Y338886D01*
X19038722Y341680D01*
X19032169Y343712D01*
X19025463Y344932D01*
X19018605Y345338D01*
X19011646Y344932D01*
X19004788Y343611D01*
X19001435Y342696D01*
X18994882Y340156D01*
X18988735Y336804D01*
X18983045Y332790D01*
X18977864Y328066D01*
X18973342Y322732D01*
X18969482Y316890D01*
X18966383Y310642D01*
X18964097Y304038D01*
X18963233Y300634D01*
X18962217Y293725D01*
X18961862Y288696D01*
X18960846Y285800D01*
X18959017Y283311D01*
X18829324Y153822D01*
X18826530Y152400D01*
X18824956Y151993D01*
X17330115Y151993D01*
X17327118Y153009D01*
X17325746Y153822D01*
X17301108Y178460D01*
X17299686Y181305D01*
X17299279Y182829D01*
X17299279Y221538D01*
X17300194Y224485D01*
X17301972Y226974D01*
X17306544Y232460D01*
X17310404Y238506D01*
X17313452Y244957D01*
X17315688Y251764D01*
X17317008Y258775D01*
X17317466Y265938D01*
X17317059Y272745D01*
X17315840Y279501D01*
X17313808Y286004D01*
X17311014Y292252D01*
X17307458Y298145D01*
X17303242Y303530D01*
X17298416Y308356D01*
X17293031Y312572D01*
X17287138Y316128D01*
X17280890Y318922D01*
X17274387Y320954D01*
X17267631Y322173D01*
X17260824Y322580D01*
X17254016Y322173D01*
X17247260Y320954D01*
X17240758Y318922D01*
X17234509Y316128D01*
X17228616Y312572D01*
X17223232Y308356D01*
X17218406Y303530D01*
X17214189Y298145D01*
X17210633Y292252D01*
X17207839Y286004D01*
X17205807Y279501D01*
X17204588Y272745D01*
X17204182Y265938D01*
X17204639Y258775D01*
X17205960Y251764D01*
X17208195Y244957D01*
X17211243Y238506D01*
X17215104Y232460D01*
X17219676Y226974D01*
X17221454Y224485D01*
X17222368Y221538D01*
X17222470Y164338D01*
X17222927Y158343D01*
X17224349Y152501D01*
X17225365Y149656D01*
X17228108Y144322D01*
X17229785Y141782D01*
X17233696Y137210D01*
X17279162Y91592D01*
X17280026Y90220D01*
X17280636Y88747D01*
X17281093Y85598D01*
X17280686Y82753D01*
X17279518Y80111D01*
X17277588Y77927D01*
X17275200Y76352D01*
X17272406Y75539D01*
X16765524Y75438D01*
X16722039Y31953D01*
X16719499Y30124D01*
X16716451Y29108D01*
X13936980Y26365D01*
X13929969Y25654D01*
X13630656Y25755D01*
X13627862Y26568D01*
X13625423Y28143D01*
X13623544Y30327D01*
X13622324Y32969D01*
X13621918Y35814D01*
X13622019Y37338D01*
X13622934Y40233D01*
X13624661Y42722D01*
X13628369Y45974D01*
X13633145Y50800D01*
X13637310Y56184D01*
X13640765Y61976D01*
X13643559Y68173D01*
X13645540Y74676D01*
X13646759Y81381D01*
X13647166Y88138D01*
X13646708Y95300D01*
X13645388Y102311D01*
X13643152Y109118D01*
X13640104Y115570D01*
X13636244Y121615D01*
X13631672Y127101D01*
X13629894Y129590D01*
X13628979Y132537D01*
X13628979Y818946D01*
X13629995Y821944D01*
X13630808Y823315D01*
X13853363Y1046022D01*
X13857274Y1050594D01*
X13860424Y1055725D01*
X13861694Y1058468D01*
X13863523Y1064209D01*
X13864132Y1067155D01*
X13864590Y1073150D01*
X13864691Y2392476D01*
X13865606Y2395423D01*
X13867384Y2397912D01*
X13871956Y2403398D01*
X13875816Y2409444D01*
X13878864Y2415895D01*
X13881100Y2422702D01*
X13882420Y2429713D01*
X13882878Y2436876D01*
X13882471Y2443683D01*
X13881252Y2450439D01*
X13879220Y2456942D01*
X13876426Y2463190D01*
X13872870Y2469083D01*
X13868654Y2474468D01*
X13863828Y2479294D01*
X13858443Y2483510D01*
X13852550Y2487066D01*
X13846301Y2489860D01*
X13839799Y2491892D01*
X13833043Y2493111D01*
X13826236Y2493518D01*
X13819327Y2493111D01*
X13815923Y2492603D01*
X13809268Y2490927D01*
X13805966Y2489809D01*
X13799718Y2486914D01*
X13793825Y2483358D01*
X13788440Y2479040D01*
X13785900Y2476703D01*
X13781379Y2471470D01*
X13779144Y2469337D01*
X13776401Y2468016D01*
X13773353Y2467508D01*
X13770457Y2467965D01*
X13767866Y2469134D01*
X13765682Y2471064D01*
X13764768Y2472182D01*
X13763599Y2474823D01*
X13763193Y2477668D01*
X13763294Y2506319D01*
X13764107Y2509164D01*
X13768476Y2516835D01*
X13771219Y2523591D01*
X13772286Y2527096D01*
X13773708Y2534310D01*
X13774064Y2537917D01*
X13774064Y2545029D01*
X13773251Y2551836D01*
X13771626Y2558440D01*
X13769187Y2564841D01*
X13767714Y2567940D01*
X13764158Y2573782D01*
X13759942Y2579166D01*
X13755116Y2583992D01*
X13749731Y2588209D01*
X13743838Y2591765D01*
X13737590Y2594559D01*
X13731087Y2596591D01*
X13724331Y2597861D01*
X13717524Y2598267D01*
X13710716Y2597861D01*
X13703960Y2596591D01*
X13697457Y2594559D01*
X13691209Y2591765D01*
X13685316Y2588209D01*
X13679932Y2583992D01*
X13675106Y2579166D01*
X13670889Y2573782D01*
X13667333Y2567940D01*
X13664539Y2561691D01*
X13662507Y2555138D01*
X13661288Y2548432D01*
X13660882Y2541574D01*
X13660983Y2537917D01*
X13661948Y2530652D01*
X13662761Y2527096D01*
X13665098Y2520188D01*
X13666571Y2516835D01*
X13670940Y2509164D01*
X13671753Y2506319D01*
X13671854Y2182266D01*
X13671448Y2179370D01*
X13670940Y2177948D01*
X13666571Y2170328D01*
X13663828Y2163521D01*
X13662761Y2160016D01*
X13661339Y2152853D01*
X13660882Y2145538D01*
X13661288Y2138730D01*
X13662507Y2131974D01*
X13664539Y2125472D01*
X13667333Y2119223D01*
X13670889Y2113330D01*
X13675106Y2107946D01*
X13679932Y2103120D01*
X13685316Y2098903D01*
X13691209Y2095347D01*
X13697457Y2092553D01*
X13703960Y2090521D01*
X13710716Y2089302D01*
X13717524Y2088896D01*
X13724585Y2089302D01*
X13731494Y2090623D01*
X13734897Y2091588D01*
X13741450Y2094179D01*
X13747648Y2097582D01*
X13750594Y2099513D01*
X13756081Y2103983D01*
X13760907Y2109114D01*
X13765123Y2114804D01*
X13769390Y2122373D01*
X13771626Y2124710D01*
X13772997Y2125573D01*
X13776096Y2126589D01*
X13779144Y2126589D01*
X13781938Y2125776D01*
X13783208Y2125116D01*
X13785392Y2123186D01*
X13786967Y2120747D01*
X13787780Y2118004D01*
X13787780Y1091641D01*
X13786764Y1088644D01*
X13785951Y1087272D01*
X13563396Y864565D01*
X13559485Y859993D01*
X13556335Y854862D01*
X13555065Y852119D01*
X13553236Y846378D01*
X13552627Y843432D01*
X13552169Y837437D01*
X13552068Y132537D01*
X13551154Y129590D01*
X13549376Y127101D01*
X13544804Y121615D01*
X13540943Y115570D01*
X13537895Y109118D01*
X13535660Y102311D01*
X13534339Y95300D01*
X13533882Y88138D01*
X13534288Y81381D01*
X13535507Y74676D01*
X13537488Y68173D01*
X13540282Y61976D01*
X13543737Y56184D01*
X13547902Y50800D01*
X13552678Y45974D01*
X13556386Y42722D01*
X13558113Y40233D01*
X13559028Y37338D01*
X13559028Y34391D01*
X13558215Y31597D01*
X13556640Y29159D01*
X13554456Y27279D01*
X13551814Y26060D01*
X13548969Y25654D01*
G37*

%LPC*%
G36*
X13022173Y135585D02*
G01*
X13030047Y135991D01*
X13037870Y137210D01*
X13041731Y138125D01*
X13049250Y140614D01*
X13056514Y143814D01*
X13063372Y147777D01*
X13069773Y152450D01*
X13075665Y157734D01*
X13080949Y163626D01*
X13085571Y170027D01*
X13089534Y176885D01*
X13092785Y184099D01*
X13095224Y191668D01*
X13096849Y199390D01*
X13097408Y203301D01*
X13097814Y211226D01*
X13097408Y219151D01*
X13096138Y226974D01*
X13094106Y234594D01*
X13091261Y242011D01*
X13087654Y249072D01*
X13083336Y255676D01*
X13078358Y261874D01*
X13072770Y267462D01*
X13066623Y272440D01*
X13059968Y276758D01*
X13052907Y280314D01*
X13045541Y283159D01*
X13041731Y284327D01*
X13033959Y285953D01*
X13026085Y286766D01*
X13018211Y286766D01*
X13010337Y285953D01*
X13002564Y284327D01*
X12995046Y281838D01*
X12987782Y278638D01*
X12980924Y274675D01*
X12974523Y270002D01*
X12968630Y264718D01*
X12963347Y258825D01*
X12958724Y252425D01*
X12954762Y245567D01*
X12951510Y238353D01*
X12949072Y230784D01*
X12947446Y223062D01*
X12946888Y219151D01*
X12946481Y211226D01*
X12946888Y203301D01*
X12948158Y195478D01*
X12950190Y187858D01*
X12953034Y180441D01*
X12956641Y173380D01*
X12960959Y166776D01*
X12965938Y160578D01*
X12971526Y154990D01*
X12977672Y150012D01*
X12984327Y145694D01*
X12991388Y142138D01*
X12998754Y139293D01*
X13002564Y138125D01*
X13010337Y136499D01*
X13018211Y135686D01*
G37*
G36*
X12522149Y135585D02*
G01*
X12530074Y135991D01*
X12537897Y137210D01*
X12545517Y139293D01*
X12552934Y142138D01*
X12559995Y145694D01*
X12566599Y150012D01*
X12572796Y154990D01*
X12578384Y160578D01*
X12583363Y166776D01*
X12587681Y173380D01*
X12591237Y180441D01*
X12594082Y187858D01*
X12596164Y195478D01*
X12597384Y203301D01*
X12597790Y211226D01*
X12597384Y219151D01*
X12596164Y226974D01*
X12594082Y234594D01*
X12591237Y242011D01*
X12587681Y249072D01*
X12583363Y255676D01*
X12578384Y261874D01*
X12572796Y267462D01*
X12566599Y272440D01*
X12559995Y276758D01*
X12552934Y280314D01*
X12545517Y283159D01*
X12537897Y285242D01*
X12530074Y286461D01*
X12522149Y286867D01*
X12514224Y286461D01*
X12506401Y285242D01*
X12498781Y283159D01*
X12491364Y280314D01*
X12484303Y276758D01*
X12477699Y272440D01*
X12471501Y267462D01*
X12465913Y261874D01*
X12460935Y255676D01*
X12456617Y249072D01*
X12453061Y242011D01*
X12450216Y234594D01*
X12448133Y226974D01*
X12446914Y219151D01*
X12446508Y211226D01*
X12446914Y203301D01*
X12448133Y195478D01*
X12450216Y187858D01*
X12453061Y180441D01*
X12456617Y173380D01*
X12460935Y166776D01*
X12465913Y160578D01*
X12471501Y154990D01*
X12477699Y150012D01*
X12484303Y145694D01*
X12491364Y142138D01*
X12498781Y139293D01*
X12506401Y137210D01*
X12514224Y135991D01*
G37*
G36*
X14366900Y175818D02*
G01*
X14374266Y179730D01*
X14381276Y184353D01*
X14387779Y189636D01*
X14393722Y195529D01*
X14399056Y201980D01*
X14403730Y208940D01*
X14407743Y216306D01*
X14410994Y224028D01*
X14413484Y232003D01*
X14366900Y232003D01*
G37*
G36*
X15019274Y175818D02*
G01*
X15019274Y232003D01*
X14972639Y232003D01*
X14975128Y224028D01*
X14978380Y216306D01*
X14982393Y208940D01*
X14987066Y201980D01*
X14992400Y195529D01*
X14998344Y189636D01*
X15004846Y184353D01*
X15011857Y179730D01*
G37*
G36*
X15091968Y175818D02*
G01*
X15099334Y179730D01*
X15106345Y184353D01*
X15112847Y189636D01*
X15118791Y195529D01*
X15124125Y201980D01*
X15128798Y208940D01*
X15132812Y216306D01*
X15136063Y224028D01*
X15138552Y232003D01*
X15091968Y232003D01*
G37*
G36*
X14294205Y175818D02*
G01*
X14294205Y232003D01*
X14247571Y232003D01*
X14250060Y224028D01*
X14253311Y216306D01*
X14257324Y208940D01*
X14261998Y201980D01*
X14267332Y195529D01*
X14273276Y189636D01*
X14279778Y184353D01*
X14286788Y179730D01*
G37*
G36*
X17451324Y227584D02*
G01*
X18787821Y227685D01*
X18790818Y228041D01*
X18796660Y229463D01*
X18799505Y230479D01*
X18804839Y233222D01*
X18807379Y234899D01*
X18811951Y238810D01*
X19044564Y471424D01*
X19048476Y475996D01*
X19051625Y481126D01*
X19052895Y483870D01*
X19054724Y489610D01*
X19055334Y492556D01*
X19055791Y498551D01*
X19055892Y717905D01*
X19056807Y720852D01*
X19058585Y723341D01*
X19063157Y728827D01*
X19067018Y734872D01*
X19070066Y741324D01*
X19072301Y748131D01*
X19073622Y755142D01*
X19074079Y762304D01*
X19073672Y769315D01*
X19072352Y776274D01*
X19070167Y782980D01*
X19067221Y789330D01*
X19063462Y795324D01*
X19059042Y800760D01*
X19055486Y804519D01*
X19054572Y805891D01*
X19053556Y808990D01*
X19053403Y810615D01*
X19053556Y812342D01*
X19053962Y813968D01*
X19055588Y816914D01*
X19059499Y822553D01*
X19062700Y828598D01*
X19065138Y835050D01*
X19066764Y841705D01*
X19067576Y848512D01*
X19067576Y855319D01*
X19066764Y862126D01*
X19065138Y868781D01*
X19062700Y875182D01*
X19059499Y881227D01*
X19055638Y886866D01*
X19051117Y891997D01*
X19045986Y896518D01*
X19040348Y900379D01*
X19034302Y903579D01*
X19027902Y906018D01*
X19021247Y907643D01*
X19014440Y908456D01*
X19007480Y908456D01*
X19000368Y907542D01*
X18996863Y906780D01*
X18990056Y904544D01*
X18983604Y901496D01*
X18977559Y897636D01*
X18972072Y893064D01*
X18969583Y891286D01*
X18966637Y890371D01*
X18752362Y890269D01*
X18749213Y890778D01*
X18746368Y892200D01*
X18621451Y1016965D01*
X18616879Y1020876D01*
X18611748Y1024026D01*
X18609005Y1025296D01*
X18603264Y1027125D01*
X18600318Y1027734D01*
X18594324Y1028192D01*
X18443295Y1028293D01*
X18440501Y1029106D01*
X18438114Y1030681D01*
X18436183Y1032865D01*
X18435015Y1035507D01*
X18434608Y1038352D01*
X18435066Y1041501D01*
X18435675Y1042974D01*
X18437555Y1045514D01*
X18723051Y1331010D01*
X18726962Y1335582D01*
X18730112Y1340713D01*
X18731382Y1343456D01*
X18733211Y1349197D01*
X18733820Y1352143D01*
X18734278Y1358138D01*
X18734379Y1593138D01*
X18735294Y1596085D01*
X18737072Y1598574D01*
X18741644Y1604060D01*
X18745504Y1610106D01*
X18748552Y1616557D01*
X18750788Y1623364D01*
X18752108Y1630375D01*
X18752566Y1637538D01*
X18752108Y1644853D01*
X18750686Y1652066D01*
X18748349Y1659026D01*
X18745098Y1665630D01*
X18741034Y1671777D01*
X18739510Y1674672D01*
X18739104Y1676298D01*
X18739104Y1679346D01*
X18739916Y1682140D01*
X18741491Y1684578D01*
X18743676Y1686458D01*
X18746266Y1687677D01*
X18749162Y1688084D01*
X18934988Y1688185D01*
X18937986Y1688541D01*
X18943828Y1689963D01*
X18946622Y1690979D01*
X18952006Y1693722D01*
X18956883Y1697278D01*
X19012052Y1752295D01*
X19014541Y1754124D01*
X19017437Y1755139D01*
X19022466Y1755495D01*
X19029375Y1756511D01*
X19036131Y1758442D01*
X19042583Y1761134D01*
X19048628Y1764588D01*
X19054216Y1768805D01*
X19059245Y1773682D01*
X19063614Y1779117D01*
X19067322Y1785061D01*
X19070269Y1791411D01*
X19071437Y1794713D01*
X19073114Y1801469D01*
X19073672Y1804924D01*
X19074079Y1811883D01*
X19073672Y1818741D01*
X19072453Y1825447D01*
X19070421Y1832000D01*
X19067627Y1838248D01*
X19064071Y1844090D01*
X19059855Y1849475D01*
X19055029Y1854301D01*
X19049644Y1858518D01*
X19043751Y1862074D01*
X19037503Y1864868D01*
X19031000Y1866900D01*
X19024244Y1868170D01*
X19017437Y1868576D01*
X19013932Y1868474D01*
X19007023Y1867611D01*
X19000216Y1865884D01*
X18993713Y1863343D01*
X18987566Y1860042D01*
X18981826Y1855978D01*
X18976695Y1851253D01*
X18972174Y1845970D01*
X18968313Y1840128D01*
X18966637Y1837029D01*
X18963944Y1830578D01*
X18962065Y1823872D01*
X18960998Y1816963D01*
X18960642Y1811934D01*
X18959626Y1809038D01*
X18957848Y1806549D01*
X18917818Y1766722D01*
X18915024Y1765300D01*
X18913449Y1764893D01*
X18594324Y1764792D01*
X18588329Y1764334D01*
X18582487Y1762912D01*
X18579642Y1761896D01*
X18574308Y1759153D01*
X18571768Y1757476D01*
X18567196Y1753565D01*
X18433084Y1619402D01*
X18430494Y1617522D01*
X18429020Y1616913D01*
X18425871Y1616456D01*
X18422924Y1616862D01*
X18420232Y1618132D01*
X18416219Y1621485D01*
X18410174Y1625701D01*
X18403620Y1629206D01*
X18396712Y1631899D01*
X18389498Y1633677D01*
X18382132Y1634591D01*
X16803624Y1634693D01*
X16796562Y1634286D01*
X16789654Y1633067D01*
X16782897Y1631035D01*
X16776395Y1628241D01*
X16770299Y1624736D01*
X16764660Y1620520D01*
X16759529Y1615643D01*
X16754957Y1610258D01*
X16751096Y1604365D01*
X16747947Y1598066D01*
X16745508Y1591411D01*
X16743883Y1584553D01*
X16743070Y1577543D01*
X16743121Y1569872D01*
X16743527Y1565656D01*
X16745254Y1557477D01*
X16746982Y1551787D01*
X16747032Y1548536D01*
X16746728Y1547063D01*
X16745407Y1544370D01*
X16743426Y1542186D01*
X16740835Y1540662D01*
X16736110Y1539290D01*
X16729659Y1536852D01*
X16723613Y1533702D01*
X16717975Y1529791D01*
X16712844Y1525270D01*
X16708272Y1520139D01*
X16704360Y1514500D01*
X16701160Y1508455D01*
X16698722Y1502003D01*
X16697096Y1495348D01*
X16696283Y1488541D01*
X16696283Y1481683D01*
X16697096Y1474876D01*
X16697807Y1471523D01*
X16699890Y1464970D01*
X16702684Y1458722D01*
X16706291Y1452829D01*
X16710507Y1447444D01*
X16712133Y1445006D01*
X16712996Y1442161D01*
X16712996Y1439214D01*
X16712133Y1436370D01*
X16710507Y1433931D01*
X16706291Y1428546D01*
X16702684Y1422654D01*
X16699890Y1416405D01*
X16697807Y1409852D01*
X16696588Y1403096D01*
X16696182Y1396238D01*
X16696588Y1389278D01*
X16697909Y1382369D01*
X16698823Y1379016D01*
X16701363Y1372514D01*
X16704716Y1366367D01*
X16708729Y1360627D01*
X16713454Y1355496D01*
X16718788Y1350975D01*
X16724630Y1347114D01*
X16727678Y1345438D01*
X16734129Y1342745D01*
X16737482Y1341678D01*
X16744340Y1340205D01*
X16752824Y1339443D01*
X16755719Y1338427D01*
X16758208Y1336649D01*
X16852696Y1242110D01*
X16857268Y1238199D01*
X16862399Y1235049D01*
X16865142Y1233779D01*
X16870883Y1231950D01*
X16873829Y1231341D01*
X16879824Y1230884D01*
X17140224Y1230782D01*
X17143171Y1229868D01*
X17145660Y1228090D01*
X17151400Y1223213D01*
X17153178Y1220673D01*
X17154093Y1217676D01*
X17154093Y1214729D01*
X17153280Y1211935D01*
X17152620Y1210665D01*
X17150689Y1208481D01*
X17148251Y1206906D01*
X17145508Y1206093D01*
X16799153Y1205992D01*
X16796105Y1206449D01*
X16793311Y1207871D01*
X16791076Y1210056D01*
X16788536Y1214323D01*
X16784624Y1219911D01*
X16780103Y1224940D01*
X16774972Y1229461D01*
X16769384Y1233271D01*
X16763339Y1236421D01*
X16760190Y1237742D01*
X16753687Y1239723D01*
X16747032Y1240942D01*
X16740225Y1241348D01*
X16733418Y1240942D01*
X16726662Y1239723D01*
X16720159Y1237691D01*
X16713911Y1234897D01*
X16708018Y1231341D01*
X16702633Y1227124D01*
X16697807Y1222298D01*
X16693591Y1216914D01*
X16690035Y1211021D01*
X16687241Y1204772D01*
X16685209Y1198270D01*
X16683990Y1191514D01*
X16683583Y1184706D01*
X16683990Y1177899D01*
X16685209Y1171143D01*
X16687241Y1164640D01*
X16690035Y1158392D01*
X16693591Y1152499D01*
X16697807Y1147114D01*
X16702633Y1142288D01*
X16708018Y1138072D01*
X16713911Y1134516D01*
X16720159Y1131722D01*
X16726662Y1129690D01*
X16733418Y1128471D01*
X16740225Y1128064D01*
X16744035Y1128166D01*
X16753687Y1129436D01*
X16757294Y1129284D01*
X16821810Y1129182D01*
X16824553Y1128369D01*
X16826992Y1126794D01*
X16828922Y1124610D01*
X16830090Y1121968D01*
X16830497Y1119124D01*
X16829786Y1112672D01*
X16829582Y1107897D01*
X16829735Y1103528D01*
X16830243Y1099108D01*
X16831411Y1092403D01*
X16831005Y1089558D01*
X16829786Y1086916D01*
X16827906Y1084732D01*
X16825468Y1083208D01*
X16822674Y1082344D01*
X16803979Y1082243D01*
X16801947Y1082497D01*
X16792702Y1085697D01*
X16788942Y1086612D01*
X16781272Y1087628D01*
X16774007Y1087678D01*
X16767200Y1086815D01*
X16760596Y1085189D01*
X16754195Y1082751D01*
X16748150Y1079601D01*
X16742511Y1075690D01*
X16737380Y1071168D01*
X16732859Y1066038D01*
X16728948Y1060399D01*
X16725798Y1054354D01*
X16723360Y1047953D01*
X16721734Y1041349D01*
X16720870Y1034542D01*
X16720870Y1027684D01*
X16721734Y1020876D01*
X16723360Y1014272D01*
X16725798Y1007871D01*
X16728948Y1001826D01*
X16732859Y996187D01*
X16737380Y991057D01*
X16742511Y986536D01*
X16748150Y982624D01*
X16754195Y979474D01*
X16760596Y977036D01*
X16767200Y975410D01*
X16774007Y974547D01*
X16781170Y974598D01*
X16790517Y975766D01*
X16793362Y975360D01*
X16796004Y974140D01*
X16798188Y972261D01*
X16799712Y969822D01*
X16800576Y967028D01*
X16800525Y963980D01*
X16800169Y962456D01*
X16799560Y960983D01*
X16797680Y958392D01*
X16761764Y922324D01*
X16758208Y917448D01*
X16755465Y912063D01*
X16753636Y906373D01*
X16753027Y903427D01*
X16752569Y897432D01*
X16752468Y361137D01*
X16751554Y358190D01*
X16749776Y355701D01*
X16745204Y350215D01*
X16741343Y344170D01*
X16738295Y337718D01*
X16736060Y330911D01*
X16734739Y323900D01*
X16734282Y316738D01*
X16734688Y309930D01*
X16735907Y303174D01*
X16737939Y296672D01*
X16740733Y290423D01*
X16744289Y284530D01*
X16748506Y279146D01*
X16753332Y274320D01*
X16758716Y270103D01*
X16764609Y266547D01*
X16770857Y263753D01*
X16777360Y261721D01*
X16784116Y260502D01*
X16790924Y260096D01*
X16797731Y260502D01*
X16804487Y261721D01*
X16810990Y263753D01*
X16817238Y266547D01*
X16823131Y270103D01*
X16828516Y274320D01*
X16833342Y279146D01*
X16837558Y284530D01*
X16841114Y290423D01*
X16843908Y296672D01*
X16845940Y303174D01*
X16847159Y309930D01*
X16847566Y316738D01*
X16847108Y323900D01*
X16845788Y330911D01*
X16843552Y337718D01*
X16840504Y344170D01*
X16836644Y350215D01*
X16832072Y355701D01*
X16830294Y358190D01*
X16829379Y361137D01*
X16829278Y492912D01*
X16829684Y495808D01*
X16830903Y498398D01*
X16832783Y500583D01*
X16833951Y501497D01*
X16836593Y502666D01*
X16839438Y503072D01*
X16845889Y502005D01*
X16850156Y501548D01*
X16857980Y501497D01*
X16865092Y502412D01*
X16868597Y503174D01*
X16875404Y505409D01*
X16881856Y508457D01*
X16887901Y512318D01*
X16893387Y516890D01*
X16895876Y518668D01*
X16898823Y519582D01*
X17298924Y519684D01*
X17304918Y520141D01*
X17310760Y521563D01*
X17313605Y522579D01*
X17318939Y525322D01*
X17321479Y526999D01*
X17326051Y530910D01*
X17529251Y734110D01*
X17533162Y738682D01*
X17536312Y743813D01*
X17537582Y746556D01*
X17539411Y752297D01*
X17540020Y755243D01*
X17540478Y761238D01*
X17540579Y780338D01*
X17541494Y783285D01*
X17543272Y785774D01*
X17547844Y791260D01*
X17551704Y797306D01*
X17554752Y803757D01*
X17556988Y810564D01*
X17558308Y817575D01*
X17558766Y824737D01*
X17558359Y831646D01*
X17557089Y838453D01*
X17555006Y845058D01*
X17552111Y851408D01*
X17548504Y857300D01*
X17544186Y862736D01*
X17539208Y867562D01*
X17535347Y870762D01*
X17533569Y873302D01*
X17532654Y876300D01*
X17532654Y879246D01*
X17533467Y882040D01*
X17534128Y883310D01*
X17536058Y885494D01*
X17538496Y887069D01*
X17541240Y887882D01*
X17616424Y887984D01*
X17622418Y888441D01*
X17628260Y889863D01*
X17631105Y890879D01*
X17636439Y893622D01*
X17638979Y895299D01*
X17643551Y899210D01*
X17694046Y949553D01*
X17696891Y950976D01*
X17698415Y951382D01*
X18114975Y951484D01*
X18117820Y951077D01*
X18120461Y949858D01*
X18122646Y947978D01*
X18124220Y945540D01*
X18125033Y942746D01*
X18125033Y939850D01*
X18122950Y930452D01*
X18122392Y922324D01*
X18122798Y915517D01*
X18124017Y908761D01*
X18126049Y902258D01*
X18128843Y896010D01*
X18132399Y890117D01*
X18136616Y884732D01*
X18141442Y879906D01*
X18146826Y875690D01*
X18152719Y872134D01*
X18158968Y869340D01*
X18165470Y867308D01*
X18172226Y866089D01*
X18179034Y865682D01*
X18182793Y865784D01*
X18190260Y866800D01*
X18193969Y867664D01*
X18197576Y868781D01*
X18205958Y872337D01*
X18207482Y872693D01*
X18210530Y872693D01*
X18213273Y871880D01*
X18215711Y870305D01*
X18217642Y868121D01*
X18218810Y865530D01*
X18219216Y862634D01*
X18218556Y856487D01*
X18218353Y851916D01*
X18218912Y843940D01*
X18219623Y840028D01*
X18220588Y836168D01*
X18222315Y830630D01*
X18222366Y827430D01*
X18221553Y824636D01*
X18219978Y822198D01*
X18217794Y820318D01*
X18215152Y819099D01*
X18212308Y818692D01*
X18209107Y819200D01*
X18206262Y820674D01*
X18203316Y822756D01*
X18197017Y826262D01*
X18190362Y828903D01*
X18183352Y830732D01*
X18176240Y831646D01*
X18169229Y831646D01*
X18162422Y830834D01*
X18155767Y829208D01*
X18149366Y826769D01*
X18143321Y823569D01*
X18137682Y819708D01*
X18132552Y815187D01*
X18128030Y810056D01*
X18124170Y804418D01*
X18120969Y798372D01*
X18118531Y791972D01*
X18116905Y785317D01*
X18116092Y778510D01*
X18116092Y771702D01*
X18116905Y764895D01*
X18118531Y758240D01*
X18120969Y751840D01*
X18124170Y745794D01*
X18128030Y740156D01*
X18132552Y735025D01*
X18137682Y730504D01*
X18143321Y726643D01*
X18149366Y723442D01*
X18155767Y721004D01*
X18162422Y719378D01*
X18169229Y718566D01*
X18177002Y718616D01*
X18182945Y719226D01*
X18185790Y718820D01*
X18188432Y717651D01*
X18190616Y715721D01*
X18192191Y713333D01*
X18193004Y710539D01*
X18192953Y707593D01*
X18192140Y704799D01*
X18187771Y697128D01*
X18185028Y690372D01*
X18183148Y683260D01*
X18182539Y679653D01*
X18182082Y672338D01*
X18182488Y665530D01*
X18183707Y658774D01*
X18185739Y652272D01*
X18188533Y646023D01*
X18192089Y640130D01*
X18196306Y634746D01*
X18201132Y629920D01*
X18206516Y625703D01*
X18212409Y622147D01*
X18218658Y619353D01*
X18225160Y617321D01*
X18231916Y616102D01*
X18238724Y615696D01*
X18245886Y616153D01*
X18252897Y617474D01*
X18259704Y619709D01*
X18266156Y622757D01*
X18272201Y626618D01*
X18277687Y631190D01*
X18280176Y632968D01*
X18283123Y633882D01*
X18474232Y633882D01*
X18477230Y632866D01*
X18478601Y632053D01*
X18687135Y423722D01*
X18688913Y421233D01*
X18689929Y418338D01*
X18690691Y409854D01*
X18692164Y403098D01*
X18693180Y399745D01*
X18695873Y393344D01*
X18698260Y388670D01*
X18698667Y386994D01*
X18698718Y383794D01*
X18697905Y381050D01*
X18697244Y379780D01*
X18695314Y377596D01*
X18694146Y376682D01*
X18691555Y375513D01*
X18688659Y375107D01*
X18361863Y375208D01*
X18360288Y375564D01*
X18358815Y376174D01*
X18356275Y378053D01*
X18321426Y413054D01*
X18320004Y415645D01*
X18318784Y420522D01*
X18316549Y427177D01*
X18313450Y433476D01*
X18309640Y439420D01*
X18305068Y444804D01*
X18299887Y449580D01*
X18294197Y453643D01*
X18288000Y456996D01*
X18284748Y458419D01*
X18278043Y460552D01*
X18271134Y461873D01*
X18264124Y462280D01*
X18257316Y461873D01*
X18250560Y460654D01*
X18244058Y458622D01*
X18237809Y455828D01*
X18231916Y452272D01*
X18226532Y448056D01*
X18221706Y443230D01*
X18217489Y437845D01*
X18213933Y431952D01*
X18211139Y425704D01*
X18209107Y419201D01*
X18207888Y412445D01*
X18207482Y405638D01*
X18207888Y398627D01*
X18209209Y391718D01*
X18211342Y385013D01*
X18214340Y378612D01*
X18218048Y372668D01*
X18222518Y367182D01*
X18227598Y362305D01*
X18233237Y358140D01*
X18239384Y354685D01*
X18242584Y353212D01*
X18249239Y350977D01*
X18254116Y349758D01*
X18256707Y348335D01*
X18284596Y320446D01*
X18286018Y317601D01*
X18286425Y316026D01*
X18286425Y313029D01*
X18285612Y310235D01*
X18284037Y307797D01*
X18281853Y305917D01*
X18279262Y304698D01*
X18276366Y304292D01*
X17469815Y304393D01*
X17466818Y305409D01*
X17465446Y306222D01*
X17338751Y432765D01*
X17334179Y436676D01*
X17329048Y439826D01*
X17326305Y441096D01*
X17320564Y442925D01*
X17317618Y443534D01*
X17311624Y443992D01*
X17203623Y444093D01*
X17200676Y445008D01*
X17198187Y446785D01*
X17192701Y451358D01*
X17186656Y455218D01*
X17180204Y458266D01*
X17173397Y460501D01*
X17166386Y461822D01*
X17159224Y462280D01*
X17152416Y461873D01*
X17145660Y460654D01*
X17139158Y458622D01*
X17132909Y455828D01*
X17127016Y452272D01*
X17121632Y448056D01*
X17116806Y443230D01*
X17112589Y437845D01*
X17109033Y431952D01*
X17106239Y425704D01*
X17104207Y419201D01*
X17102988Y412445D01*
X17102582Y405638D01*
X17102988Y398830D01*
X17104207Y392074D01*
X17106239Y385572D01*
X17109033Y379323D01*
X17112589Y373430D01*
X17116806Y368046D01*
X17121632Y363220D01*
X17127016Y359003D01*
X17132909Y355447D01*
X17139158Y352653D01*
X17145660Y350621D01*
X17152416Y349402D01*
X17159224Y348996D01*
X17166386Y349453D01*
X17173397Y350774D01*
X17180204Y353009D01*
X17186656Y356057D01*
X17192701Y359918D01*
X17198187Y364490D01*
X17200676Y366268D01*
X17203623Y367182D01*
X17293132Y367182D01*
X17296130Y366166D01*
X17297501Y365353D01*
X17424196Y238810D01*
X17428768Y234899D01*
X17433899Y231749D01*
X17436642Y230479D01*
X17442383Y228650D01*
X17445329Y228041D01*
G37*
G36*
X15091968Y334721D02*
G01*
X15138552Y334721D01*
X15136063Y342696D01*
X15132812Y350418D01*
X15128798Y357784D01*
X15124125Y364744D01*
X15118791Y371195D01*
X15112847Y377088D01*
X15106345Y382371D01*
X15099334Y386994D01*
X15091968Y390906D01*
G37*
G36*
X14247571Y334721D02*
G01*
X14294205Y334721D01*
X14294205Y390906D01*
X14290446Y389077D01*
X14283232Y384759D01*
X14276476Y379831D01*
X14270228Y374192D01*
X14264589Y368046D01*
X14259560Y361340D01*
X14255242Y354177D01*
X14251584Y346608D01*
X14248739Y338734D01*
G37*
G36*
X14366900Y334721D02*
G01*
X14413484Y334721D01*
X14410994Y342696D01*
X14407743Y350418D01*
X14403730Y357784D01*
X14399056Y364744D01*
X14393722Y371195D01*
X14387779Y377088D01*
X14381276Y382371D01*
X14374266Y386994D01*
X14366900Y390906D01*
G37*
G36*
X14972639Y334721D02*
G01*
X15019274Y334721D01*
X15019274Y390906D01*
X15015514Y389077D01*
X15008301Y384759D01*
X15001544Y379831D01*
X14995296Y374192D01*
X14989657Y368046D01*
X14984628Y361340D01*
X14980310Y354177D01*
X14976652Y346608D01*
X14973807Y338734D01*
G37*
G36*
X19473062Y379272D02*
G01*
X19479869Y379679D01*
X19486575Y380898D01*
X19493128Y382930D01*
X19499376Y385724D01*
X19505218Y389280D01*
X19510603Y393496D01*
X19515429Y398322D01*
X19519646Y403707D01*
X19523202Y409600D01*
X19525996Y415848D01*
X19528028Y422351D01*
X19529298Y429107D01*
X19529704Y435914D01*
X19529247Y443077D01*
X19527875Y450088D01*
X19525691Y456895D01*
X19522592Y463346D01*
X19518731Y469392D01*
X19514159Y474878D01*
X19512432Y477367D01*
X19511518Y480314D01*
X19511416Y1086459D01*
X19511873Y1089609D01*
X19512483Y1091082D01*
X19514362Y1093622D01*
X19827951Y1407210D01*
X19831862Y1411782D01*
X19835012Y1416913D01*
X19836282Y1419656D01*
X19838111Y1425397D01*
X19838720Y1428343D01*
X19839178Y1434338D01*
X19839076Y2224735D01*
X19838720Y2227732D01*
X19837298Y2233574D01*
X19836282Y2236419D01*
X19833539Y2241753D01*
X19831862Y2244293D01*
X19827951Y2248865D01*
X19695312Y2381453D01*
X19693534Y2383942D01*
X19692518Y2386838D01*
X19692162Y2391867D01*
X19691096Y2398776D01*
X19690283Y2402179D01*
X19687946Y2408783D01*
X19686524Y2411984D01*
X19683018Y2418029D01*
X19678802Y2423617D01*
X19673976Y2428646D01*
X19668540Y2433015D01*
X19662597Y2436723D01*
X19656247Y2439670D01*
X19652945Y2440838D01*
X19646138Y2442514D01*
X19639229Y2443378D01*
X19632320Y2443378D01*
X19625513Y2442565D01*
X19618858Y2440940D01*
X19612457Y2438501D01*
X19606412Y2435301D01*
X19600773Y2431440D01*
X19595642Y2426919D01*
X19591121Y2421788D01*
X19587260Y2416149D01*
X19584060Y2410104D01*
X19581622Y2403703D01*
X19579996Y2397048D01*
X19579183Y2390241D01*
X19579183Y2383332D01*
X19580047Y2376424D01*
X19581723Y2369616D01*
X19584263Y2363114D01*
X19587616Y2356967D01*
X19591629Y2351227D01*
X19596354Y2346096D01*
X19601688Y2341575D01*
X19607530Y2337714D01*
X19610578Y2336038D01*
X19617029Y2333345D01*
X19620382Y2332278D01*
X19627240Y2330805D01*
X19635724Y2330043D01*
X19638619Y2329027D01*
X19641108Y2327249D01*
X19760539Y2207615D01*
X19761962Y2204770D01*
X19762368Y2203246D01*
X19762368Y1452829D01*
X19761352Y1449832D01*
X19760539Y1448460D01*
X19443852Y1131468D01*
X19440347Y1126591D01*
X19437604Y1121206D01*
X19436537Y1118412D01*
X19435724Y1115517D01*
X19434810Y1109573D01*
X19434708Y481838D01*
X19434200Y478840D01*
X19432879Y476046D01*
X19429526Y472185D01*
X19425310Y466445D01*
X19421856Y460146D01*
X19420382Y456895D01*
X19418198Y450088D01*
X19416826Y443077D01*
X19416369Y435914D01*
X19416776Y429107D01*
X19418046Y422351D01*
X19420078Y415848D01*
X19422872Y409600D01*
X19426428Y403707D01*
X19430644Y398322D01*
X19435470Y393496D01*
X19440855Y389280D01*
X19446697Y385724D01*
X19452945Y382930D01*
X19459498Y380898D01*
X19466204Y379679D01*
G37*
G36*
X14888616Y397814D02*
G01*
X14895982Y398221D01*
X14903246Y399491D01*
X14910307Y401523D01*
X14913762Y402793D01*
X14920366Y405993D01*
X14926614Y409905D01*
X14932355Y414528D01*
X14937587Y419709D01*
X14942159Y425500D01*
X14946071Y431698D01*
X14949271Y438353D01*
X14951710Y445312D01*
X14953335Y452475D01*
X14954148Y459790D01*
X14954148Y467410D01*
X14953234Y475183D01*
X14952421Y479043D01*
X14950084Y486511D01*
X14947950Y492201D01*
X14947696Y494284D01*
X14948154Y497179D01*
X14949322Y499770D01*
X14951252Y501954D01*
X14952370Y502869D01*
X14955012Y504037D01*
X14957856Y504443D01*
X14959482Y504342D01*
X14962530Y503326D01*
X14967102Y500227D01*
X14973909Y496265D01*
X14981072Y493014D01*
X14984780Y491693D01*
X14984780Y532130D01*
X14939822Y532130D01*
X14941143Y529031D01*
X14941499Y527558D01*
X14941499Y524611D01*
X14940686Y521817D01*
X14939111Y519379D01*
X14936927Y517499D01*
X14934285Y516280D01*
X14931440Y515874D01*
X14929916Y515975D01*
X14927021Y516890D01*
X14918944Y521716D01*
X14911730Y524916D01*
X14904212Y527253D01*
X14896490Y528675D01*
X14892578Y529031D01*
X14884958Y529031D01*
X14877643Y528218D01*
X14870430Y526542D01*
X14863470Y524154D01*
X14856866Y520954D01*
X14850618Y517042D01*
X14844877Y512419D01*
X14839645Y507238D01*
X14835073Y501446D01*
X14831161Y495249D01*
X14827961Y488594D01*
X14825522Y481634D01*
X14823897Y474472D01*
X14823084Y467156D01*
X14823084Y459790D01*
X14823897Y452475D01*
X14825522Y445312D01*
X14827961Y438353D01*
X14831161Y431698D01*
X14835073Y425500D01*
X14839645Y419709D01*
X14844877Y414528D01*
X14850618Y409905D01*
X14856866Y405993D01*
X14863470Y402793D01*
X14870430Y400405D01*
X14877643Y398729D01*
X14884958Y397916D01*
G37*
G36*
X14498472Y397814D02*
G01*
X14505838Y398221D01*
X14513102Y399491D01*
X14520163Y401523D01*
X14523618Y402793D01*
X14530222Y405993D01*
X14536470Y409905D01*
X14542211Y414528D01*
X14547443Y419709D01*
X14552015Y425500D01*
X14555927Y431698D01*
X14559127Y438353D01*
X14561566Y445312D01*
X14563191Y452475D01*
X14564004Y459790D01*
X14564004Y467156D01*
X14563191Y474472D01*
X14561566Y481634D01*
X14559127Y488594D01*
X14555927Y495249D01*
X14552015Y501446D01*
X14547443Y507238D01*
X14542211Y512419D01*
X14536470Y517042D01*
X14530222Y520954D01*
X14523618Y524154D01*
X14516658Y526542D01*
X14509445Y528218D01*
X14502130Y529031D01*
X14494510Y529031D01*
X14486686Y528066D01*
X14479066Y526186D01*
X14475307Y524916D01*
X14468144Y521716D01*
X14461388Y517651D01*
X14458645Y516331D01*
X14457172Y515975D01*
X14454174Y515975D01*
X14451431Y516788D01*
X14448993Y518363D01*
X14447113Y520547D01*
X14445894Y523189D01*
X14445488Y526034D01*
X14445589Y527558D01*
X14446504Y530453D01*
X14447266Y532130D01*
X14402307Y532130D01*
X14402307Y491693D01*
X14409623Y494538D01*
X14416633Y498195D01*
X14424558Y503326D01*
X14427606Y504342D01*
X14430654Y504342D01*
X14433448Y503529D01*
X14434718Y502869D01*
X14436902Y500938D01*
X14438426Y498500D01*
X14439239Y495757D01*
X14439392Y494284D01*
X14439138Y492201D01*
X14437004Y486511D01*
X14434667Y479043D01*
X14433296Y471322D01*
X14432940Y467410D01*
X14432940Y459790D01*
X14433753Y452475D01*
X14435378Y445312D01*
X14437817Y438353D01*
X14441017Y431698D01*
X14444929Y425500D01*
X14449501Y419709D01*
X14454733Y414528D01*
X14460474Y409905D01*
X14466722Y405993D01*
X14473326Y402793D01*
X14480286Y400405D01*
X14487499Y398729D01*
X14494814Y397916D01*
G37*
G36*
X15062403Y491693D02*
G01*
X15070124Y494741D01*
X15077440Y498601D01*
X15084298Y503275D01*
X15090648Y508609D01*
X15096337Y514654D01*
X15101316Y521258D01*
X15105583Y528421D01*
X15107361Y532130D01*
X15062403Y532130D01*
G37*
G36*
X14324685Y491693D02*
G01*
X14324685Y532130D01*
X14279727Y532130D01*
X14283537Y524764D01*
X14288160Y517906D01*
X14293545Y511556D01*
X14296440Y508609D01*
X14302790Y503275D01*
X14309648Y498601D01*
X14316963Y494741D01*
G37*
G36*
X20626527Y499262D02*
G01*
X20634452Y499668D01*
X20642275Y500938D01*
X20649895Y502970D01*
X20657312Y505815D01*
X20664373Y509422D01*
X20670977Y513740D01*
X20677174Y518718D01*
X20682762Y524306D01*
X20687741Y530453D01*
X20692059Y537108D01*
X20695615Y544169D01*
X20698460Y551535D01*
X20699628Y555345D01*
X20701254Y563118D01*
X20702066Y570992D01*
X20702066Y578866D01*
X20701254Y586740D01*
X20699628Y594512D01*
X20697139Y602030D01*
X20693938Y609295D01*
X20689976Y616153D01*
X20685302Y622554D01*
X20680019Y628446D01*
X20674126Y633730D01*
X20667726Y638352D01*
X20660868Y642315D01*
X20653654Y645566D01*
X20646085Y648004D01*
X20638363Y649630D01*
X20634452Y650189D01*
X20626527Y650595D01*
X20618602Y650189D01*
X20610779Y648919D01*
X20603159Y646887D01*
X20595742Y644042D01*
X20588681Y640435D01*
X20582077Y636117D01*
X20575879Y631139D01*
X20570291Y625551D01*
X20565313Y619404D01*
X20560995Y612749D01*
X20557439Y605688D01*
X20554594Y598322D01*
X20553426Y594512D01*
X20551800Y586740D01*
X20550987Y578866D01*
X20550987Y570992D01*
X20551800Y563118D01*
X20553426Y555345D01*
X20555915Y547827D01*
X20559115Y540562D01*
X20563078Y533704D01*
X20567751Y527304D01*
X20573034Y521411D01*
X20578927Y516128D01*
X20585328Y511505D01*
X20592186Y507542D01*
X20599400Y504291D01*
X20606969Y501853D01*
X20614690Y500227D01*
X20618602Y499668D01*
G37*
G36*
X19826528Y499262D02*
G01*
X19834453Y499668D01*
X19842276Y500938D01*
X19849896Y502970D01*
X19857313Y505815D01*
X19864374Y509422D01*
X19870978Y513740D01*
X19877176Y518718D01*
X19882764Y524306D01*
X19887742Y530453D01*
X19892060Y537108D01*
X19895616Y544169D01*
X19898461Y551535D01*
X19899630Y555345D01*
X19901255Y563118D01*
X19902068Y570992D01*
X19902068Y578866D01*
X19901255Y586740D01*
X19899630Y594512D01*
X19897140Y602030D01*
X19893940Y609295D01*
X19889978Y616153D01*
X19885304Y622554D01*
X19880021Y628446D01*
X19874128Y633730D01*
X19867727Y638352D01*
X19860869Y642315D01*
X19853656Y645566D01*
X19846086Y648004D01*
X19838365Y649630D01*
X19834453Y650189D01*
X19826528Y650595D01*
X19818604Y650189D01*
X19810780Y648919D01*
X19803160Y646887D01*
X19795744Y644042D01*
X19788682Y640435D01*
X19782078Y636117D01*
X19775881Y631139D01*
X19770293Y625551D01*
X19765314Y619404D01*
X19760996Y612749D01*
X19757440Y605688D01*
X19754596Y598322D01*
X19753427Y594512D01*
X19751802Y586740D01*
X19750989Y578866D01*
X19750989Y570992D01*
X19751802Y563118D01*
X19753427Y555345D01*
X19755916Y547827D01*
X19759117Y540562D01*
X19763079Y533704D01*
X19767753Y527304D01*
X19773036Y521411D01*
X19778929Y516128D01*
X19785330Y511505D01*
X19792188Y507542D01*
X19799401Y504291D01*
X19806970Y501853D01*
X19814692Y500227D01*
X19818604Y499668D01*
G37*
G36*
X15062403Y594817D02*
G01*
X15107361Y594817D01*
X15105583Y598576D01*
X15101316Y605688D01*
X15096337Y612292D01*
X15090648Y618337D01*
X15084298Y623722D01*
X15077440Y628345D01*
X15070124Y632206D01*
X15062403Y635254D01*
G37*
G36*
X14939822Y594817D02*
G01*
X14984780Y594817D01*
X14984780Y635254D01*
X14977059Y632206D01*
X14969744Y628345D01*
X14962886Y623722D01*
X14956536Y618337D01*
X14950846Y612292D01*
X14945868Y605688D01*
X14941600Y598576D01*
G37*
G36*
X14402307Y594817D02*
G01*
X14447266Y594817D01*
X14445488Y598576D01*
X14441220Y605688D01*
X14436242Y612292D01*
X14430552Y618337D01*
X14424202Y623722D01*
X14417344Y628345D01*
X14410029Y632206D01*
X14402307Y635254D01*
G37*
G36*
X14279727Y594817D02*
G01*
X14324685Y594817D01*
X14324685Y635254D01*
X14316963Y632206D01*
X14309648Y628345D01*
X14302790Y623722D01*
X14296440Y618337D01*
X14290751Y612292D01*
X14285772Y605688D01*
X14281505Y598576D01*
G37*
G36*
X15594634Y709523D02*
G01*
X15601442Y709930D01*
X15608147Y711149D01*
X15614700Y713181D01*
X15620949Y715975D01*
X15626791Y719531D01*
X15632176Y723747D01*
X15637001Y728573D01*
X15641218Y733958D01*
X15644774Y739851D01*
X15647568Y746099D01*
X15649600Y752602D01*
X15650870Y759358D01*
X15651276Y766165D01*
X15651175Y769670D01*
X15650311Y776579D01*
X15648584Y783386D01*
X15646044Y789889D01*
X15642742Y796036D01*
X15638678Y801776D01*
X15633954Y806907D01*
X15628670Y811428D01*
X15622828Y815289D01*
X15619730Y816965D01*
X15613278Y819658D01*
X15606572Y821537D01*
X15599663Y822604D01*
X15594634Y822960D01*
X15591739Y823976D01*
X15589250Y825753D01*
X15425775Y989380D01*
X15424353Y992225D01*
X15423845Y995375D01*
X15423946Y996899D01*
X15424861Y999744D01*
X15427604Y1004265D01*
X15430957Y1010970D01*
X15433395Y1018032D01*
X15434259Y1021689D01*
X15435224Y1029106D01*
X15435275Y1036269D01*
X15434411Y1043076D01*
X15432786Y1049731D01*
X15430347Y1056132D01*
X15427198Y1062177D01*
X15423286Y1067816D01*
X15418765Y1072946D01*
X15413634Y1077468D01*
X15407995Y1081328D01*
X15405049Y1083056D01*
X15398800Y1085850D01*
X15392247Y1087882D01*
X15385542Y1089101D01*
X15378734Y1089507D01*
X15371876Y1089101D01*
X15365171Y1087882D01*
X15358618Y1085850D01*
X15352369Y1083056D01*
X15346527Y1079500D01*
X15341142Y1075283D01*
X15336316Y1070457D01*
X15332100Y1065072D01*
X15328544Y1059180D01*
X15325750Y1052931D01*
X15323718Y1046429D01*
X15322448Y1039672D01*
X15322042Y1032865D01*
X15322499Y1025702D01*
X15323870Y1018692D01*
X15326055Y1011885D01*
X15329154Y1005433D01*
X15333014Y999388D01*
X15337586Y993902D01*
X15339313Y991412D01*
X15340228Y988466D01*
X15340380Y982065D01*
X15340838Y976071D01*
X15341396Y973124D01*
X15342209Y970229D01*
X15344546Y964641D01*
X15347696Y959510D01*
X15349524Y957173D01*
X15534995Y771550D01*
X15536824Y769061D01*
X15537840Y766165D01*
X15538196Y761136D01*
X15539212Y754227D01*
X15541142Y747471D01*
X15543834Y741019D01*
X15547289Y734974D01*
X15551505Y729386D01*
X15556382Y724357D01*
X15561818Y719988D01*
X15567761Y716280D01*
X15574111Y713333D01*
X15577413Y712165D01*
X15584169Y710488D01*
X15587624Y709930D01*
G37*
G36*
X12940284Y1460804D02*
G01*
X12947345Y1461211D01*
X12954254Y1462430D01*
X12961010Y1464462D01*
X12967512Y1467256D01*
X12973608Y1470761D01*
X12979247Y1474978D01*
X12984378Y1479854D01*
X12988950Y1485239D01*
X12992811Y1491132D01*
X12995960Y1497431D01*
X12998399Y1504086D01*
X13000024Y1510944D01*
X13000837Y1517954D01*
X13001040Y1619961D01*
X13002056Y1622958D01*
X13002869Y1624330D01*
X13453313Y2075078D01*
X13457834Y2080869D01*
X13461593Y2087118D01*
X13463219Y2090420D01*
X13465810Y2097278D01*
X13467537Y2104390D01*
X13468451Y2111654D01*
X13468451Y2118969D01*
X13467537Y2126234D01*
X13465810Y2133346D01*
X13464641Y2136800D01*
X13461644Y2143455D01*
X13457834Y2149703D01*
X13455700Y2152650D01*
X13450824Y2158136D01*
X13445388Y2163013D01*
X13439343Y2167178D01*
X13434872Y2169769D01*
X13363701Y2240940D01*
X13362279Y2243785D01*
X13361771Y2246934D01*
X13361873Y2805125D01*
X13362686Y2807868D01*
X13365175Y2814320D01*
X13366851Y2821025D01*
X13367664Y2827883D01*
X13367664Y2834741D01*
X13366851Y2841548D01*
X13365226Y2848203D01*
X13362787Y2854604D01*
X13359587Y2860649D01*
X13355726Y2866288D01*
X13351205Y2871419D01*
X13346074Y2875940D01*
X13340435Y2879801D01*
X13334390Y2883001D01*
X13327989Y2885440D01*
X13321334Y2887065D01*
X13314527Y2887878D01*
X13307720Y2887878D01*
X13300913Y2887065D01*
X13294258Y2885440D01*
X13287857Y2883001D01*
X13281812Y2879801D01*
X13276173Y2875940D01*
X13271042Y2871419D01*
X13266521Y2866288D01*
X13262660Y2860649D01*
X13259460Y2854604D01*
X13257022Y2848203D01*
X13255396Y2841548D01*
X13254583Y2834741D01*
X13254583Y2827883D01*
X13255396Y2821025D01*
X13257072Y2814320D01*
X13259562Y2807868D01*
X13260374Y2805125D01*
X13260476Y2221738D01*
X13260882Y2215134D01*
X13262203Y2208631D01*
X13264337Y2202332D01*
X13267232Y2196388D01*
X13270941Y2190902D01*
X13275310Y2185924D01*
X13327888Y2133193D01*
X13329310Y2130348D01*
X13329818Y2127199D01*
X13329310Y2124049D01*
X13327888Y2121255D01*
X12894868Y1687931D01*
X12890347Y1682140D01*
X12886588Y1675892D01*
X12884962Y1672589D01*
X12882372Y1665732D01*
X12880644Y1658620D01*
X12879730Y1651355D01*
X12879628Y1521460D01*
X12880035Y1514398D01*
X12881254Y1507490D01*
X12883286Y1500733D01*
X12886080Y1494231D01*
X12889585Y1488135D01*
X12893802Y1482496D01*
X12898678Y1477365D01*
X12904063Y1472793D01*
X12909956Y1468932D01*
X12916255Y1465783D01*
X12922910Y1463344D01*
X12929768Y1461719D01*
X12936778Y1460906D01*
G37*
G36*
X13476224Y1460855D02*
G01*
X13483031Y1461262D01*
X13489787Y1462532D01*
X13496290Y1464564D01*
X13502538Y1467358D01*
X13508431Y1470914D01*
X13513816Y1475130D01*
X13518642Y1479956D01*
X13522858Y1485341D01*
X13526414Y1491183D01*
X13529208Y1497431D01*
X13531240Y1503984D01*
X13532459Y1510690D01*
X13532967Y1519986D01*
X13533780Y1522780D01*
X13535355Y1525219D01*
X13537539Y1527098D01*
X13540181Y1528318D01*
X13543026Y1528724D01*
X13544905Y1528521D01*
X13546734Y1528013D01*
X13554659Y1523746D01*
X13561212Y1521206D01*
X13564616Y1520190D01*
X13571575Y1518869D01*
X13578636Y1518462D01*
X13585444Y1518869D01*
X13592149Y1520088D01*
X13598702Y1522120D01*
X13604951Y1524914D01*
X13610793Y1528470D01*
X13616178Y1532686D01*
X13621004Y1537512D01*
X13625220Y1542897D01*
X13628776Y1548790D01*
X13631570Y1555038D01*
X13633602Y1561541D01*
X13634872Y1568297D01*
X13635278Y1575104D01*
X13634872Y1581912D01*
X13633602Y1588668D01*
X13631570Y1595170D01*
X13628776Y1601419D01*
X13625220Y1607312D01*
X13621004Y1612696D01*
X13616178Y1617522D01*
X13610793Y1621739D01*
X13604951Y1625295D01*
X13598702Y1628089D01*
X13592149Y1630121D01*
X13585444Y1631340D01*
X13578636Y1631746D01*
X13574776Y1631645D01*
X13567206Y1630578D01*
X13563498Y1629714D01*
X13554354Y1626565D01*
X13552322Y1626362D01*
X13531545Y1626463D01*
X13528751Y1627276D01*
X13526312Y1628851D01*
X13524433Y1631035D01*
X13523213Y1633677D01*
X13522807Y1636522D01*
X13522960Y1638198D01*
X13525347Y1647088D01*
X13526363Y1654556D01*
X13526414Y1664106D01*
X13527278Y1666900D01*
X13528801Y1669338D01*
X13530986Y1671218D01*
X13533628Y1672437D01*
X13536472Y1672843D01*
X13542314Y1672234D01*
X13550036Y1672183D01*
X13556843Y1672996D01*
X13563498Y1674622D01*
X13569899Y1677060D01*
X13575944Y1680260D01*
X13581583Y1684121D01*
X13586713Y1688642D01*
X13591235Y1693773D01*
X13595096Y1699412D01*
X13598296Y1705457D01*
X13600734Y1711858D01*
X13602360Y1718513D01*
X13603173Y1725320D01*
X13603173Y1732127D01*
X13602360Y1738934D01*
X13600734Y1745589D01*
X13598296Y1751990D01*
X13595096Y1758035D01*
X13591235Y1763674D01*
X13586713Y1768805D01*
X13581583Y1773326D01*
X13575944Y1777187D01*
X13569899Y1780387D01*
X13563498Y1782825D01*
X13556843Y1784451D01*
X13550036Y1785264D01*
X13546632Y1785366D01*
X13538758Y1784908D01*
X13530478Y1786128D01*
X13310971Y1786229D01*
X13307923Y1786737D01*
X13305180Y1788058D01*
X13301319Y1791411D01*
X13295528Y1795627D01*
X13289280Y1799082D01*
X13285978Y1800555D01*
X13282625Y1801774D01*
X13275716Y1803552D01*
X13268604Y1804466D01*
X13261594Y1804466D01*
X13254786Y1803603D01*
X13248182Y1801977D01*
X13241782Y1799539D01*
X13235736Y1796389D01*
X13230098Y1792478D01*
X13224967Y1787956D01*
X13220446Y1782825D01*
X13216534Y1777187D01*
X13213384Y1771142D01*
X13210946Y1764741D01*
X13209320Y1758137D01*
X13208457Y1751330D01*
X13208507Y1744218D01*
X13208863Y1740509D01*
X13210286Y1733296D01*
X13211352Y1729739D01*
X13214197Y1722932D01*
X13215112Y1719986D01*
X13215112Y1716836D01*
X13214096Y1713839D01*
X13213283Y1712468D01*
X13209879Y1708759D01*
X13205612Y1703374D01*
X13202107Y1697482D01*
X13199262Y1691233D01*
X13197230Y1684680D01*
X13195960Y1677974D01*
X13195554Y1671116D01*
X13195757Y1666595D01*
X13196265Y1662125D01*
X13197484Y1655318D01*
X13197078Y1652422D01*
X13195858Y1649780D01*
X13193979Y1647596D01*
X13191540Y1646072D01*
X13188746Y1645259D01*
X13185851Y1645259D01*
X13183057Y1646072D01*
X13180568Y1647698D01*
X13178688Y1649933D01*
X13174522Y1655724D01*
X13172186Y1658467D01*
X13166953Y1663395D01*
X13161162Y1667611D01*
X13154913Y1671116D01*
X13148259Y1673758D01*
X13144804Y1674774D01*
X13137794Y1676095D01*
X13134238Y1676450D01*
X13127228Y1676450D01*
X13120420Y1675638D01*
X13113766Y1674012D01*
X13107365Y1671574D01*
X13101319Y1668373D01*
X13095681Y1664512D01*
X13090550Y1659991D01*
X13086029Y1654860D01*
X13082168Y1649222D01*
X13078968Y1643176D01*
X13076529Y1636776D01*
X13074904Y1630121D01*
X13074091Y1623314D01*
X13074091Y1616456D01*
X13074904Y1609598D01*
X13076580Y1602943D01*
X13077698Y1599641D01*
X13080593Y1593392D01*
X13084149Y1587500D01*
X13088467Y1582115D01*
X13090804Y1579575D01*
X13096036Y1575054D01*
X13101726Y1571193D01*
X13107873Y1568043D01*
X13111073Y1566722D01*
X13117677Y1564741D01*
X13126161Y1563268D01*
X13127736Y1562658D01*
X13129209Y1561795D01*
X13130530Y1560677D01*
X13203021Y1488338D01*
X13207898Y1484833D01*
X13213283Y1482090D01*
X13216077Y1481023D01*
X13218972Y1480210D01*
X13224916Y1479296D01*
X13227964Y1479143D01*
X13431824Y1479042D01*
X13434771Y1478127D01*
X13437260Y1476400D01*
X13442746Y1471828D01*
X13448792Y1467967D01*
X13455243Y1464868D01*
X13462050Y1462684D01*
X13469061Y1461312D01*
G37*
G36*
X16733824Y1678482D02*
G01*
X16740987Y1678939D01*
X16747998Y1680260D01*
X16754805Y1682496D01*
X16761256Y1685543D01*
X16767301Y1689404D01*
X16772788Y1693976D01*
X16775277Y1695754D01*
X16778224Y1696669D01*
X16850410Y1696770D01*
X16856405Y1697228D01*
X16862247Y1698650D01*
X16865092Y1699666D01*
X16870426Y1702409D01*
X16872966Y1704086D01*
X16877538Y1707997D01*
X16899839Y1730349D01*
X16902328Y1732127D01*
X16905224Y1733143D01*
X16910253Y1733499D01*
X16917162Y1734566D01*
X16920565Y1735378D01*
X16927169Y1737715D01*
X16930370Y1739138D01*
X16936415Y1742643D01*
X16942003Y1746859D01*
X16947032Y1751685D01*
X16951401Y1757121D01*
X16955109Y1763064D01*
X16958056Y1769414D01*
X16959224Y1772716D01*
X16960900Y1779524D01*
X16961764Y1786432D01*
X16961764Y1793341D01*
X16960951Y1800148D01*
X16959326Y1806803D01*
X16956887Y1813204D01*
X16953687Y1819249D01*
X16949826Y1824888D01*
X16945305Y1830019D01*
X16940174Y1834540D01*
X16934535Y1838401D01*
X16928490Y1841601D01*
X16922089Y1844039D01*
X16915434Y1845665D01*
X16908627Y1846478D01*
X16901718Y1846478D01*
X16894810Y1845614D01*
X16888002Y1843938D01*
X16881500Y1841398D01*
X16875353Y1838045D01*
X16869613Y1834032D01*
X16864482Y1829307D01*
X16859961Y1823974D01*
X16856100Y1818132D01*
X16854424Y1815084D01*
X16851731Y1808632D01*
X16850664Y1805279D01*
X16849191Y1798421D01*
X16848429Y1789938D01*
X16847413Y1787042D01*
X16845635Y1784553D01*
X16836288Y1775409D01*
X16833443Y1773986D01*
X16831919Y1773580D01*
X16778224Y1773580D01*
X16775277Y1774494D01*
X16772788Y1776272D01*
X16767301Y1780844D01*
X16761256Y1784705D01*
X16754805Y1787753D01*
X16747998Y1789988D01*
X16740987Y1791309D01*
X16733824Y1791766D01*
X16727017Y1791360D01*
X16720261Y1790141D01*
X16713758Y1788109D01*
X16707510Y1785315D01*
X16701617Y1781759D01*
X16696232Y1777542D01*
X16691406Y1772716D01*
X16687190Y1767332D01*
X16683634Y1761439D01*
X16680840Y1755190D01*
X16678808Y1748688D01*
X16677589Y1741932D01*
X16677182Y1735124D01*
X16677589Y1728317D01*
X16678808Y1721561D01*
X16680840Y1715058D01*
X16683634Y1708810D01*
X16687190Y1702917D01*
X16691406Y1697532D01*
X16696232Y1692706D01*
X16701617Y1688490D01*
X16707510Y1684934D01*
X16713758Y1682140D01*
X16720261Y1680108D01*
X16727017Y1678889D01*
G37*
G36*
X19521424Y1872996D02*
G01*
X19528231Y1873402D01*
X19534987Y1874621D01*
X19541490Y1876653D01*
X19547738Y1879447D01*
X19553631Y1883003D01*
X19559016Y1887220D01*
X19563842Y1892046D01*
X19568058Y1897430D01*
X19571614Y1903323D01*
X19574408Y1909572D01*
X19576440Y1916074D01*
X19577659Y1922830D01*
X19578066Y1929638D01*
X19577608Y1936800D01*
X19576288Y1943811D01*
X19574052Y1950618D01*
X19571004Y1957070D01*
X19567144Y1963115D01*
X19562572Y1968601D01*
X19560794Y1971090D01*
X19559879Y1974037D01*
X19559879Y2076246D01*
X19560895Y2079243D01*
X19561708Y2080615D01*
X19592239Y2111349D01*
X19594728Y2113127D01*
X19597624Y2114143D01*
X19602653Y2114499D01*
X19609562Y2115566D01*
X19612965Y2116378D01*
X19619569Y2118715D01*
X19622770Y2120138D01*
X19628815Y2123643D01*
X19634403Y2127859D01*
X19639432Y2132685D01*
X19643801Y2138121D01*
X19647509Y2144064D01*
X19650456Y2150414D01*
X19651624Y2153716D01*
X19653300Y2160524D01*
X19654164Y2167432D01*
X19654164Y2174341D01*
X19653351Y2181148D01*
X19651726Y2187803D01*
X19649287Y2194204D01*
X19646087Y2200249D01*
X19642226Y2205888D01*
X19637705Y2211019D01*
X19632574Y2215540D01*
X19626935Y2219401D01*
X19620890Y2222601D01*
X19614489Y2225040D01*
X19607834Y2226665D01*
X19601027Y2227478D01*
X19594118Y2227478D01*
X19587210Y2226614D01*
X19580402Y2224938D01*
X19573900Y2222398D01*
X19567753Y2219045D01*
X19562013Y2215032D01*
X19556882Y2210308D01*
X19552361Y2204974D01*
X19548500Y2199132D01*
X19546824Y2196084D01*
X19544131Y2189632D01*
X19543064Y2186279D01*
X19541591Y2179421D01*
X19540829Y2170938D01*
X19539813Y2168042D01*
X19538035Y2165553D01*
X19494296Y2121865D01*
X19490385Y2117293D01*
X19487235Y2112162D01*
X19485965Y2109419D01*
X19484136Y2103678D01*
X19483527Y2100732D01*
X19483070Y2094738D01*
X19482968Y1974037D01*
X19482054Y1971090D01*
X19480276Y1968601D01*
X19475704Y1963115D01*
X19471843Y1957070D01*
X19468795Y1950618D01*
X19466560Y1943811D01*
X19465239Y1936800D01*
X19464782Y1929638D01*
X19465188Y1922830D01*
X19466407Y1916074D01*
X19468439Y1909572D01*
X19471233Y1903323D01*
X19474789Y1897430D01*
X19479006Y1892046D01*
X19483832Y1887220D01*
X19489216Y1883003D01*
X19495109Y1879447D01*
X19501358Y1876653D01*
X19507860Y1874621D01*
X19514616Y1873402D01*
G37*

%LPD*%
G36*
X17486274Y1318158D02*
G01*
X17484648Y1318260D01*
X17481651Y1319276D01*
X17479060Y1321104D01*
X17419777Y1380286D01*
X17417389Y1382166D01*
X17412258Y1385265D01*
X17406721Y1387602D01*
X17400828Y1388973D01*
X17394834Y1389481D01*
X17271644Y1389583D01*
X17268901Y1390396D01*
X17267631Y1391056D01*
X17265446Y1392986D01*
X17263872Y1395425D01*
X17263059Y1398168D01*
X17263110Y1401318D01*
X17265548Y1410309D01*
X17266564Y1417828D01*
X17266564Y1425041D01*
X17265751Y1431848D01*
X17264126Y1438503D01*
X17261687Y1444904D01*
X17258487Y1450949D01*
X17254626Y1456588D01*
X17250105Y1461719D01*
X17244974Y1466240D01*
X17239335Y1470101D01*
X17233290Y1473301D01*
X17226889Y1475740D01*
X17220234Y1477365D01*
X17213427Y1478178D01*
X17206468Y1478178D01*
X17199356Y1477264D01*
X17195850Y1476502D01*
X17189043Y1474266D01*
X17182592Y1471218D01*
X17176546Y1467358D01*
X17171060Y1462786D01*
X17168571Y1461008D01*
X17165624Y1460093D01*
X16955211Y1459992D01*
X16952163Y1460449D01*
X16950740Y1461008D01*
X16948200Y1462786D01*
X16946321Y1465224D01*
X16944289Y1470050D01*
X16940936Y1476502D01*
X16936720Y1482496D01*
X16931792Y1487881D01*
X16926204Y1492605D01*
X16922038Y1495552D01*
X16920108Y1497736D01*
X16918940Y1500378D01*
X16918533Y1503222D01*
X16918940Y1506067D01*
X16920108Y1508709D01*
X16922038Y1510893D01*
X16924477Y1512468D01*
X16927220Y1513281D01*
X18307608Y1513382D01*
X18310453Y1512976D01*
X18313095Y1511757D01*
X18315279Y1509877D01*
X18316854Y1507439D01*
X18317667Y1504645D01*
X18317768Y1396238D01*
X18317921Y1391920D01*
X18318378Y1387652D01*
X18319394Y1381252D01*
X18318937Y1378407D01*
X18318480Y1377035D01*
X18316905Y1374597D01*
X18314720Y1372717D01*
X18312079Y1371498D01*
X18309234Y1371092D01*
X17597323Y1371193D01*
X17594376Y1372108D01*
X17591887Y1373886D01*
X17586401Y1378458D01*
X17580356Y1382318D01*
X17573904Y1385366D01*
X17567097Y1387602D01*
X17560086Y1388922D01*
X17552924Y1389380D01*
X17546116Y1388973D01*
X17539360Y1387754D01*
X17532858Y1385722D01*
X17526609Y1382928D01*
X17520716Y1379372D01*
X17515332Y1375156D01*
X17510506Y1370330D01*
X17506289Y1364945D01*
X17502733Y1359052D01*
X17499939Y1352804D01*
X17497907Y1346301D01*
X17496688Y1339545D01*
X17496282Y1332738D01*
X17496434Y1328318D01*
X17496028Y1325473D01*
X17494808Y1322832D01*
X17492929Y1320647D01*
X17490490Y1319072D01*
X17487696Y1318260D01*
G37*

%LPD*%
D49*
X22949131Y2566413D02*
G01*
X22949131Y2372611D01*
X23013901Y2566413D02*
G01*
X22884615Y2566413D01*
X22814511Y2418585D02*
G01*
X22823655Y2409441D01*
X22814511Y2400297D01*
X22805113Y2409441D01*
X22814511Y2418585D01*
X22744153Y2566413D02*
G01*
X22744153Y2372611D01*
X22614867Y2566413D02*
G01*
X22744153Y2437127D01*
X22697925Y2483355D02*
G01*
X22614867Y2372611D01*
X22443163Y2501897D02*
G01*
X22443163Y2372611D01*
X22443163Y2474211D02*
G01*
X22461451Y2492499D01*
X22479993Y2501897D01*
X22507679Y2501897D01*
X22526221Y2492499D01*
X22544763Y2474211D01*
X22553907Y2446525D01*
X22553907Y2427983D01*
X22544763Y2400297D01*
X22526221Y2381755D01*
X22507679Y2372611D01*
X22479993Y2372611D01*
X22461451Y2381755D01*
X22443163Y2400297D01*
X22382203Y2501897D02*
G01*
X22382203Y2372611D01*
X22382203Y2464813D02*
G01*
X22354517Y2492499D01*
X22335975Y2501897D01*
X22308289Y2501897D01*
X22289747Y2492499D01*
X22280603Y2464813D01*
X22280603Y2372611D01*
X22108645Y2501897D02*
G01*
X22108645Y2354069D01*
X22118043Y2326383D01*
X22127187Y2316985D01*
X22145729Y2307841D01*
X22173415Y2307841D01*
X22191957Y2316985D01*
X22108645Y2474211D02*
G01*
X22127187Y2492499D01*
X22145729Y2501897D01*
X22173415Y2501897D01*
X22191957Y2492499D01*
X22210245Y2474211D01*
X22219643Y2446525D01*
X22219643Y2427983D01*
X22210245Y2400297D01*
X22191957Y2381755D01*
X22173415Y2372611D01*
X22145729Y2372611D01*
X22127187Y2381755D01*
X22108645Y2400297D01*
X22047685Y2501897D02*
G01*
X22047685Y2409441D01*
X22038541Y2381755D01*
X22019999Y2372611D01*
X21992313Y2372611D01*
X21973771Y2381755D01*
X21946085Y2409441D01*
X21946085Y2501897D02*
G01*
X21946085Y2372611D01*
X21885125Y2501897D02*
G01*
X21885125Y2372611D01*
X21885125Y2446525D02*
G01*
X21875981Y2474211D01*
X21857439Y2492499D01*
X21839151Y2501897D01*
X21811211Y2501897D01*
X25425631Y2579113D02*
G01*
X25425631Y2385311D01*
X25490401Y2579113D02*
G01*
X25361115Y2579113D01*
X25300155Y2579113D02*
G01*
X25300155Y2385311D01*
X25300155Y2477513D02*
G01*
X25272469Y2505199D01*
X25253927Y2514597D01*
X25226241Y2514597D01*
X25207699Y2505199D01*
X25198555Y2477513D01*
X25198555Y2385311D01*
X25137595Y2459225D02*
G01*
X25026851Y2459225D01*
X25026851Y2477513D01*
X25035995Y2496055D01*
X25045139Y2505199D01*
X25063681Y2514597D01*
X25091367Y2514597D01*
X25109909Y2505199D01*
X25128451Y2486911D01*
X25137595Y2459225D01*
X25137595Y2440683D01*
X25128451Y2412997D01*
X25109909Y2394455D01*
X25091367Y2385311D01*
X25063681Y2385311D01*
X25045139Y2394455D01*
X25026851Y2412997D01*
X24694111Y2551427D02*
G01*
X24712653Y2569969D01*
X24740339Y2579113D01*
X24777423Y2579113D01*
X24805109Y2569969D01*
X24823651Y2551427D01*
X24823651Y2532885D01*
X24814253Y2514597D01*
X24805109Y2505199D01*
X24786567Y2496055D01*
X24731195Y2477513D01*
X24712653Y2468369D01*
X24703509Y2459225D01*
X24694111Y2440683D01*
X24694111Y2412997D01*
X24712653Y2394455D01*
X24740339Y2385311D01*
X24777423Y2385311D01*
X24805109Y2394455D01*
X24823651Y2412997D01*
X24633151Y2579113D02*
G01*
X24633151Y2385311D01*
X24633151Y2477513D02*
G01*
X24605465Y2505199D01*
X24587177Y2514597D01*
X24559491Y2514597D01*
X24540949Y2505199D01*
X24531551Y2477513D01*
X24531551Y2385311D01*
X24424617Y2514597D02*
G01*
X24442905Y2505199D01*
X24461447Y2486911D01*
X24470591Y2459225D01*
X24470591Y2440683D01*
X24461447Y2412997D01*
X24442905Y2394455D01*
X24424617Y2385311D01*
X24396931Y2385311D01*
X24378389Y2394455D01*
X24359847Y2412997D01*
X24350703Y2440683D01*
X24350703Y2459225D01*
X24359847Y2486911D01*
X24378389Y2505199D01*
X24396931Y2514597D01*
X24424617Y2514597D01*
X24178745Y2486911D02*
G01*
X24197287Y2505199D01*
X24215829Y2514597D01*
X24243515Y2514597D01*
X24262057Y2505199D01*
X24280345Y2486911D01*
X24289743Y2459225D01*
X24289743Y2440683D01*
X24280345Y2412997D01*
X24262057Y2394455D01*
X24243515Y2385311D01*
X24215829Y2385311D01*
X24197287Y2394455D01*
X24178745Y2412997D01*
X24117785Y2579113D02*
G01*
X24117785Y2385311D01*
X24025583Y2514597D02*
G01*
X24117785Y2422141D01*
X24080955Y2459225D02*
G01*
X24016185Y2385311D01*
X23955225Y2459225D02*
G01*
X23844481Y2459225D01*
X23844481Y2477513D01*
X23853625Y2496055D01*
X23863023Y2505199D01*
X23881311Y2514597D01*
X23909251Y2514597D01*
X23927539Y2505199D01*
X23946081Y2486911D01*
X23955225Y2459225D01*
X23955225Y2440683D01*
X23946081Y2412997D01*
X23927539Y2394455D01*
X23909251Y2385311D01*
X23881311Y2385311D01*
X23863023Y2394455D01*
X23844481Y2412997D01*
X23774377Y2514597D02*
G01*
X23718751Y2385311D01*
X23663379Y2514597D02*
G01*
X23718751Y2385311D01*
X23737293Y2348227D01*
X23755835Y2329685D01*
X23774377Y2320541D01*
X23783521Y2320541D01*
X23500819Y2486911D02*
G01*
X23510217Y2505199D01*
X23537903Y2514597D01*
X23565589Y2514597D01*
X23593275Y2505199D01*
X23602419Y2486911D01*
X23593275Y2468369D01*
X23574733Y2459225D01*
X23528505Y2449827D01*
X23510217Y2440683D01*
X23500819Y2422141D01*
X23500819Y2412997D01*
X23510217Y2394455D01*
X23537903Y2385311D01*
X23565589Y2385311D01*
X23593275Y2394455D01*
X23602419Y2412997D01*
X28398701Y2541013D02*
G01*
X28398701Y2347211D01*
X28398701Y2541013D02*
G01*
X28278559Y2541013D01*
X28398701Y2448811D02*
G01*
X28324787Y2448811D01*
X28398701Y2347211D02*
G01*
X28278559Y2347211D01*
X28217599Y2541013D02*
G01*
X28217599Y2347211D01*
X28217599Y2541013D02*
G01*
X28134541Y2541013D01*
X28106855Y2531869D01*
X28097711Y2522725D01*
X28088313Y2504183D01*
X28088313Y2476497D01*
X28097711Y2457955D01*
X28106855Y2448811D01*
X28134541Y2439413D01*
X28217599Y2439413D01*
X28027353Y2541013D02*
G01*
X28027353Y2347211D01*
X28027353Y2541013D02*
G01*
X27907211Y2541013D01*
X28027353Y2448811D02*
G01*
X27953439Y2448811D01*
X27846251Y2541013D02*
G01*
X27846251Y2347211D01*
X27846251Y2347211D02*
G01*
X27735507Y2347211D01*
X27532307Y2541013D02*
G01*
X27532307Y2347211D01*
X27532307Y2541013D02*
G01*
X27412165Y2541013D01*
X27532307Y2448811D02*
G01*
X27458393Y2448811D01*
X27532307Y2347211D02*
G01*
X27412165Y2347211D01*
X27212775Y2494785D02*
G01*
X27221919Y2513327D01*
X27240461Y2531869D01*
X27259003Y2541013D01*
X27295833Y2541013D01*
X27314375Y2531869D01*
X27332917Y2513327D01*
X27342061Y2494785D01*
X27351205Y2467099D01*
X27351205Y2421125D01*
X27342061Y2393185D01*
X27332917Y2374897D01*
X27314375Y2356355D01*
X27295833Y2347211D01*
X27259003Y2347211D01*
X27240461Y2356355D01*
X27221919Y2374897D01*
X27212775Y2393185D01*
X27077901Y2541013D02*
G01*
X27151815Y2347211D01*
X27077901Y2541013D02*
G01*
X27003987Y2347211D01*
X27124129Y2411727D02*
G01*
X27031673Y2411727D01*
X26943027Y2541013D02*
G01*
X26943027Y2347211D01*
X26943027Y2347211D02*
G01*
X26832283Y2347211D01*
X26629083Y2541013D02*
G01*
X26629083Y2402583D01*
X26619685Y2374897D01*
X26601397Y2356355D01*
X26573711Y2347211D01*
X26555169Y2347211D01*
X26527483Y2356355D01*
X26508941Y2374897D01*
X26499797Y2402583D01*
X26499797Y2541013D01*
X26438837Y2541013D02*
G01*
X26438837Y2347211D01*
X26438837Y2541013D02*
G01*
X26309551Y2347211D01*
X26309551Y2541013D02*
G01*
X26309551Y2347211D01*
X26248591Y2541013D02*
G01*
X26248591Y2347211D01*
X26187631Y2541013D02*
G01*
X26187631Y2347211D01*
X26187631Y2347211D02*
G01*
X26076633Y2347211D01*
X8421601Y2528313D02*
G01*
X8421601Y2334511D01*
X8421601Y2528313D02*
G01*
X8301459Y2528313D01*
X8421601Y2436111D02*
G01*
X8347687Y2436111D01*
X8421601Y2334511D02*
G01*
X8301459Y2334511D01*
X8240499Y2528313D02*
G01*
X8240499Y2334511D01*
X8240499Y2528313D02*
G01*
X8157441Y2528313D01*
X8129755Y2519169D01*
X8120611Y2510025D01*
X8111213Y2491483D01*
X8111213Y2463797D01*
X8120611Y2445255D01*
X8129755Y2436111D01*
X8157441Y2426713D01*
X8240499Y2426713D01*
X8050253Y2528313D02*
G01*
X8050253Y2334511D01*
X8050253Y2528313D02*
G01*
X7930111Y2528313D01*
X8050253Y2436111D02*
G01*
X7976339Y2436111D01*
X7869151Y2528313D02*
G01*
X7869151Y2334511D01*
X7869151Y2334511D02*
G01*
X7758407Y2334511D01*
X7555207Y2528313D02*
G01*
X7555207Y2334511D01*
X7555207Y2528313D02*
G01*
X7435065Y2528313D01*
X7555207Y2436111D02*
G01*
X7481293Y2436111D01*
X7555207Y2334511D02*
G01*
X7435065Y2334511D01*
X7235675Y2482085D02*
G01*
X7244819Y2500627D01*
X7263361Y2519169D01*
X7281903Y2528313D01*
X7318733Y2528313D01*
X7337275Y2519169D01*
X7355817Y2500627D01*
X7364961Y2482085D01*
X7374105Y2454399D01*
X7374105Y2408425D01*
X7364961Y2380485D01*
X7355817Y2362197D01*
X7337275Y2343655D01*
X7318733Y2334511D01*
X7281903Y2334511D01*
X7263361Y2343655D01*
X7244819Y2362197D01*
X7235675Y2380485D01*
X7100801Y2528313D02*
G01*
X7174715Y2334511D01*
X7100801Y2528313D02*
G01*
X7026887Y2334511D01*
X7147029Y2399027D02*
G01*
X7054573Y2399027D01*
X6965927Y2528313D02*
G01*
X6965927Y2334511D01*
X6965927Y2334511D02*
G01*
X6855183Y2334511D01*
X6651983Y2528313D02*
G01*
X6651983Y2389883D01*
X6642585Y2362197D01*
X6624297Y2343655D01*
X6596611Y2334511D01*
X6578069Y2334511D01*
X6550383Y2343655D01*
X6531841Y2362197D01*
X6522697Y2389883D01*
X6522697Y2528313D01*
X6461737Y2528313D02*
G01*
X6461737Y2334511D01*
X6461737Y2528313D02*
G01*
X6332451Y2334511D01*
X6332451Y2528313D02*
G01*
X6332451Y2334511D01*
X6271491Y2528313D02*
G01*
X6271491Y2334511D01*
X6210531Y2528313D02*
G01*
X6210531Y2334511D01*
X6210531Y2334511D02*
G01*
X6099533Y2334511D01*
X4877031Y2553713D02*
G01*
X4877031Y2359911D01*
X4941801Y2553713D02*
G01*
X4812515Y2553713D01*
X4751555Y2553713D02*
G01*
X4751555Y2359911D01*
X4751555Y2452113D02*
G01*
X4723869Y2479799D01*
X4705327Y2489197D01*
X4677641Y2489197D01*
X4659099Y2479799D01*
X4649955Y2452113D01*
X4649955Y2359911D01*
X4588995Y2433825D02*
G01*
X4478251Y2433825D01*
X4478251Y2452113D01*
X4487395Y2470655D01*
X4496539Y2479799D01*
X4515081Y2489197D01*
X4542767Y2489197D01*
X4561309Y2479799D01*
X4579851Y2461511D01*
X4588995Y2433825D01*
X4588995Y2415283D01*
X4579851Y2387597D01*
X4561309Y2369055D01*
X4542767Y2359911D01*
X4515081Y2359911D01*
X4496539Y2369055D01*
X4478251Y2387597D01*
X4145511Y2526027D02*
G01*
X4164053Y2544569D01*
X4191739Y2553713D01*
X4228823Y2553713D01*
X4256509Y2544569D01*
X4275051Y2526027D01*
X4275051Y2507485D01*
X4265653Y2489197D01*
X4256509Y2479799D01*
X4237967Y2470655D01*
X4182595Y2452113D01*
X4164053Y2442969D01*
X4154909Y2433825D01*
X4145511Y2415283D01*
X4145511Y2387597D01*
X4164053Y2369055D01*
X4191739Y2359911D01*
X4228823Y2359911D01*
X4256509Y2369055D01*
X4275051Y2387597D01*
X4084551Y2553713D02*
G01*
X4084551Y2359911D01*
X4084551Y2452113D02*
G01*
X4056865Y2479799D01*
X4038577Y2489197D01*
X4010891Y2489197D01*
X3992349Y2479799D01*
X3982951Y2452113D01*
X3982951Y2359911D01*
X3876017Y2489197D02*
G01*
X3894305Y2479799D01*
X3912847Y2461511D01*
X3921991Y2433825D01*
X3921991Y2415283D01*
X3912847Y2387597D01*
X3894305Y2369055D01*
X3876017Y2359911D01*
X3848331Y2359911D01*
X3829789Y2369055D01*
X3811247Y2387597D01*
X3802103Y2415283D01*
X3802103Y2433825D01*
X3811247Y2461511D01*
X3829789Y2479799D01*
X3848331Y2489197D01*
X3876017Y2489197D01*
X3630145Y2461511D02*
G01*
X3648687Y2479799D01*
X3667229Y2489197D01*
X3694915Y2489197D01*
X3713457Y2479799D01*
X3731745Y2461511D01*
X3741143Y2433825D01*
X3741143Y2415283D01*
X3731745Y2387597D01*
X3713457Y2369055D01*
X3694915Y2359911D01*
X3667229Y2359911D01*
X3648687Y2369055D01*
X3630145Y2387597D01*
X3569185Y2553713D02*
G01*
X3569185Y2359911D01*
X3476983Y2489197D02*
G01*
X3569185Y2396741D01*
X3532355Y2433825D02*
G01*
X3467585Y2359911D01*
X3406625Y2433825D02*
G01*
X3295881Y2433825D01*
X3295881Y2452113D01*
X3305025Y2470655D01*
X3314423Y2479799D01*
X3332711Y2489197D01*
X3360651Y2489197D01*
X3378939Y2479799D01*
X3397481Y2461511D01*
X3406625Y2433825D01*
X3406625Y2415283D01*
X3397481Y2387597D01*
X3378939Y2369055D01*
X3360651Y2359911D01*
X3332711Y2359911D01*
X3314423Y2369055D01*
X3295881Y2387597D01*
X3225777Y2489197D02*
G01*
X3170151Y2359911D01*
X3114779Y2489197D02*
G01*
X3170151Y2359911D01*
X3188693Y2322827D01*
X3207235Y2304285D01*
X3225777Y2295141D01*
X3234921Y2295141D01*
X2952219Y2461511D02*
G01*
X2961617Y2479799D01*
X2989303Y2489197D01*
X3016989Y2489197D01*
X3044675Y2479799D01*
X3053819Y2461511D01*
X3044675Y2442969D01*
X3026133Y2433825D01*
X2979905Y2424427D01*
X2961617Y2415283D01*
X2952219Y2396741D01*
X2952219Y2387597D01*
X2961617Y2369055D01*
X2989303Y2359911D01*
X3016989Y2359911D01*
X3044675Y2369055D01*
X3053819Y2387597D01*
X10835871Y2507485D02*
G01*
X10845015Y2526027D01*
X10863557Y2544569D01*
X10881845Y2553713D01*
X10918929Y2553713D01*
X10937471Y2544569D01*
X10955759Y2526027D01*
X10965157Y2507485D01*
X10974301Y2479799D01*
X10974301Y2433825D01*
X10965157Y2405885D01*
X10955759Y2387597D01*
X10937471Y2369055D01*
X10918929Y2359911D01*
X10881845Y2359911D01*
X10863557Y2369055D01*
X10845015Y2387597D01*
X10835871Y2405885D01*
X10774911Y2553713D02*
G01*
X10774911Y2359911D01*
X10774911Y2452113D02*
G01*
X10746971Y2479799D01*
X10728683Y2489197D01*
X10700997Y2489197D01*
X10682455Y2479799D01*
X10673311Y2452113D01*
X10673311Y2359911D01*
X10612351Y2433825D02*
G01*
X10501353Y2433825D01*
X10501353Y2452113D01*
X10510751Y2470655D01*
X10519895Y2479799D01*
X10538437Y2489197D01*
X10566123Y2489197D01*
X10584411Y2479799D01*
X10602953Y2461511D01*
X10612351Y2433825D01*
X10612351Y2415283D01*
X10602953Y2387597D01*
X10584411Y2369055D01*
X10566123Y2359911D01*
X10538437Y2359911D01*
X10519895Y2369055D01*
X10501353Y2387597D01*
X10329649Y2461511D02*
G01*
X10348191Y2479799D01*
X10366479Y2489197D01*
X10394165Y2489197D01*
X10412707Y2479799D01*
X10431249Y2461511D01*
X10440393Y2433825D01*
X10440393Y2415283D01*
X10431249Y2387597D01*
X10412707Y2369055D01*
X10394165Y2359911D01*
X10366479Y2359911D01*
X10348191Y2369055D01*
X10329649Y2387597D01*
X10268689Y2553713D02*
G01*
X10268689Y2359911D01*
X10176233Y2489197D02*
G01*
X10268689Y2396741D01*
X10231605Y2433825D02*
G01*
X10167089Y2359911D01*
X10106129Y2442969D02*
G01*
X9939759Y2442969D01*
X9869655Y2489197D02*
G01*
X9814283Y2359911D01*
X9758911Y2489197D02*
G01*
X9814283Y2359911D01*
X9832571Y2322827D01*
X9851113Y2304285D01*
X9869655Y2295141D01*
X9878799Y2295141D01*
X9555711Y2553713D02*
G01*
X9481797Y2359911D01*
X9407883Y2553713D02*
G01*
X9481797Y2359911D01*
X9328381Y2553713D02*
G01*
X9226781Y2553713D01*
X9282153Y2479799D01*
X9254467Y2479799D01*
X9235925Y2470655D01*
X9226781Y2461511D01*
X9217637Y2433825D01*
X9217637Y2415283D01*
X9226781Y2387597D01*
X9245323Y2369055D01*
X9273009Y2359911D01*
X9300695Y2359911D01*
X9328381Y2369055D01*
X9337525Y2378199D01*
X9346923Y2396741D01*
D10*
X19473014Y435912D02*
G01*
X19473014Y1106548D01*
X19800801Y1434335D01*
X19800801Y2221735D01*
X19635701Y2386835D01*
X19018608Y288693D02*
G01*
X18843449Y113535D01*
X17311601Y113535D01*
X17260801Y164335D01*
X17260801Y265935D01*
X16292299Y1171953D02*
G01*
X15872183Y1171953D01*
X15569161Y1474975D01*
X15569161Y1528061D01*
X16304999Y1312720D02*
G01*
X16036216Y1312720D01*
X15947771Y1401165D01*
X15861284Y1401165D01*
X16304999Y1459989D02*
G01*
X16317699Y1459989D01*
X16317699Y1748025D01*
X16138629Y1927095D01*
X16138629Y2663187D01*
D12*
X15150058Y2239258D02*
G01*
X15236677Y2239258D01*
X15655777Y1820158D01*
X15937458Y1820158D01*
X16156917Y1600705D01*
X16221814Y1600705D01*
X16253818Y1632709D01*
D10*
X16189810Y1517520D02*
G01*
X16189810Y1438521D01*
X16238822Y1389506D01*
X16253818Y1389506D01*
X13590501Y88135D02*
G01*
X13590501Y837435D01*
X13826213Y1073147D01*
X13826213Y2436873D01*
X32856401Y2120135D02*
G01*
X32373801Y2120135D01*
X32208701Y2285235D01*
X32110225Y2349522D02*
G01*
X32110225Y2266322D01*
X32519838Y1856709D01*
X32640501Y1856709D01*
X32640501Y1840735D01*
X21083501Y2501135D02*
G01*
X21007301Y2424940D01*
X21007301Y1701035D01*
X20567774Y1261513D01*
X20366200Y1261513D01*
X21115027Y2419906D02*
G01*
X21057407Y2362291D01*
X21057407Y1687647D01*
X20550101Y1180335D01*
X20308801Y1180335D01*
X32500801Y2869435D02*
G01*
X33008801Y2869435D01*
X32043601Y2285235D02*
G01*
X32005501Y2285235D01*
X31967401Y2323335D01*
X31967401Y2602735D01*
X32361101Y2996435D01*
X32627801Y2488435D02*
G01*
X32348909Y2488435D01*
X32270242Y2567096D01*
X33008801Y2488435D02*
G01*
X33008801Y2475735D01*
X32945301Y2412235D01*
X32272201Y2412235D01*
X32526201Y2793235D02*
G01*
X32615101Y2704335D01*
X33046901Y2704335D01*
X32665901Y3136135D02*
G01*
X32157901Y2628135D01*
X32157901Y2386835D01*
X32120583Y2349522D01*
X32110225Y2349522D01*
D12*
X20219901Y1980435D02*
G01*
X20308801Y2069335D01*
X20829501Y2069335D01*
D10*
X19597601Y2170935D02*
G01*
X19521401Y2094735D01*
X19521401Y1929635D01*
X20956501Y2628135D02*
G01*
X20905701Y2577335D01*
X20905701Y1739135D01*
X20594477Y1427911D01*
X20366200Y1427911D01*
X18695901Y1637535D02*
G01*
X18695901Y1358135D01*
X18381675Y1043909D01*
X16777418Y1043909D01*
X16777418Y1031110D01*
X16752801Y1485135D02*
G01*
X16765501Y1485135D01*
X16899521Y1351109D01*
X17394821Y1351109D01*
X17540201Y1205735D01*
X17591001Y1205735D01*
X17603701Y1193035D01*
X17159201Y405635D02*
G01*
X17311601Y405635D01*
X17451301Y265935D01*
X18784801Y265935D01*
X19017419Y498548D01*
X19017419Y762302D01*
X16867002Y973500D02*
G01*
X16790901Y897407D01*
X16790901Y812035D01*
X16790901Y812035D02*
G01*
X16790901Y316735D01*
X18467301Y773935D02*
G01*
X18466135Y775101D01*
X18172607Y775101D01*
X16733801Y1735122D02*
G01*
X16850387Y1735122D01*
X16905201Y1789935D01*
X18238701Y672335D02*
G01*
X18492701Y672335D01*
X18746701Y418335D01*
X17171901Y710435D02*
G01*
X17102175Y640709D01*
X16892600Y640709D01*
X19017419Y1811906D02*
G01*
X18931943Y1726435D01*
X18594301Y1726435D01*
X18441901Y1574035D01*
X18441901Y1358135D01*
X18416501Y1332735D01*
X17552901Y1332735D01*
X18537400Y851915D02*
G01*
X18275002Y851915D01*
X18467016Y928697D02*
G01*
X18460615Y922299D01*
X18179008Y922299D01*
X17184601Y1269235D02*
G01*
X16879801Y1269235D01*
X16752801Y1396235D01*
X17502101Y824735D02*
G01*
X17502101Y761235D01*
X17298901Y558035D01*
X16854401Y558035D01*
X19011008Y851915D02*
G01*
X18732228Y851915D01*
X18594301Y989835D01*
X17679901Y989835D01*
X17616401Y926335D01*
X17197301Y926335D01*
D12*
X16803601Y1574035D02*
G01*
X18378401Y1574035D01*
X18378401Y1396235D01*
D10*
X16886201Y1107917D02*
G01*
X16886201Y1104135D01*
X18276801Y1104135D01*
X18607001Y1434335D01*
X17260801Y1167635D02*
G01*
X16757271Y1167635D01*
X16740202Y1184704D01*
X17210001Y1421635D02*
G01*
X16917901Y1421635D01*
X16892501Y1447035D01*
X17400501Y824735D02*
G01*
X16895371Y824735D01*
X16880994Y839111D01*
D11*
X18734001Y329435D02*
G01*
X18340301Y329435D01*
X18264101Y405635D01*
D10*
X14487400Y2138324D02*
G01*
X15058212Y2138324D01*
X15673301Y1523235D01*
X15673301Y1459735D01*
X15686001Y1459735D01*
X15876501Y1269235D01*
X15914601Y1269235D01*
X15935124Y1248712D01*
X16247417Y1248712D01*
X16241006Y941509D02*
G01*
X16216927Y941509D01*
X16194001Y964435D01*
X15993089Y964435D01*
X15035758Y1921758D01*
X14616658Y1921758D01*
X14462000Y1767100D01*
X14346608Y1767100D01*
X15991405Y2752712D02*
G01*
X16051905Y2752712D01*
X16140684Y2663934D01*
X14391413Y1664713D02*
G01*
X14435731Y1664713D01*
X14642084Y1871065D01*
X14969871Y1871065D01*
X16072236Y768700D01*
X16240993Y768700D01*
X16260218Y685518D02*
G01*
X16079218Y685518D01*
X14944471Y1820265D01*
X14662180Y1820265D01*
X14397812Y1555897D01*
X14359359Y1472689D02*
G01*
X14408889Y1472689D01*
X14705561Y1769361D01*
X14893775Y1769361D01*
X16112975Y550161D01*
X16242261Y550161D01*
X12541808Y2676395D02*
G01*
X12874221Y2344011D01*
X12874221Y2267455D01*
X12866601Y2259835D01*
X13265127Y1588005D02*
G01*
X13578563Y1588005D01*
X13578563Y1575051D01*
X13252196Y1671114D02*
G01*
X13469800Y1671114D01*
X13469800Y1658312D01*
X13265002Y1747898D02*
G01*
X13527432Y1747898D01*
X13546609Y1728721D01*
X13130608Y1619905D02*
G01*
X13130608Y1614827D01*
X13227916Y1517520D01*
X13476201Y1517520D01*
X15946605Y1107920D02*
G01*
X15952990Y1114305D01*
X16247417Y1114305D01*
X16247417Y1101519D01*
X12848313Y2665473D02*
G01*
X12938597Y2575189D01*
X12938597Y2067913D01*
X12938610Y2067913D01*
X13153113Y2665473D02*
G01*
X13009097Y2521455D01*
X13009097Y2023003D01*
X13021795Y2010305D01*
X12458677Y2509517D02*
G01*
X12790401Y2177793D01*
X12790401Y1993135D01*
D14*
X13412701Y2120135D02*
G01*
X13311101Y2221735D01*
X13311101Y2831335D01*
D12*
X12940261Y1521457D02*
G01*
X12940261Y1647695D01*
X13407875Y2115309D01*
D11*
X13717501Y2541605D02*
G01*
X13717501Y2145535D01*
X12193501Y2437635D02*
G01*
X12193501Y2628135D01*
X12370539Y2805173D01*
X12568913Y2805173D01*
D10*
X992101Y2170935D02*
G01*
X928601Y2170935D01*
X814301Y2056635D01*
X331701Y2056635D01*
X268201Y2120135D01*
X1246101Y2437635D02*
G01*
X1246101Y2336035D01*
X877801Y1967735D01*
X877801Y1840735D01*
X827001Y1789935D01*
X712701Y1789935D01*
X945370Y2653535D02*
G01*
X430100Y2653535D01*
X430100Y2653535D02*
G01*
X268201Y2653535D01*
X268201Y2120135D02*
G01*
X268201Y2767835D01*
X458701Y2958335D01*
X712701Y3059935D02*
G01*
X1233401Y2539235D01*
X1233401Y2437635D01*
X15594586Y766163D02*
G01*
X15378686Y982063D01*
X15378686Y1032863D01*
D14*
X14362686Y1312263D02*
G01*
X14667486Y1617063D01*
X14718286Y1617063D01*
D10*
X15188186Y1883763D02*
G01*
X15391386Y1680563D01*
X15391386Y1655163D01*
X15391384Y2252065D02*
G01*
X15463238Y2323919D01*
X15901799Y2323919D01*
X15073886Y2912463D02*
G01*
X15162786Y2823563D01*
X15543786Y2823563D01*
X15670786Y2696563D01*
X15670786Y2671163D01*
X16010613Y1031110D02*
G01*
X16017013Y1024709D01*
X16285791Y1024709D01*
D12*
X15150086Y2239363D02*
G01*
X15035786Y2353663D01*
X14591286Y2353663D01*
X14476986Y2239363D01*
X14362686Y2239363D01*
D10*
X14870684Y2658465D02*
G01*
X14921484Y2607665D01*
X15987171Y2607665D01*
X15991410Y2611904D01*
X15991408Y2611907D02*
G01*
X15991408Y1901520D01*
X16189810Y1703118D01*
X14921486Y2226663D02*
G01*
X15061186Y2226663D01*
X15435117Y1852731D01*
X14946886Y1172563D02*
G01*
X14946886Y1210663D01*
X14819886Y1337663D01*
X14819886Y1693263D01*
X16254984Y855065D02*
G01*
X16077869Y855065D01*
X16049017Y883917D01*
X21020001Y2564635D02*
G01*
X20956501Y2501135D01*
X20956501Y1713735D01*
X20588201Y1345435D01*
X20308801Y1345435D01*
D16*
G01*
X15031392Y1517520D03*
G01*
X14797001Y1193035D03*
G01*
X14416001Y735835D03*
G01*
X17845001Y1840735D03*
G01*
X18111701Y1828035D03*
G01*
X18505401Y1853435D03*
G01*
X17260801Y1764535D03*
G01*
X17616401Y1828035D03*
G01*
X18204614Y1671114D03*
G01*
X17578301Y1447035D03*
G01*
X430100Y2653535D03*
G01*
X992101Y2170935D03*
G01*
X958065Y2653535D03*
G01*
X458701Y2958335D03*
G01*
X280901Y2120135D03*
G01*
X33008801Y2869435D03*
G01*
X32500801Y2869435D03*
G01*
X32361101Y2996435D03*
G01*
X32208701Y2285235D03*
G01*
X32856401Y2120135D03*
G01*
X32270245Y2567124D03*
G01*
X32627801Y2488435D03*
G01*
X32272201Y2412235D03*
G01*
X33008801Y2488435D03*
G01*
X15378686Y1032863D03*
G01*
X15594586Y766163D03*
G01*
X14362686Y1312263D03*
G01*
X14718286Y1617063D03*
G01*
X15188186Y1883763D03*
G01*
X15391386Y1655163D03*
G01*
X15391386Y2252063D03*
G01*
X15901799Y2323919D03*
G01*
X18746701Y418335D03*
G01*
X15073886Y2912463D03*
G01*
X14870686Y2658463D03*
G01*
X15670786Y2671163D03*
G01*
X15991410Y2611904D03*
G01*
X12940235Y1521482D03*
G01*
X15150086Y2239363D03*
G01*
X16253818Y1632709D03*
G01*
X16803601Y1574035D03*
G01*
X16733801Y1735122D03*
G01*
X16905201Y1789935D03*
G01*
X725401Y1789935D03*
G01*
X712701Y3059935D03*
G01*
X1246101Y2437635D03*
G01*
X12193501Y2437635D03*
G01*
X12568913Y2805173D03*
G01*
X13590501Y88135D03*
G01*
X13826213Y2436873D03*
G01*
X32665901Y3136135D03*
G01*
X32640501Y1840735D03*
G01*
X32526201Y2793235D03*
G01*
X33046901Y2704335D03*
G01*
X32110225Y2349522D03*
G01*
X1258801Y2247135D03*
G01*
X12196193Y2247110D03*
G01*
X16010613Y1031110D03*
G01*
X15946605Y1107920D03*
G01*
X16247417Y1101519D03*
G01*
X16285796Y1024709D03*
G01*
X16886201Y1107920D03*
G01*
X16777413Y1031110D03*
G01*
X18607001Y1434335D03*
G01*
X18695901Y1637535D03*
G01*
X20219901Y1980435D03*
G01*
X20829501Y2069335D03*
G01*
X17400501Y824735D03*
G01*
X18238701Y672335D03*
G01*
X14667486Y2467963D03*
G01*
X15124686Y2455263D03*
G01*
X14654786Y2785463D03*
G01*
X15518386Y2709263D03*
G01*
X17171901Y710435D03*
G01*
X16892602Y640712D03*
G01*
X16260218Y685518D03*
G01*
X12458600Y2509517D03*
G01*
X12541811Y2675912D03*
G01*
X12848313Y2665473D03*
G01*
X13153113Y2665473D03*
G01*
X12790401Y1993135D03*
G01*
X12938610Y2067913D03*
G01*
X13021795Y2010305D03*
G01*
X13130608Y1619907D03*
G01*
X13265000Y1587903D03*
G01*
X13252198Y1671114D03*
G01*
X13265000Y1747898D03*
G01*
X13546609Y1728721D03*
G01*
X13469800Y1658312D03*
G01*
X13578588Y1575102D03*
G01*
X13476201Y1517520D03*
G01*
X14346608Y1767100D03*
G01*
X14391413Y1664713D03*
G01*
X14359409Y1472714D03*
G01*
X14819886Y2226663D03*
G01*
X15734286Y766163D03*
G01*
X16257501Y138935D03*
G01*
X18378401Y1396235D03*
G01*
X14362686Y2239363D03*
G01*
X14921486Y2226663D03*
G01*
X19597601Y2170935D03*
G01*
X19521401Y1929635D03*
G01*
X19017414Y1811906D03*
G01*
X17552901Y1332735D03*
G01*
X20956501Y2628135D03*
G01*
X21020001Y2564635D03*
G01*
X21083501Y2501135D03*
G01*
X21115022Y2419906D03*
G01*
X32043601Y2285235D03*
G01*
X21127824Y2189502D03*
G01*
X19673801Y1942335D03*
G01*
X20366205Y1427909D03*
G01*
X20308801Y1345435D03*
G01*
X20366205Y1261513D03*
G01*
X20308801Y1180335D03*
G01*
X19011013Y851913D03*
G01*
X19017414Y762302D03*
G01*
X18734001Y329435D03*
G01*
X19018608Y288693D03*
G01*
X17159201Y405635D03*
G01*
X17260801Y265935D03*
G01*
X18467021Y928697D03*
G01*
X18537405Y851913D03*
G01*
X18274997Y851913D03*
G01*
X18179011Y922322D03*
G01*
X18467301Y773935D03*
G01*
X18172610Y775103D03*
G01*
X14397814Y1555899D03*
G01*
X15991410Y2752722D03*
G01*
X16304999Y1459913D03*
G01*
X16189810Y1703118D03*
G01*
X16189810Y1517520D03*
G01*
X16253818Y1389504D03*
G01*
X16752801Y1485135D03*
G01*
X16752801Y1396235D03*
G01*
X17603701Y1193035D03*
G01*
X17184601Y1269235D03*
G01*
X16242286Y550263D03*
G01*
X16240991Y768703D03*
G01*
X16240991Y941499D03*
G01*
X16790901Y316735D03*
G01*
X16866999Y973503D03*
G01*
X16854401Y558035D03*
G01*
X17502101Y824735D03*
G01*
X17197301Y926335D03*
G01*
X16247417Y1248712D03*
G01*
X17260801Y1167635D03*
G01*
X16740202Y1184704D03*
G01*
X16292197Y1171902D03*
G01*
X15435125Y1852724D03*
G01*
X15569186Y1528163D03*
G01*
X17210001Y1421635D03*
G01*
X16892501Y1447035D03*
G01*
X16304999Y1312720D03*
G01*
X15861286Y1401163D03*
G01*
X14946886Y1172563D03*
G01*
X14819886Y1693263D03*
G01*
X16880994Y839111D03*
G01*
X16254986Y855063D03*
G01*
X16049017Y883917D03*
G01*
X13311101Y2831335D03*
G01*
X17197301Y2069335D03*
G01*
X17324301Y2069335D03*
G01*
X17436619Y2067913D03*
G01*
X17552901Y2069335D03*
G01*
X17667201Y2069335D03*
G01*
X17794201Y2069335D03*
G01*
X17908501Y2069335D03*
G01*
X18022801Y2069335D03*
G01*
X18137101Y2069335D03*
G01*
X18251401Y2069335D03*
G01*
X18365701Y2069335D03*
G01*
X18492701Y2069335D03*
G01*
X18607001Y2069335D03*
G01*
X18721301Y2069335D03*
G01*
X18264101Y405635D03*
G01*
X13717501Y2541597D03*
G01*
X13717501Y2145535D03*
G01*
X12866601Y2259835D03*
G01*
X14487400Y2138321D03*
G01*
X13869901Y939035D03*
G01*
X13869901Y850135D03*
G01*
X13869901Y761235D03*
G01*
X13869901Y672335D03*
G01*
X14301701Y939035D03*
G01*
X14301701Y850135D03*
G01*
X14301701Y761235D03*
G01*
X14301701Y672335D03*
G01*
X16295601Y2717035D03*
G01*
X16295601Y2628135D03*
G01*
X16295601Y2539235D03*
G01*
X16295601Y2437635D03*
G01*
X16740101Y2717035D03*
G01*
X16740101Y2628135D03*
G01*
X16740101Y2539235D03*
G01*
X16740101Y2437635D03*
G01*
X19013401Y2704335D03*
G01*
X19013401Y2615435D03*
G01*
X19013401Y2526535D03*
G01*
X19013401Y2450335D03*
G01*
X19470601Y2704335D03*
G01*
X19470601Y2615435D03*
G01*
X19470601Y2526535D03*
G01*
X19470601Y2450335D03*
G01*
X19470601Y1294635D03*
G01*
X19470601Y1396235D03*
G01*
X19470601Y1701035D03*
G01*
X19026101Y1701035D03*
G01*
X19026101Y1396235D03*
G01*
X19026101Y1294635D03*
G01*
X16257501Y227835D03*
G01*
X16790901Y227835D03*
G01*
X16790901Y138935D03*
G01*
X13882601Y100835D03*
G01*
X14333527Y97685D03*
G01*
X13869901Y2869435D03*
G01*
X13869901Y2780535D03*
G01*
X13869901Y2678935D03*
G01*
X14301701Y2869435D03*
G01*
X14301701Y2780535D03*
G01*
X14301701Y2678935D03*
G01*
X19473014Y435912D03*
G01*
X19635701Y2386835D03*
G01*
X13171401Y532635D03*
G01*
X13184101Y88135D03*
D15*
X15008468Y563293D02*
G01*
X15038468Y563293D01*
X14348576Y563293D02*
G01*
X14378576Y563293D01*
D48*
X15055471Y253380D02*
G01*
X15055471Y313390D01*
X14330555Y253380D02*
G01*
X14330555Y313390D01*
M02*
