G04 Layer: TopSilkLayer*
G04 EasyEDA v6.4.14, 2021-01-19T22:22:16+01:00*
G04 02485e9e15114f7e80ffde9a8eea953d,da693c564b984109b00d12f045165e1a,10*
G04 Gerber Generator version 0.2*
G04 Scale: 100 percent, Rotated: No, Reflected: No *
G04 Dimensions in millimeters *
G04 leading zeros omitted , absolute positions ,4 integer and 5 decimal *
%FSLAX45Y45*%
%MOMM*%

%ADD10C,0.2540*%
%ADD50C,0.2000*%
%ADD51C,0.2030*%
%ADD52C,0.1524*%
%ADD53C,0.2489*%

%LPD*%
D52*
X19572201Y2654551D02*
G01*
X19572201Y2576573D01*
X19577281Y2561079D01*
X19587695Y2550665D01*
X19603443Y2545585D01*
X19613857Y2545585D01*
X19629351Y2550665D01*
X19639765Y2561079D01*
X19644845Y2576573D01*
X19644845Y2654551D01*
X19731205Y2654551D02*
G01*
X19679135Y2581907D01*
X19757113Y2581907D01*
X19731205Y2654551D02*
G01*
X19731205Y2545585D01*
X15995693Y1966719D02*
G01*
X15995693Y2075685D01*
X15995693Y1966719D02*
G01*
X15948957Y1966719D01*
X15933463Y1971799D01*
X15928129Y1977133D01*
X15923049Y1987547D01*
X15923049Y1997961D01*
X15928129Y2008375D01*
X15933463Y2013455D01*
X15948957Y2018535D01*
X15995693Y2018535D01*
X15959371Y2018535D02*
G01*
X15923049Y2075685D01*
X15883425Y1992627D02*
G01*
X15883425Y1987547D01*
X15878345Y1977133D01*
X15873011Y1971799D01*
X15862597Y1966719D01*
X15842023Y1966719D01*
X15831609Y1971799D01*
X15826275Y1977133D01*
X15821195Y1987547D01*
X15821195Y1997961D01*
X15826275Y2008375D01*
X15836689Y2023869D01*
X15888759Y2075685D01*
X15815861Y2075685D01*
X15750583Y1966719D02*
G01*
X15766077Y1971799D01*
X15776491Y1987547D01*
X15781571Y2013455D01*
X15781571Y2028949D01*
X15776491Y2055111D01*
X15766077Y2070605D01*
X15750583Y2075685D01*
X15740169Y2075685D01*
X15724421Y2070605D01*
X15714007Y2055111D01*
X15708927Y2028949D01*
X15708927Y2013455D01*
X15714007Y1987547D01*
X15724421Y1971799D01*
X15740169Y1966719D01*
X15750583Y1966719D01*
X16142185Y2285235D02*
G01*
X16251151Y2285235D01*
X16142185Y2285235D02*
G01*
X16142185Y2331971D01*
X16147265Y2347465D01*
X16152599Y2352799D01*
X16163013Y2357879D01*
X16173427Y2357879D01*
X16183841Y2352799D01*
X16188921Y2347465D01*
X16194001Y2331971D01*
X16194001Y2285235D01*
X16194001Y2321557D02*
G01*
X16251151Y2357879D01*
X16168093Y2397503D02*
G01*
X16163013Y2397503D01*
X16152599Y2402583D01*
X16147265Y2407917D01*
X16142185Y2418331D01*
X16142185Y2438905D01*
X16147265Y2449319D01*
X16152599Y2454653D01*
X16163013Y2459733D01*
X16173427Y2459733D01*
X16183841Y2454653D01*
X16199335Y2444239D01*
X16251151Y2392169D01*
X16251151Y2465067D01*
X16142185Y2509771D02*
G01*
X16142185Y2566921D01*
X16183841Y2535679D01*
X16183841Y2551173D01*
X16188921Y2561587D01*
X16194001Y2566921D01*
X16209749Y2572001D01*
X16220163Y2572001D01*
X16235657Y2566921D01*
X16246071Y2556507D01*
X16251151Y2540759D01*
X16251151Y2525265D01*
X16246071Y2509771D01*
X16240991Y2504437D01*
X16230577Y2499357D01*
X15977085Y812035D02*
G01*
X16086051Y812035D01*
X15977085Y812035D02*
G01*
X15977085Y858771D01*
X15982165Y874265D01*
X15987499Y879599D01*
X15997913Y884679D01*
X16008327Y884679D01*
X16018741Y879599D01*
X16023821Y874265D01*
X16028901Y858771D01*
X16028901Y812035D01*
X16028901Y848357D02*
G01*
X16086051Y884679D01*
X16002993Y924303D02*
G01*
X15997913Y924303D01*
X15987499Y929383D01*
X15982165Y934717D01*
X15977085Y945131D01*
X15977085Y965705D01*
X15982165Y976119D01*
X15987499Y981453D01*
X15997913Y986533D01*
X16008327Y986533D01*
X16018741Y981453D01*
X16034235Y971039D01*
X16086051Y918969D01*
X16086051Y991867D01*
X15977085Y1077973D02*
G01*
X16049729Y1026157D01*
X16049729Y1104135D01*
X15977085Y1077973D02*
G01*
X16086051Y1077973D01*
X20748409Y2159251D02*
G01*
X20748409Y2050285D01*
X20748409Y2159251D02*
G01*
X20795145Y2159251D01*
X20810639Y2154171D01*
X20815973Y2148837D01*
X20821053Y2138423D01*
X20821053Y2128009D01*
X20815973Y2117595D01*
X20810639Y2112515D01*
X20795145Y2107435D01*
X20748409Y2107435D01*
X20784731Y2107435D02*
G01*
X20821053Y2050285D01*
X20855343Y2138423D02*
G01*
X20865757Y2143757D01*
X20881505Y2159251D01*
X20881505Y2050285D01*
X20983359Y2122929D02*
G01*
X20978025Y2107435D01*
X20967611Y2097021D01*
X20952117Y2091687D01*
X20946783Y2091687D01*
X20931289Y2097021D01*
X20920875Y2107435D01*
X20915795Y2122929D01*
X20915795Y2128009D01*
X20920875Y2143757D01*
X20931289Y2154171D01*
X20946783Y2159251D01*
X20952117Y2159251D01*
X20967611Y2154171D01*
X20978025Y2143757D01*
X20983359Y2122929D01*
X20983359Y2097021D01*
X20978025Y2070859D01*
X20967611Y2055365D01*
X20952117Y2050285D01*
X20941703Y2050285D01*
X20926209Y2055365D01*
X20920875Y2065779D01*
X15938985Y2653535D02*
G01*
X16047951Y2653535D01*
X15938985Y2653535D02*
G01*
X15938985Y2700271D01*
X15944065Y2715765D01*
X15949399Y2721099D01*
X15959813Y2726179D01*
X15970227Y2726179D01*
X15980641Y2721099D01*
X15985721Y2715765D01*
X15990801Y2700271D01*
X15990801Y2653535D01*
X15990801Y2689857D02*
G01*
X16047951Y2726179D01*
X15959813Y2760469D02*
G01*
X15954479Y2770883D01*
X15938985Y2786631D01*
X16047951Y2786631D01*
X15964893Y2826001D02*
G01*
X15959813Y2826001D01*
X15949399Y2831335D01*
X15944065Y2836415D01*
X15938985Y2846829D01*
X15938985Y2867657D01*
X15944065Y2878071D01*
X15949399Y2883151D01*
X15959813Y2888485D01*
X15970227Y2888485D01*
X15980641Y2883151D01*
X15996135Y2872737D01*
X16047951Y2820921D01*
X16047951Y2893565D01*
X15608785Y2628135D02*
G01*
X15717751Y2628135D01*
X15608785Y2628135D02*
G01*
X15608785Y2674871D01*
X15613865Y2690365D01*
X15619199Y2695699D01*
X15629613Y2700779D01*
X15640027Y2700779D01*
X15650441Y2695699D01*
X15655521Y2690365D01*
X15660601Y2674871D01*
X15660601Y2628135D01*
X15660601Y2664457D02*
G01*
X15717751Y2700779D01*
X15629613Y2735069D02*
G01*
X15624279Y2745483D01*
X15608785Y2761231D01*
X15717751Y2761231D01*
X15608785Y2805935D02*
G01*
X15608785Y2863085D01*
X15650441Y2831843D01*
X15650441Y2847337D01*
X15655521Y2857751D01*
X15660601Y2863085D01*
X15676349Y2868165D01*
X15686763Y2868165D01*
X15702257Y2863085D01*
X15712671Y2852671D01*
X15717751Y2836923D01*
X15717751Y2821429D01*
X15712671Y2805935D01*
X15707591Y2800601D01*
X15697177Y2795521D01*
X13248617Y2760027D02*
G01*
X13139651Y2760027D01*
X13248617Y2760027D02*
G01*
X13248617Y2713291D01*
X13243537Y2697797D01*
X13238203Y2692463D01*
X13227789Y2687383D01*
X13217375Y2687383D01*
X13206961Y2692463D01*
X13201881Y2697797D01*
X13196801Y2713291D01*
X13196801Y2760027D01*
X13196801Y2723705D02*
G01*
X13139651Y2687383D01*
X13227789Y2653093D02*
G01*
X13233123Y2642679D01*
X13248617Y2626931D01*
X13139651Y2626931D01*
X13248617Y2519997D02*
G01*
X13139651Y2572067D01*
X13248617Y2592641D02*
G01*
X13248617Y2519997D01*
X12943817Y2760027D02*
G01*
X12834851Y2760027D01*
X12943817Y2760027D02*
G01*
X12943817Y2713291D01*
X12938737Y2697797D01*
X12933403Y2692463D01*
X12922989Y2687383D01*
X12912575Y2687383D01*
X12902161Y2692463D01*
X12897081Y2697797D01*
X12892001Y2713291D01*
X12892001Y2760027D01*
X12892001Y2723705D02*
G01*
X12834851Y2687383D01*
X12922989Y2653093D02*
G01*
X12928323Y2642679D01*
X12943817Y2626931D01*
X12834851Y2626931D01*
X12943817Y2566733D02*
G01*
X12938737Y2582227D01*
X12928323Y2587561D01*
X12917909Y2587561D01*
X12907495Y2582227D01*
X12902161Y2572067D01*
X12897081Y2551239D01*
X12892001Y2535491D01*
X12881587Y2525077D01*
X12871173Y2519997D01*
X12855425Y2519997D01*
X12845011Y2525077D01*
X12839931Y2530411D01*
X12834851Y2545905D01*
X12834851Y2566733D01*
X12839931Y2582227D01*
X12845011Y2587561D01*
X12855425Y2592641D01*
X12871173Y2592641D01*
X12881587Y2587561D01*
X12892001Y2577147D01*
X12897081Y2561653D01*
X12902161Y2540825D01*
X12907495Y2530411D01*
X12917909Y2525077D01*
X12928323Y2525077D01*
X12938737Y2530411D01*
X12943817Y2545905D01*
X12943817Y2566733D01*
X14389585Y2412235D02*
G01*
X14498551Y2412235D01*
X14389585Y2412235D02*
G01*
X14389585Y2458971D01*
X14394665Y2474465D01*
X14399999Y2479799D01*
X14410413Y2484879D01*
X14420827Y2484879D01*
X14431241Y2479799D01*
X14436321Y2474465D01*
X14441401Y2458971D01*
X14441401Y2412235D01*
X14441401Y2448557D02*
G01*
X14498551Y2484879D01*
X14389585Y2581653D02*
G01*
X14389585Y2529583D01*
X14436321Y2524503D01*
X14431241Y2529583D01*
X14425907Y2545331D01*
X14425907Y2560825D01*
X14431241Y2576319D01*
X14441401Y2586733D01*
X14457149Y2592067D01*
X14467563Y2592067D01*
X14483057Y2586733D01*
X14493471Y2576319D01*
X14498551Y2560825D01*
X14498551Y2545331D01*
X14493471Y2529583D01*
X14488391Y2524503D01*
X14477977Y2519169D01*
X12739093Y1728213D02*
G01*
X12728679Y1722879D01*
X12718265Y1712465D01*
X12713185Y1702305D01*
X12713185Y1681477D01*
X12718265Y1671063D01*
X12728679Y1660649D01*
X12739093Y1655315D01*
X12754841Y1650235D01*
X12780749Y1650235D01*
X12796243Y1655315D01*
X12806657Y1660649D01*
X12817071Y1671063D01*
X12822151Y1681477D01*
X12822151Y1702305D01*
X12817071Y1712465D01*
X12806657Y1722879D01*
X12796243Y1728213D01*
X12713185Y1762503D02*
G01*
X12822151Y1762503D01*
X12713185Y1835147D02*
G01*
X12822151Y1835147D01*
X12765001Y1762503D02*
G01*
X12765001Y1835147D01*
X12713185Y1911093D02*
G01*
X12822151Y1869437D01*
X12713185Y1911093D02*
G01*
X12822151Y1952495D01*
X12785829Y1885185D02*
G01*
X12785829Y1937001D01*
X12713185Y1986785D02*
G01*
X12822151Y1986785D01*
X12713185Y1986785D02*
G01*
X12713185Y2033775D01*
X12718265Y2049269D01*
X12723599Y2054349D01*
X12734013Y2059683D01*
X12744427Y2059683D01*
X12754841Y2054349D01*
X12759921Y2049269D01*
X12765001Y2033775D01*
X12765001Y1986785D01*
X12765001Y2023361D02*
G01*
X12822151Y2059683D01*
X12739093Y2171951D02*
G01*
X12728679Y2166617D01*
X12718265Y2156203D01*
X12713185Y2145789D01*
X12713185Y2125215D01*
X12718265Y2114801D01*
X12728679Y2104387D01*
X12739093Y2099053D01*
X12754841Y2093973D01*
X12780749Y2093973D01*
X12796243Y2099053D01*
X12806657Y2104387D01*
X12817071Y2114801D01*
X12822151Y2125215D01*
X12822151Y2145789D01*
X12817071Y2156203D01*
X12806657Y2166617D01*
X12796243Y2171951D01*
X12780749Y2171951D01*
X12780749Y2145789D02*
G01*
X12780749Y2171951D01*
X12713185Y2206241D02*
G01*
X12822151Y2206241D01*
X12713185Y2206241D02*
G01*
X12713185Y2273805D01*
X12765001Y2206241D02*
G01*
X12765001Y2247643D01*
X12822151Y2206241D02*
G01*
X12822151Y2273805D01*
X12713185Y2308095D02*
G01*
X12822151Y2308095D01*
X12713185Y2308095D02*
G01*
X12713185Y2354831D01*
X12718265Y2370325D01*
X12723599Y2375405D01*
X12734013Y2380739D01*
X12744427Y2380739D01*
X12754841Y2375405D01*
X12759921Y2370325D01*
X12765001Y2354831D01*
X12765001Y2308095D01*
X12765001Y2344417D02*
G01*
X12822151Y2380739D01*
X12734013Y2415029D02*
G01*
X12728679Y2425443D01*
X12713185Y2440937D01*
X12822151Y2440937D01*
X13400001Y2235451D02*
G01*
X13400001Y2126485D01*
X13400001Y2235451D02*
G01*
X13446737Y2235451D01*
X13462231Y2230371D01*
X13467565Y2225037D01*
X13472645Y2214623D01*
X13472645Y2199129D01*
X13467565Y2188715D01*
X13462231Y2183635D01*
X13446737Y2178301D01*
X13400001Y2178301D01*
X13538177Y2235451D02*
G01*
X13527763Y2230371D01*
X13517349Y2219957D01*
X13512269Y2209543D01*
X13506935Y2193795D01*
X13506935Y2167887D01*
X13512269Y2152393D01*
X13517349Y2141979D01*
X13527763Y2131565D01*
X13538177Y2126485D01*
X13559005Y2126485D01*
X13569419Y2131565D01*
X13579833Y2141979D01*
X13584913Y2152393D01*
X13590247Y2167887D01*
X13590247Y2193795D01*
X13584913Y2209543D01*
X13579833Y2219957D01*
X13569419Y2230371D01*
X13559005Y2235451D01*
X13538177Y2235451D01*
X13624537Y2235451D02*
G01*
X13650445Y2126485D01*
X13676353Y2235451D02*
G01*
X13650445Y2126485D01*
X13676353Y2235451D02*
G01*
X13702261Y2126485D01*
X13728423Y2235451D02*
G01*
X13702261Y2126485D01*
X13762713Y2235451D02*
G01*
X13762713Y2126485D01*
X13762713Y2235451D02*
G01*
X13830277Y2235451D01*
X13762713Y2183635D02*
G01*
X13804115Y2183635D01*
X13762713Y2126485D02*
G01*
X13830277Y2126485D01*
X13864567Y2235451D02*
G01*
X13864567Y2126485D01*
X13864567Y2235451D02*
G01*
X13911303Y2235451D01*
X13926797Y2230371D01*
X13932131Y2225037D01*
X13937211Y2214623D01*
X13937211Y2204209D01*
X13932131Y2193795D01*
X13926797Y2188715D01*
X13911303Y2183635D01*
X13864567Y2183635D01*
X13900889Y2183635D02*
G01*
X13937211Y2126485D01*
X13971501Y2089909D02*
G01*
X14064973Y2089909D01*
X14099263Y2235451D02*
G01*
X14099263Y2126485D01*
X14099263Y2235451D02*
G01*
X14145999Y2235451D01*
X14161747Y2230371D01*
X14166827Y2225037D01*
X14172161Y2214623D01*
X14172161Y2204209D01*
X14166827Y2193795D01*
X14161747Y2188715D01*
X14145999Y2183635D01*
X14099263Y2183635D01*
X14135585Y2183635D02*
G01*
X14172161Y2126485D01*
X14206451Y2235451D02*
G01*
X14206451Y2126485D01*
X14206451Y2235451D02*
G01*
X14273761Y2235451D01*
X14206451Y2183635D02*
G01*
X14247853Y2183635D01*
X14206451Y2126485D02*
G01*
X14273761Y2126485D01*
X14386029Y2209543D02*
G01*
X14380949Y2219957D01*
X14370535Y2230371D01*
X14360121Y2235451D01*
X14339293Y2235451D01*
X14328879Y2230371D01*
X14318465Y2219957D01*
X14313385Y2209543D01*
X14308051Y2193795D01*
X14308051Y2167887D01*
X14313385Y2152393D01*
X14318465Y2141979D01*
X14328879Y2131565D01*
X14339293Y2126485D01*
X14360121Y2126485D01*
X14370535Y2131565D01*
X14380949Y2141979D01*
X14386029Y2152393D01*
X14386029Y2167887D01*
X14360121Y2167887D02*
G01*
X14386029Y2167887D01*
X14420319Y2214623D02*
G01*
X14430733Y2219957D01*
X14446481Y2235451D01*
X14446481Y2126485D01*
X33021511Y2337051D02*
G01*
X33021511Y2228085D01*
X33021511Y2337051D02*
G01*
X33068247Y2337051D01*
X33083741Y2331971D01*
X33089075Y2326637D01*
X33094155Y2316223D01*
X33094155Y2305809D01*
X33089075Y2295395D01*
X33083741Y2290315D01*
X33068247Y2285235D01*
X33021511Y2285235D01*
X33057833Y2285235D02*
G01*
X33094155Y2228085D01*
X33128445Y2316223D02*
G01*
X33138859Y2321557D01*
X33154607Y2337051D01*
X33154607Y2228085D01*
X33251127Y2321557D02*
G01*
X33246047Y2331971D01*
X33230299Y2337051D01*
X33219885Y2337051D01*
X33204391Y2331971D01*
X33193977Y2316223D01*
X33188897Y2290315D01*
X33188897Y2264407D01*
X33193977Y2243579D01*
X33204391Y2233165D01*
X33219885Y2228085D01*
X33225219Y2228085D01*
X33240713Y2233165D01*
X33251127Y2243579D01*
X33256461Y2259073D01*
X33256461Y2264407D01*
X33251127Y2279901D01*
X33240713Y2290315D01*
X33225219Y2295395D01*
X33219885Y2295395D01*
X33204391Y2290315D01*
X33193977Y2279901D01*
X33188897Y2264407D01*
X115811Y2730751D02*
G01*
X115811Y2621785D01*
X115811Y2730751D02*
G01*
X162547Y2730751D01*
X178041Y2725671D01*
X183375Y2720337D01*
X188455Y2709923D01*
X188455Y2699509D01*
X183375Y2689095D01*
X178041Y2684015D01*
X162547Y2678935D01*
X115811Y2678935D01*
X152133Y2678935D02*
G01*
X188455Y2621785D01*
X222745Y2709923D02*
G01*
X233159Y2715257D01*
X248907Y2730751D01*
X248907Y2621785D01*
X335013Y2730751D02*
G01*
X283197Y2658107D01*
X360921Y2658107D01*
X335013Y2730751D02*
G01*
X335013Y2621785D01*
X32350166Y2857243D02*
G01*
X32344832Y2867657D01*
X32334418Y2878071D01*
X32324258Y2883151D01*
X32303430Y2883151D01*
X32293016Y2878071D01*
X32282602Y2867657D01*
X32277268Y2857243D01*
X32272188Y2841495D01*
X32272188Y2815587D01*
X32277268Y2800093D01*
X32282602Y2789679D01*
X32293016Y2779265D01*
X32303430Y2774185D01*
X32324258Y2774185D01*
X32334418Y2779265D01*
X32344832Y2789679D01*
X32350166Y2800093D01*
X32384456Y2862323D02*
G01*
X32394870Y2867657D01*
X32410364Y2883151D01*
X32410364Y2774185D01*
X32455068Y2883151D02*
G01*
X32512218Y2883151D01*
X32480976Y2841495D01*
X32496724Y2841495D01*
X32507138Y2836415D01*
X32512218Y2831335D01*
X32517298Y2815587D01*
X32517298Y2805173D01*
X32512218Y2789679D01*
X32501804Y2779265D01*
X32486310Y2774185D01*
X32470562Y2774185D01*
X32455068Y2779265D01*
X32449988Y2784345D01*
X32444654Y2794759D01*
X32203900Y2164118D02*
G01*
X32198566Y2174532D01*
X32188152Y2184946D01*
X32177992Y2190026D01*
X32157164Y2190026D01*
X32146750Y2184946D01*
X32136336Y2174532D01*
X32131002Y2164118D01*
X32125922Y2148370D01*
X32125922Y2122462D01*
X32131002Y2106968D01*
X32136336Y2096554D01*
X32146750Y2086140D01*
X32157164Y2081060D01*
X32177992Y2081060D01*
X32188152Y2086140D01*
X32198566Y2096554D01*
X32203900Y2106968D01*
X32310834Y2190026D02*
G01*
X32259018Y2081060D01*
X32238190Y2190026D02*
G01*
X32310834Y2190026D01*
X447766Y2082543D02*
G01*
X442432Y2092957D01*
X432018Y2103371D01*
X421858Y2108451D01*
X401030Y2108451D01*
X390616Y2103371D01*
X380202Y2092957D01*
X374868Y2082543D01*
X369788Y2066795D01*
X369788Y2040887D01*
X374868Y2025393D01*
X380202Y2014979D01*
X390616Y2004565D01*
X401030Y1999485D01*
X421858Y1999485D01*
X432018Y2004565D01*
X442432Y2014979D01*
X447766Y2025393D01*
X482056Y2087623D02*
G01*
X492470Y2092957D01*
X507964Y2108451D01*
X507964Y1999485D01*
X594324Y2108451D02*
G01*
X542254Y2035807D01*
X620232Y2035807D01*
X594324Y2108451D02*
G01*
X594324Y1999485D01*
X15459191Y2323843D02*
G01*
X15453857Y2334257D01*
X15443443Y2344671D01*
X15433283Y2349751D01*
X15412455Y2349751D01*
X15402041Y2344671D01*
X15391627Y2334257D01*
X15386293Y2323843D01*
X15381213Y2308095D01*
X15381213Y2282187D01*
X15386293Y2266693D01*
X15391627Y2256279D01*
X15402041Y2245865D01*
X15412455Y2240785D01*
X15433283Y2240785D01*
X15443443Y2245865D01*
X15453857Y2256279D01*
X15459191Y2266693D01*
X15493481Y2328923D02*
G01*
X15503895Y2334257D01*
X15519389Y2349751D01*
X15519389Y2240785D01*
X15616163Y2334257D02*
G01*
X15610829Y2344671D01*
X15595335Y2349751D01*
X15584921Y2349751D01*
X15569173Y2344671D01*
X15559013Y2328923D01*
X15553679Y2303015D01*
X15553679Y2277107D01*
X15559013Y2256279D01*
X15569173Y2245865D01*
X15584921Y2240785D01*
X15590001Y2240785D01*
X15605749Y2245865D01*
X15616163Y2256279D01*
X15621243Y2271773D01*
X15621243Y2277107D01*
X15616163Y2292601D01*
X15605749Y2303015D01*
X15590001Y2308095D01*
X15584921Y2308095D01*
X15569173Y2303015D01*
X15559013Y2292601D01*
X15553679Y2277107D01*
X15700466Y1066543D02*
G01*
X15695132Y1076957D01*
X15684718Y1087371D01*
X15674558Y1092451D01*
X15653730Y1092451D01*
X15643316Y1087371D01*
X15632902Y1076957D01*
X15627568Y1066543D01*
X15622488Y1050795D01*
X15622488Y1024887D01*
X15627568Y1009393D01*
X15632902Y998979D01*
X15643316Y988565D01*
X15653730Y983485D01*
X15674558Y983485D01*
X15684718Y988565D01*
X15695132Y998979D01*
X15700466Y1009393D01*
X15786572Y1092451D02*
G01*
X15734756Y1019807D01*
X15812734Y1019807D01*
X15786572Y1092451D02*
G01*
X15786572Y983485D01*
X15713166Y507743D02*
G01*
X15707832Y518157D01*
X15697418Y528571D01*
X15687258Y533651D01*
X15666430Y533651D01*
X15656016Y528571D01*
X15645602Y518157D01*
X15640268Y507743D01*
X15635188Y491995D01*
X15635188Y466087D01*
X15640268Y450593D01*
X15645602Y440179D01*
X15656016Y429765D01*
X15666430Y424685D01*
X15687258Y424685D01*
X15697418Y429765D01*
X15707832Y440179D01*
X15713166Y450593D01*
X15809686Y533651D02*
G01*
X15757870Y533651D01*
X15752536Y486915D01*
X15757870Y491995D01*
X15773364Y497329D01*
X15788858Y497329D01*
X15804606Y491995D01*
X15815020Y481835D01*
X15820100Y466087D01*
X15820100Y455673D01*
X15815020Y440179D01*
X15804606Y429765D01*
X15788858Y424685D01*
X15773364Y424685D01*
X15757870Y429765D01*
X15752536Y434845D01*
X15747456Y445259D01*
X12685245Y251457D02*
G01*
X12674831Y261871D01*
X12659337Y266951D01*
X12638509Y266951D01*
X12623015Y261871D01*
X12612601Y251457D01*
X12612601Y241043D01*
X12617681Y230629D01*
X12623015Y225295D01*
X12633429Y220215D01*
X12664671Y209801D01*
X12674831Y204721D01*
X12680165Y199387D01*
X12685245Y188973D01*
X12685245Y173479D01*
X12674831Y163065D01*
X12659337Y157985D01*
X12638509Y157985D01*
X12623015Y163065D01*
X12612601Y173479D01*
X12719535Y266951D02*
G01*
X12745697Y157985D01*
X12771605Y266951D02*
G01*
X12745697Y157985D01*
X12771605Y266951D02*
G01*
X12797513Y157985D01*
X12823421Y266951D02*
G01*
X12797513Y157985D01*
X12909781Y266951D02*
G01*
X12857711Y194307D01*
X12935689Y194307D01*
X12909781Y266951D02*
G01*
X12909781Y157985D01*
X12316691Y900681D02*
G01*
X12311357Y911095D01*
X12300943Y921509D01*
X12290783Y926589D01*
X12269955Y926589D01*
X12259541Y921509D01*
X12249127Y911095D01*
X12243793Y900681D01*
X12238713Y884933D01*
X12238713Y859025D01*
X12243793Y843531D01*
X12249127Y833117D01*
X12259541Y822703D01*
X12269955Y817623D01*
X12290783Y817623D01*
X12300943Y822703D01*
X12311357Y833117D01*
X12316691Y843531D01*
X12350981Y926589D02*
G01*
X12350981Y817623D01*
X12350981Y926589D02*
G01*
X12423625Y817623D01*
X12423625Y926589D02*
G01*
X12423625Y817623D01*
X12457915Y905761D02*
G01*
X12468329Y911095D01*
X12483823Y926589D01*
X12483823Y817623D01*
X20203645Y2562857D02*
G01*
X20193231Y2573271D01*
X20177737Y2578351D01*
X20156909Y2578351D01*
X20141415Y2573271D01*
X20131001Y2562857D01*
X20131001Y2552443D01*
X20136081Y2542029D01*
X20141415Y2536695D01*
X20151829Y2531615D01*
X20183071Y2521201D01*
X20193231Y2516121D01*
X20198565Y2510787D01*
X20203645Y2500373D01*
X20203645Y2484879D01*
X20193231Y2474465D01*
X20177737Y2469385D01*
X20156909Y2469385D01*
X20141415Y2474465D01*
X20131001Y2484879D01*
X20237935Y2578351D02*
G01*
X20264097Y2469385D01*
X20290005Y2578351D02*
G01*
X20264097Y2469385D01*
X20290005Y2578351D02*
G01*
X20315913Y2469385D01*
X20341821Y2578351D02*
G01*
X20315913Y2469385D01*
X20376111Y2557523D02*
G01*
X20386525Y2562857D01*
X20402273Y2578351D01*
X20402273Y2469385D01*
X32538901Y2540251D02*
G01*
X32538901Y2462273D01*
X32543981Y2446779D01*
X32554395Y2436365D01*
X32570143Y2431285D01*
X32580557Y2431285D01*
X32596051Y2436365D01*
X32606465Y2446779D01*
X32611545Y2462273D01*
X32611545Y2540251D01*
X32656249Y2540251D02*
G01*
X32713399Y2540251D01*
X32682411Y2498595D01*
X32697905Y2498595D01*
X32708319Y2493515D01*
X32713399Y2488435D01*
X32718733Y2472687D01*
X32718733Y2462273D01*
X32713399Y2446779D01*
X32702985Y2436365D01*
X32687491Y2431285D01*
X32671997Y2431285D01*
X32656249Y2436365D01*
X32651169Y2441445D01*
X32645835Y2451859D01*
X611101Y2502151D02*
G01*
X611101Y2424173D01*
X616181Y2408679D01*
X626595Y2398265D01*
X642343Y2393185D01*
X652757Y2393185D01*
X668251Y2398265D01*
X678665Y2408679D01*
X683745Y2424173D01*
X683745Y2502151D01*
X780519Y2502151D02*
G01*
X728449Y2502151D01*
X723369Y2455415D01*
X728449Y2460495D01*
X744197Y2465829D01*
X759691Y2465829D01*
X775185Y2460495D01*
X785599Y2450335D01*
X790933Y2434587D01*
X790933Y2424173D01*
X785599Y2408679D01*
X775185Y2398265D01*
X759691Y2393185D01*
X744197Y2393185D01*
X728449Y2398265D01*
X723369Y2403345D01*
X718035Y2413759D01*
X15237945Y505457D02*
G01*
X15227531Y515871D01*
X15212037Y520951D01*
X15191209Y520951D01*
X15175715Y515871D01*
X15165301Y505457D01*
X15165301Y495043D01*
X15170381Y484629D01*
X15175715Y479295D01*
X15186129Y474215D01*
X15217371Y463801D01*
X15227531Y458721D01*
X15232865Y453387D01*
X15237945Y442973D01*
X15237945Y427479D01*
X15227531Y417065D01*
X15212037Y411985D01*
X15191209Y411985D01*
X15175715Y417065D01*
X15165301Y427479D01*
X15272235Y520951D02*
G01*
X15298397Y411985D01*
X15324305Y520951D02*
G01*
X15298397Y411985D01*
X15324305Y520951D02*
G01*
X15350213Y411985D01*
X15376121Y520951D02*
G01*
X15350213Y411985D01*
X15420825Y520951D02*
G01*
X15477975Y520951D01*
X15446987Y479295D01*
X15462481Y479295D01*
X15472895Y474215D01*
X15477975Y469135D01*
X15483309Y453387D01*
X15483309Y442973D01*
X15477975Y427479D01*
X15467561Y417065D01*
X15452067Y411985D01*
X15436573Y411985D01*
X15420825Y417065D01*
X15415745Y422145D01*
X15410411Y432559D01*
X12910543Y1409951D02*
G01*
X12900129Y1404871D01*
X12889715Y1394457D01*
X12884381Y1384043D01*
X12879301Y1368295D01*
X12879301Y1342387D01*
X12884381Y1326893D01*
X12889715Y1316479D01*
X12900129Y1306065D01*
X12910543Y1300985D01*
X12931371Y1300985D01*
X12941531Y1306065D01*
X12951945Y1316479D01*
X12957279Y1326893D01*
X12962359Y1342387D01*
X12962359Y1368295D01*
X12957279Y1384043D01*
X12951945Y1394457D01*
X12941531Y1404871D01*
X12931371Y1409951D01*
X12910543Y1409951D01*
X12926037Y1321559D02*
G01*
X12957279Y1290571D01*
X12996649Y1389123D02*
G01*
X13007063Y1394457D01*
X13022811Y1409951D01*
X13022811Y1300985D01*
X16777693Y2287000D02*
G01*
X16767279Y2281666D01*
X16756865Y2271252D01*
X16751785Y2261092D01*
X16751785Y2240264D01*
X16756865Y2229850D01*
X16767279Y2219436D01*
X16777693Y2214102D01*
X16793441Y2209022D01*
X16819349Y2209022D01*
X16834843Y2214102D01*
X16845257Y2219436D01*
X16855671Y2229850D01*
X16860751Y2240264D01*
X16860751Y2261092D01*
X16855671Y2271252D01*
X16845257Y2281666D01*
X16834843Y2287000D01*
X16777693Y2326370D02*
G01*
X16772613Y2326370D01*
X16762199Y2331704D01*
X16756865Y2336784D01*
X16751785Y2347198D01*
X16751785Y2368026D01*
X16756865Y2378440D01*
X16762199Y2383520D01*
X16772613Y2388854D01*
X16783027Y2388854D01*
X16793441Y2383520D01*
X16808935Y2373106D01*
X16860751Y2321290D01*
X16860751Y2393934D01*
X12449266Y2527043D02*
G01*
X12443932Y2537457D01*
X12433518Y2547871D01*
X12423358Y2552951D01*
X12402530Y2552951D01*
X12392116Y2547871D01*
X12381702Y2537457D01*
X12376368Y2527043D01*
X12371288Y2511295D01*
X12371288Y2485387D01*
X12376368Y2469893D01*
X12381702Y2459479D01*
X12392116Y2449065D01*
X12402530Y2443985D01*
X12423358Y2443985D01*
X12433518Y2449065D01*
X12443932Y2459479D01*
X12449266Y2469893D01*
X12483556Y2532123D02*
G01*
X12493970Y2537457D01*
X12509464Y2552951D01*
X12509464Y2443985D01*
X12574996Y2552951D02*
G01*
X12559248Y2547871D01*
X12549088Y2532123D01*
X12543754Y2506215D01*
X12543754Y2490721D01*
X12549088Y2464559D01*
X12559248Y2449065D01*
X12574996Y2443985D01*
X12585410Y2443985D01*
X12600904Y2449065D01*
X12611318Y2464559D01*
X12616398Y2490721D01*
X12616398Y2506215D01*
X12611318Y2532123D01*
X12600904Y2547871D01*
X12585410Y2552951D01*
X12574996Y2552951D01*
X12906466Y939543D02*
G01*
X12901132Y949957D01*
X12890718Y960371D01*
X12880558Y965451D01*
X12859730Y965451D01*
X12849316Y960371D01*
X12838902Y949957D01*
X12833568Y939543D01*
X12828488Y923795D01*
X12828488Y897887D01*
X12833568Y882393D01*
X12838902Y871979D01*
X12849316Y861565D01*
X12859730Y856485D01*
X12880558Y856485D01*
X12890718Y861565D01*
X12901132Y871979D01*
X12906466Y882393D01*
X12940756Y944623D02*
G01*
X12951170Y949957D01*
X12966664Y965451D01*
X12966664Y856485D01*
X13000954Y944623D02*
G01*
X13011368Y949957D01*
X13026862Y965451D01*
X13026862Y856485D01*
X13729185Y1243838D02*
G01*
X13838151Y1243838D01*
X13729185Y1243838D02*
G01*
X13729185Y1280160D01*
X13734265Y1295907D01*
X13744679Y1306068D01*
X13755093Y1311402D01*
X13770841Y1316481D01*
X13796749Y1316481D01*
X13812243Y1311402D01*
X13822657Y1306068D01*
X13833071Y1295907D01*
X13838151Y1280160D01*
X13838151Y1243838D01*
X13750013Y1350771D02*
G01*
X13744679Y1361186D01*
X13729185Y1376934D01*
X13838151Y1376934D01*
X14563110Y1920638D02*
G01*
X14573524Y1925972D01*
X14583938Y1936386D01*
X14589018Y1946546D01*
X14589018Y1967374D01*
X14583938Y1977788D01*
X14573524Y1988202D01*
X14563110Y1993536D01*
X14547362Y1998616D01*
X14521454Y1998616D01*
X14505960Y1993536D01*
X14495546Y1988202D01*
X14485132Y1977788D01*
X14480052Y1967374D01*
X14480052Y1946546D01*
X14485132Y1936386D01*
X14495546Y1925972D01*
X14505960Y1920638D01*
X14568190Y1886348D02*
G01*
X14573524Y1875934D01*
X14589018Y1860440D01*
X14480052Y1860440D01*
X14567893Y953500D02*
G01*
X14557479Y948166D01*
X14547065Y937752D01*
X14541985Y927592D01*
X14541985Y906764D01*
X14547065Y896350D01*
X14557479Y885936D01*
X14567893Y880602D01*
X14583641Y875522D01*
X14609549Y875522D01*
X14625043Y880602D01*
X14635457Y885936D01*
X14645871Y896350D01*
X14650951Y906764D01*
X14650951Y927592D01*
X14645871Y937752D01*
X14635457Y948166D01*
X14625043Y953500D01*
X14557479Y1050020D02*
G01*
X14547065Y1044940D01*
X14541985Y1029192D01*
X14541985Y1019032D01*
X14547065Y1003284D01*
X14562813Y992870D01*
X14588721Y987790D01*
X14614629Y987790D01*
X14635457Y992870D01*
X14645871Y1003284D01*
X14650951Y1019032D01*
X14650951Y1024112D01*
X14645871Y1039606D01*
X14635457Y1050020D01*
X14619963Y1055354D01*
X14614629Y1055354D01*
X14599135Y1050020D01*
X14588721Y1039606D01*
X14583641Y1024112D01*
X14583641Y1019032D01*
X14588721Y1003284D01*
X14599135Y992870D01*
X14614629Y987790D01*
X13135066Y1892043D02*
G01*
X13129732Y1902457D01*
X13119318Y1912871D01*
X13109158Y1917951D01*
X13088330Y1917951D01*
X13077916Y1912871D01*
X13067502Y1902457D01*
X13062168Y1892043D01*
X13057088Y1876295D01*
X13057088Y1850387D01*
X13062168Y1834893D01*
X13067502Y1824479D01*
X13077916Y1814065D01*
X13088330Y1808985D01*
X13109158Y1808985D01*
X13119318Y1814065D01*
X13129732Y1824479D01*
X13135066Y1834893D01*
X13236920Y1881629D02*
G01*
X13231586Y1866135D01*
X13221172Y1855721D01*
X13205678Y1850387D01*
X13200598Y1850387D01*
X13184850Y1855721D01*
X13174436Y1866135D01*
X13169356Y1881629D01*
X13169356Y1886709D01*
X13174436Y1902457D01*
X13184850Y1912871D01*
X13200598Y1917951D01*
X13205678Y1917951D01*
X13221172Y1912871D01*
X13231586Y1902457D01*
X13236920Y1881629D01*
X13236920Y1855721D01*
X13231586Y1829559D01*
X13221172Y1814065D01*
X13205678Y1808985D01*
X13195264Y1808985D01*
X13179770Y1814065D01*
X13174436Y1824479D01*
X19579676Y1985017D02*
G01*
X19574342Y1995431D01*
X19563928Y2005845D01*
X19553768Y2010925D01*
X19532940Y2010925D01*
X19522526Y2005845D01*
X19512112Y1995431D01*
X19506778Y1985017D01*
X19501698Y1969269D01*
X19501698Y1943361D01*
X19506778Y1927867D01*
X19512112Y1917453D01*
X19522526Y1907039D01*
X19532940Y1901959D01*
X19553768Y1901959D01*
X19563928Y1907039D01*
X19574342Y1917453D01*
X19579676Y1927867D01*
X19624380Y2010925D02*
G01*
X19681530Y2010925D01*
X19650288Y1969269D01*
X19665782Y1969269D01*
X19676196Y1964189D01*
X19681530Y1959109D01*
X19686610Y1943361D01*
X19686610Y1932947D01*
X19681530Y1917453D01*
X19671116Y1907039D01*
X19655368Y1901959D01*
X19639874Y1901959D01*
X19624380Y1907039D01*
X19619046Y1912119D01*
X19613966Y1922533D01*
X13120601Y609851D02*
G01*
X13120601Y500885D01*
X13120601Y500885D02*
G01*
X13182831Y500885D01*
X13217121Y609851D02*
G01*
X13217121Y500885D01*
X13217121Y609851D02*
G01*
X13284685Y609851D01*
X13217121Y558035D02*
G01*
X13258777Y558035D01*
X13217121Y500885D02*
G01*
X13284685Y500885D01*
X13318975Y609851D02*
G01*
X13318975Y500885D01*
X13318975Y609851D02*
G01*
X13355551Y609851D01*
X13371045Y604771D01*
X13381459Y594357D01*
X13386539Y583943D01*
X13391873Y568195D01*
X13391873Y542287D01*
X13386539Y526793D01*
X13381459Y516379D01*
X13371045Y505965D01*
X13355551Y500885D01*
X13318975Y500885D01*
X13477979Y609851D02*
G01*
X13426163Y537207D01*
X13504141Y537207D01*
X13477979Y609851D02*
G01*
X13477979Y500885D01*
X13539701Y609851D02*
G01*
X13539701Y500885D01*
X13539701Y500885D02*
G01*
X13601931Y500885D01*
X13636221Y609851D02*
G01*
X13636221Y500885D01*
X13636221Y609851D02*
G01*
X13703785Y609851D01*
X13636221Y558035D02*
G01*
X13677877Y558035D01*
X13636221Y500885D02*
G01*
X13703785Y500885D01*
X13738075Y609851D02*
G01*
X13738075Y500885D01*
X13738075Y609851D02*
G01*
X13774651Y609851D01*
X13790145Y604771D01*
X13800559Y594357D01*
X13805639Y583943D01*
X13810973Y568195D01*
X13810973Y542287D01*
X13805639Y526793D01*
X13800559Y516379D01*
X13790145Y505965D01*
X13774651Y500885D01*
X13738075Y500885D01*
X13845263Y589023D02*
G01*
X13855677Y594357D01*
X13871171Y609851D01*
X13871171Y500885D01*
X14847801Y2654551D02*
G01*
X14847801Y2576573D01*
X14852881Y2561079D01*
X14863295Y2550665D01*
X14879043Y2545585D01*
X14889457Y2545585D01*
X14904951Y2550665D01*
X14915365Y2561079D01*
X14920445Y2576573D01*
X14920445Y2654551D01*
X14954735Y2633723D02*
G01*
X14965149Y2639057D01*
X14980897Y2654551D01*
X14980897Y2545585D01*
X14924001Y1765551D02*
G01*
X14924001Y1687573D01*
X14929081Y1672079D01*
X14939495Y1661665D01*
X14955243Y1656585D01*
X14965657Y1656585D01*
X14981151Y1661665D01*
X14991565Y1672079D01*
X14996645Y1687573D01*
X14996645Y1765551D01*
X15093419Y1750057D02*
G01*
X15088085Y1760471D01*
X15072591Y1765551D01*
X15062177Y1765551D01*
X15046683Y1760471D01*
X15036269Y1744723D01*
X15030935Y1718815D01*
X15030935Y1692907D01*
X15036269Y1672079D01*
X15046683Y1661665D01*
X15062177Y1656585D01*
X15067511Y1656585D01*
X15083005Y1661665D01*
X15093419Y1672079D01*
X15098499Y1687573D01*
X15098499Y1692907D01*
X15093419Y1708401D01*
X15083005Y1718815D01*
X15067511Y1723895D01*
X15062177Y1723895D01*
X15046683Y1718815D01*
X15036269Y1708401D01*
X15030935Y1692907D01*
X15666435Y1740164D02*
G01*
X15656021Y1735084D01*
X15645607Y1724670D01*
X15640273Y1714256D01*
X15635193Y1698508D01*
X15635193Y1672600D01*
X15640273Y1657106D01*
X15645607Y1646692D01*
X15656021Y1636278D01*
X15666435Y1631198D01*
X15687263Y1631198D01*
X15697423Y1636278D01*
X15707837Y1646692D01*
X15713171Y1657106D01*
X15718251Y1672600D01*
X15718251Y1698508D01*
X15713171Y1714256D01*
X15707837Y1724670D01*
X15697423Y1735084D01*
X15687263Y1740164D01*
X15666435Y1740164D01*
X15681929Y1651772D02*
G01*
X15713171Y1620784D01*
X15757875Y1714256D02*
G01*
X15757875Y1719336D01*
X15762955Y1729750D01*
X15768289Y1735084D01*
X15778703Y1740164D01*
X15799277Y1740164D01*
X15809691Y1735084D01*
X15815025Y1729750D01*
X15820105Y1719336D01*
X15820105Y1708922D01*
X15815025Y1698508D01*
X15804611Y1683014D01*
X15752541Y1631198D01*
X15825439Y1631198D01*
X16034735Y1727464D02*
G01*
X16024321Y1722384D01*
X16013907Y1711970D01*
X16008573Y1701556D01*
X16003493Y1685808D01*
X16003493Y1659900D01*
X16008573Y1644406D01*
X16013907Y1633992D01*
X16024321Y1623578D01*
X16034735Y1618498D01*
X16055563Y1618498D01*
X16065723Y1623578D01*
X16076137Y1633992D01*
X16081471Y1644406D01*
X16086551Y1659900D01*
X16086551Y1685808D01*
X16081471Y1701556D01*
X16076137Y1711970D01*
X16065723Y1722384D01*
X16055563Y1727464D01*
X16034735Y1727464D01*
X16050229Y1639072D02*
G01*
X16081471Y1608084D01*
X16131255Y1727464D02*
G01*
X16188405Y1727464D01*
X16157163Y1685808D01*
X16172911Y1685808D01*
X16183325Y1680728D01*
X16188405Y1675648D01*
X16193739Y1659900D01*
X16193739Y1649486D01*
X16188405Y1633992D01*
X16177991Y1623578D01*
X16162497Y1618498D01*
X16147003Y1618498D01*
X16131255Y1623578D01*
X16126175Y1628658D01*
X16120841Y1639072D01*
X14936685Y940051D02*
G01*
X14936685Y831085D01*
X14936685Y940051D02*
G01*
X14983421Y940051D01*
X14998915Y934971D01*
X15004249Y929637D01*
X15009329Y919223D01*
X15009329Y908809D01*
X15004249Y898395D01*
X14998915Y893315D01*
X14983421Y888235D01*
X14936685Y888235D01*
X14973007Y888235D02*
G01*
X15009329Y831085D01*
X15095689Y940051D02*
G01*
X15043619Y867407D01*
X15121597Y867407D01*
X15095689Y940051D02*
G01*
X15095689Y831085D01*
X14949385Y749551D02*
G01*
X14949385Y640585D01*
X14949385Y749551D02*
G01*
X14996121Y749551D01*
X15011615Y744471D01*
X15016949Y739137D01*
X15022029Y728723D01*
X15022029Y718309D01*
X15016949Y707895D01*
X15011615Y702815D01*
X14996121Y697735D01*
X14949385Y697735D01*
X14985707Y697735D02*
G01*
X15022029Y640585D01*
X15066733Y749551D02*
G01*
X15123883Y749551D01*
X15092895Y707895D01*
X15108389Y707895D01*
X15118803Y702815D01*
X15123883Y697735D01*
X15129217Y681987D01*
X15129217Y671573D01*
X15123883Y656079D01*
X15113469Y645665D01*
X15097975Y640585D01*
X15082481Y640585D01*
X15066733Y645665D01*
X15061653Y650745D01*
X15056319Y661159D01*
X17959301Y2980941D02*
G01*
X17959301Y2902963D01*
X17964381Y2887469D01*
X17974795Y2877055D01*
X17990543Y2871975D01*
X18000957Y2871975D01*
X18016451Y2877055D01*
X18026865Y2887469D01*
X18031945Y2902963D01*
X18031945Y2980941D01*
X18071569Y2955033D02*
G01*
X18071569Y2960113D01*
X18076649Y2970527D01*
X18081983Y2975861D01*
X18092397Y2980941D01*
X18112971Y2980941D01*
X18123385Y2975861D01*
X18128719Y2970527D01*
X18133799Y2960113D01*
X18133799Y2949699D01*
X18128719Y2939285D01*
X18118305Y2923791D01*
X18066235Y2871975D01*
X18139133Y2871975D01*
X20678879Y964943D02*
G01*
X20673545Y975357D01*
X20663131Y985771D01*
X20652971Y990851D01*
X20632143Y990851D01*
X20621729Y985771D01*
X20611315Y975357D01*
X20605981Y964943D01*
X20600901Y949195D01*
X20600901Y923287D01*
X20605981Y907793D01*
X20611315Y897379D01*
X20621729Y886965D01*
X20632143Y881885D01*
X20652971Y881885D01*
X20663131Y886965D01*
X20673545Y897379D01*
X20678879Y907793D01*
X20754571Y990851D02*
G01*
X20713169Y881885D01*
X20754571Y990851D02*
G01*
X20796227Y881885D01*
X20728663Y918207D02*
G01*
X20780733Y918207D01*
X20830517Y990851D02*
G01*
X20830517Y881885D01*
X20830517Y990851D02*
G01*
X20877253Y990851D01*
X20893001Y985771D01*
X20898081Y980437D01*
X20903161Y970023D01*
X20903161Y959609D01*
X20898081Y949195D01*
X20893001Y944115D01*
X20877253Y939035D01*
X20830517Y939035D01*
X20866839Y939035D02*
G01*
X20903161Y881885D01*
X20937451Y990851D02*
G01*
X20937451Y881885D01*
X20937451Y990851D02*
G01*
X20974027Y990851D01*
X20989521Y985771D01*
X20999935Y975357D01*
X21005015Y964943D01*
X21010349Y949195D01*
X21010349Y923287D01*
X21005015Y907793D01*
X20999935Y897379D01*
X20989521Y886965D01*
X20974027Y881885D01*
X20937451Y881885D01*
X21044639Y970023D02*
G01*
X21055053Y975357D01*
X21070547Y990851D01*
X21070547Y881885D01*
X485866Y2819143D02*
G01*
X480532Y2829557D01*
X470118Y2839971D01*
X459958Y2845051D01*
X439130Y2845051D01*
X428716Y2839971D01*
X418302Y2829557D01*
X412968Y2819143D01*
X407888Y2803395D01*
X407888Y2777487D01*
X412968Y2761993D01*
X418302Y2751579D01*
X428716Y2741165D01*
X439130Y2736085D01*
X459958Y2736085D01*
X470118Y2741165D01*
X480532Y2751579D01*
X485866Y2761993D01*
X520156Y2824223D02*
G01*
X530570Y2829557D01*
X546064Y2845051D01*
X546064Y2736085D01*
X652998Y2845051D02*
G01*
X601182Y2736085D01*
X580354Y2845051D02*
G01*
X652998Y2845051D01*
X13410786Y2420957D02*
G01*
X13519752Y2420957D01*
X13410786Y2420957D02*
G01*
X13410786Y2467693D01*
X13415866Y2483187D01*
X13421200Y2488521D01*
X13431614Y2493601D01*
X13442028Y2493601D01*
X13452442Y2488521D01*
X13457522Y2483187D01*
X13462602Y2467693D01*
X13462602Y2420957D01*
X13462602Y2457279D02*
G01*
X13519752Y2493601D01*
X13447108Y2595455D02*
G01*
X13462602Y2590375D01*
X13473016Y2579961D01*
X13478350Y2564467D01*
X13478350Y2559133D01*
X13473016Y2543639D01*
X13462602Y2533225D01*
X13447108Y2527891D01*
X13442028Y2527891D01*
X13426280Y2533225D01*
X13415866Y2543639D01*
X13410786Y2559133D01*
X13410786Y2564467D01*
X13415866Y2579961D01*
X13426280Y2590375D01*
X13447108Y2595455D01*
X13473016Y2595455D01*
X13499178Y2590375D01*
X13514672Y2579961D01*
X13519752Y2564467D01*
X13519752Y2554053D01*
X13514672Y2538305D01*
X13504258Y2533225D01*
X13677486Y2370157D02*
G01*
X13786452Y2370157D01*
X13677486Y2370157D02*
G01*
X13677486Y2416893D01*
X13682566Y2432387D01*
X13687900Y2437721D01*
X13698314Y2442801D01*
X13708728Y2442801D01*
X13719142Y2437721D01*
X13724222Y2432387D01*
X13729302Y2416893D01*
X13729302Y2370157D01*
X13729302Y2406479D02*
G01*
X13786452Y2442801D01*
X13698314Y2477091D02*
G01*
X13692980Y2487505D01*
X13677486Y2503253D01*
X13786452Y2503253D01*
X13677486Y2568531D02*
G01*
X13682566Y2553037D01*
X13698314Y2542623D01*
X13724222Y2537543D01*
X13739716Y2537543D01*
X13765878Y2542623D01*
X13781372Y2553037D01*
X13786452Y2568531D01*
X13786452Y2578945D01*
X13781372Y2594693D01*
X13765878Y2605107D01*
X13739716Y2610187D01*
X13724222Y2610187D01*
X13698314Y2605107D01*
X13682566Y2594693D01*
X13677486Y2578945D01*
X13677486Y2568531D01*
X13413099Y1093825D02*
G01*
X13413099Y984859D01*
X13413099Y1093825D02*
G01*
X13459835Y1093825D01*
X13475329Y1088745D01*
X13480663Y1083411D01*
X13485743Y1072997D01*
X13485743Y1062583D01*
X13480663Y1052169D01*
X13475329Y1047089D01*
X13459835Y1042009D01*
X13413099Y1042009D01*
X13449421Y1042009D02*
G01*
X13485743Y984859D01*
X13520033Y1072997D02*
G01*
X13530447Y1078331D01*
X13546195Y1093825D01*
X13546195Y984859D01*
X13580485Y1072997D02*
G01*
X13590899Y1078331D01*
X13606393Y1093825D01*
X13606393Y984859D01*
X15444193Y2718813D02*
G01*
X15433779Y2713479D01*
X15423365Y2703065D01*
X15418285Y2692905D01*
X15418285Y2672077D01*
X15423365Y2661663D01*
X15433779Y2651249D01*
X15444193Y2645915D01*
X15459941Y2640835D01*
X15485849Y2640835D01*
X15501343Y2645915D01*
X15511757Y2651249D01*
X15522171Y2661663D01*
X15527251Y2672077D01*
X15527251Y2692905D01*
X15522171Y2703065D01*
X15511757Y2713479D01*
X15501343Y2718813D01*
X15439113Y2753103D02*
G01*
X15433779Y2763517D01*
X15418285Y2779011D01*
X15527251Y2779011D01*
X15454607Y2880865D02*
G01*
X15470101Y2875785D01*
X15480515Y2865371D01*
X15485849Y2849623D01*
X15485849Y2844543D01*
X15480515Y2828795D01*
X15470101Y2818635D01*
X15454607Y2813301D01*
X15449527Y2813301D01*
X15433779Y2818635D01*
X15423365Y2828795D01*
X15418285Y2844543D01*
X15418285Y2849623D01*
X15423365Y2865371D01*
X15433779Y2875785D01*
X15454607Y2880865D01*
X15480515Y2880865D01*
X15506677Y2875785D01*
X15522171Y2865371D01*
X15527251Y2849623D01*
X15527251Y2839209D01*
X15522171Y2823715D01*
X15511757Y2818635D01*
X879579Y1917443D02*
G01*
X874245Y1927857D01*
X863831Y1938271D01*
X853671Y1943351D01*
X832843Y1943351D01*
X822429Y1938271D01*
X812015Y1927857D01*
X806681Y1917443D01*
X801601Y1901695D01*
X801601Y1875787D01*
X806681Y1860293D01*
X812015Y1849879D01*
X822429Y1839465D01*
X832843Y1834385D01*
X853671Y1834385D01*
X863831Y1839465D01*
X874245Y1849879D01*
X879579Y1860293D01*
X913869Y1922523D02*
G01*
X924283Y1927857D01*
X939777Y1943351D01*
X939777Y1834385D01*
X1036551Y1943351D02*
G01*
X984481Y1943351D01*
X979401Y1896615D01*
X984481Y1901695D01*
X999975Y1907029D01*
X1015723Y1907029D01*
X1031217Y1901695D01*
X1041631Y1891535D01*
X1046711Y1875787D01*
X1046711Y1865373D01*
X1041631Y1849879D01*
X1031217Y1839465D01*
X1015723Y1834385D01*
X999975Y1834385D01*
X984481Y1839465D01*
X979401Y1844545D01*
X974067Y1854959D01*
X32299379Y3047743D02*
G01*
X32294045Y3058157D01*
X32283631Y3068571D01*
X32273471Y3073651D01*
X32252643Y3073651D01*
X32242229Y3068571D01*
X32231815Y3058157D01*
X32226481Y3047743D01*
X32221401Y3031995D01*
X32221401Y3006087D01*
X32226481Y2990593D01*
X32231815Y2980179D01*
X32242229Y2969765D01*
X32252643Y2964685D01*
X32273471Y2964685D01*
X32283631Y2969765D01*
X32294045Y2980179D01*
X32299379Y2990593D01*
X32359577Y3073651D02*
G01*
X32344083Y3068571D01*
X32338749Y3058157D01*
X32338749Y3047743D01*
X32344083Y3037329D01*
X32354497Y3031995D01*
X32375071Y3026915D01*
X32390819Y3021835D01*
X32401233Y3011421D01*
X32406313Y3001007D01*
X32406313Y2985259D01*
X32401233Y2974845D01*
X32395899Y2969765D01*
X32380405Y2964685D01*
X32359577Y2964685D01*
X32344083Y2969765D01*
X32338749Y2974845D01*
X32333669Y2985259D01*
X32333669Y3001007D01*
X32338749Y3011421D01*
X32349163Y3021835D01*
X32364911Y3026915D01*
X32385485Y3031995D01*
X32395899Y3037329D01*
X32401233Y3047743D01*
X32401233Y3058157D01*
X32395899Y3068571D01*
X32380405Y3073651D01*
X32359577Y3073651D01*
X32388279Y1993643D02*
G01*
X32382945Y2004057D01*
X32372531Y2014471D01*
X32362371Y2019551D01*
X32341543Y2019551D01*
X32331129Y2014471D01*
X32320715Y2004057D01*
X32315381Y1993643D01*
X32310301Y1977895D01*
X32310301Y1951987D01*
X32315381Y1936493D01*
X32320715Y1926079D01*
X32331129Y1915665D01*
X32341543Y1910585D01*
X32362371Y1910585D01*
X32372531Y1915665D01*
X32382945Y1926079D01*
X32388279Y1936493D01*
X32422569Y1998723D02*
G01*
X32432983Y2004057D01*
X32448477Y2019551D01*
X32448477Y1910585D01*
X32488101Y1993643D02*
G01*
X32488101Y1998723D01*
X32493181Y2009137D01*
X32498261Y2014471D01*
X32508675Y2019551D01*
X32529503Y2019551D01*
X32539917Y2014471D01*
X32545251Y2009137D01*
X32550331Y1998723D01*
X32550331Y1988309D01*
X32545251Y1977895D01*
X32534837Y1962401D01*
X32482767Y1910585D01*
X32555411Y1910585D01*
X320779Y2946143D02*
G01*
X315445Y2956557D01*
X305031Y2966971D01*
X294871Y2972051D01*
X274043Y2972051D01*
X263629Y2966971D01*
X253215Y2956557D01*
X247881Y2946143D01*
X242801Y2930395D01*
X242801Y2904487D01*
X247881Y2888993D01*
X253215Y2878579D01*
X263629Y2868165D01*
X274043Y2863085D01*
X294871Y2863085D01*
X305031Y2868165D01*
X315445Y2878579D01*
X320779Y2888993D01*
X355069Y2951223D02*
G01*
X365483Y2956557D01*
X380977Y2972051D01*
X380977Y2863085D01*
X441175Y2972051D02*
G01*
X425681Y2966971D01*
X420601Y2956557D01*
X420601Y2946143D01*
X425681Y2935729D01*
X436095Y2930395D01*
X456923Y2925315D01*
X472417Y2920235D01*
X482831Y2909821D01*
X487911Y2899407D01*
X487911Y2883659D01*
X482831Y2873245D01*
X477751Y2868165D01*
X462003Y2863085D01*
X441175Y2863085D01*
X425681Y2868165D01*
X420601Y2873245D01*
X415267Y2883659D01*
X415267Y2899407D01*
X420601Y2909821D01*
X430761Y2920235D01*
X446509Y2925315D01*
X467337Y2930395D01*
X477751Y2935729D01*
X482831Y2946143D01*
X482831Y2956557D01*
X477751Y2966971D01*
X462003Y2972051D01*
X441175Y2972051D01*
X15952701Y470164D02*
G01*
X15952701Y361198D01*
X15952701Y361198D02*
G01*
X16014931Y361198D01*
X16049221Y470164D02*
G01*
X16049221Y361198D01*
X16049221Y470164D02*
G01*
X16116785Y470164D01*
X16049221Y418348D02*
G01*
X16090877Y418348D01*
X16049221Y361198D02*
G01*
X16116785Y361198D01*
X16151075Y470164D02*
G01*
X16151075Y361198D01*
X16151075Y470164D02*
G01*
X16187651Y470164D01*
X16203145Y465084D01*
X16213559Y454670D01*
X16218639Y444256D01*
X16223973Y428508D01*
X16223973Y402600D01*
X16218639Y387106D01*
X16213559Y376692D01*
X16203145Y366278D01*
X16187651Y361198D01*
X16151075Y361198D01*
X16268677Y470164D02*
G01*
X16325827Y470164D01*
X16294585Y428508D01*
X16310079Y428508D01*
X16320493Y423428D01*
X16325827Y418348D01*
X16330907Y402600D01*
X16330907Y392186D01*
X16325827Y376692D01*
X16315413Y366278D01*
X16299665Y361198D01*
X16284171Y361198D01*
X16268677Y366278D01*
X16263343Y371358D01*
X16258263Y381772D01*
X16233117Y1408935D02*
G01*
X16124151Y1408935D01*
X16233117Y1408935D02*
G01*
X16233117Y1362199D01*
X16228037Y1346705D01*
X16222703Y1341371D01*
X16212289Y1336291D01*
X16201875Y1336291D01*
X16191461Y1341371D01*
X16186381Y1346705D01*
X16181301Y1362199D01*
X16181301Y1408935D01*
X16181301Y1372613D02*
G01*
X16124151Y1336291D01*
X16212289Y1302001D02*
G01*
X16217623Y1291587D01*
X16233117Y1275839D01*
X16124151Y1275839D01*
X15966417Y1413827D02*
G01*
X15857451Y1413827D01*
X15966417Y1413827D02*
G01*
X15966417Y1367091D01*
X15961337Y1351597D01*
X15956003Y1346263D01*
X15945589Y1341183D01*
X15935175Y1341183D01*
X15924761Y1346263D01*
X15919681Y1351597D01*
X15914601Y1367091D01*
X15914601Y1413827D01*
X15914601Y1377505D02*
G01*
X15857451Y1341183D01*
X15940509Y1301559D02*
G01*
X15945589Y1301559D01*
X15956003Y1296479D01*
X15961337Y1291145D01*
X15966417Y1280731D01*
X15966417Y1260157D01*
X15961337Y1249743D01*
X15956003Y1244409D01*
X15945589Y1239329D01*
X15935175Y1239329D01*
X15924761Y1244409D01*
X15909267Y1254823D01*
X15857451Y1306893D01*
X15857451Y1233995D01*
X12180801Y1638551D02*
G01*
X12180801Y1529585D01*
X12180801Y1638551D02*
G01*
X12227537Y1638551D01*
X12243031Y1633471D01*
X12248365Y1628137D01*
X12253445Y1617723D01*
X12253445Y1607309D01*
X12248365Y1596895D01*
X12243031Y1591815D01*
X12227537Y1586735D01*
X12180801Y1586735D01*
X12217123Y1586735D02*
G01*
X12253445Y1529585D01*
X12313897Y1638551D02*
G01*
X12298149Y1633471D01*
X12293069Y1623057D01*
X12293069Y1612643D01*
X12298149Y1602229D01*
X12308563Y1596895D01*
X12329391Y1591815D01*
X12344885Y1586735D01*
X12355299Y1576321D01*
X12360633Y1565907D01*
X12360633Y1550159D01*
X12355299Y1539745D01*
X12350219Y1534665D01*
X12334471Y1529585D01*
X12313897Y1529585D01*
X12298149Y1534665D01*
X12293069Y1539745D01*
X12287735Y1550159D01*
X12287735Y1565907D01*
X12293069Y1576321D01*
X12303483Y1586735D01*
X12318977Y1591815D01*
X12339805Y1596895D01*
X12350219Y1602229D01*
X12355299Y1612643D01*
X12355299Y1623057D01*
X12350219Y1633471D01*
X12334471Y1638551D01*
X12313897Y1638551D01*
X12434801Y1651251D02*
G01*
X12434801Y1542285D01*
X12434801Y1651251D02*
G01*
X12481537Y1651251D01*
X12497031Y1646171D01*
X12502365Y1640837D01*
X12507445Y1630423D01*
X12507445Y1620009D01*
X12502365Y1609595D01*
X12497031Y1604515D01*
X12481537Y1599435D01*
X12434801Y1599435D01*
X12471123Y1599435D02*
G01*
X12507445Y1542285D01*
X12541735Y1630423D02*
G01*
X12552149Y1635757D01*
X12567897Y1651251D01*
X12567897Y1542285D01*
X12664417Y1651251D02*
G01*
X12612601Y1651251D01*
X12607267Y1604515D01*
X12612601Y1609595D01*
X12628095Y1614929D01*
X12643589Y1614929D01*
X12659337Y1609595D01*
X12669751Y1599435D01*
X12674831Y1583687D01*
X12674831Y1573273D01*
X12669751Y1557779D01*
X12659337Y1547365D01*
X12643589Y1542285D01*
X12628095Y1542285D01*
X12612601Y1547365D01*
X12607267Y1552445D01*
X12602187Y1562859D01*
X13636200Y1088824D02*
G01*
X13636200Y979858D01*
X13636200Y1088824D02*
G01*
X13682936Y1088824D01*
X13698430Y1083744D01*
X13703764Y1078410D01*
X13708844Y1067996D01*
X13708844Y1057582D01*
X13703764Y1047168D01*
X13698430Y1042088D01*
X13682936Y1037008D01*
X13636200Y1037008D01*
X13672522Y1037008D02*
G01*
X13708844Y979858D01*
X13816032Y1088824D02*
G01*
X13763962Y979858D01*
X13743134Y1088824D02*
G01*
X13816032Y1088824D01*
X13184101Y1092451D02*
G01*
X13184101Y983485D01*
X13184101Y1092451D02*
G01*
X13230837Y1092451D01*
X13246331Y1087371D01*
X13251665Y1082037D01*
X13256745Y1071623D01*
X13256745Y1061209D01*
X13251665Y1050795D01*
X13246331Y1045715D01*
X13230837Y1040635D01*
X13184101Y1040635D01*
X13220423Y1040635D02*
G01*
X13256745Y983485D01*
X13353519Y1076957D02*
G01*
X13348185Y1087371D01*
X13332691Y1092451D01*
X13322277Y1092451D01*
X13306783Y1087371D01*
X13296369Y1071623D01*
X13291035Y1045715D01*
X13291035Y1019807D01*
X13296369Y998979D01*
X13306783Y988565D01*
X13322277Y983485D01*
X13327611Y983485D01*
X13343105Y988565D01*
X13353519Y998979D01*
X13358599Y1014473D01*
X13358599Y1019807D01*
X13353519Y1035301D01*
X13343105Y1045715D01*
X13327611Y1050795D01*
X13322277Y1050795D01*
X13306783Y1045715D01*
X13296369Y1035301D01*
X13291035Y1019807D01*
X14555701Y368551D02*
G01*
X14555701Y290573D01*
X14560781Y275079D01*
X14571195Y264665D01*
X14586943Y259585D01*
X14597357Y259585D01*
X14612851Y264665D01*
X14623265Y275079D01*
X14628345Y290573D01*
X14628345Y368551D01*
X14735533Y353057D02*
G01*
X14725119Y363471D01*
X14709371Y368551D01*
X14688797Y368551D01*
X14673049Y363471D01*
X14662635Y353057D01*
X14662635Y342643D01*
X14667969Y332229D01*
X14673049Y326895D01*
X14683463Y321815D01*
X14714705Y311401D01*
X14725119Y306321D01*
X14730199Y300987D01*
X14735533Y290573D01*
X14735533Y275079D01*
X14725119Y264665D01*
X14709371Y259585D01*
X14688797Y259585D01*
X14673049Y264665D01*
X14662635Y275079D01*
X14769823Y368551D02*
G01*
X14769823Y259585D01*
X14769823Y368551D02*
G01*
X14816559Y368551D01*
X14832053Y363471D01*
X14837387Y358137D01*
X14842467Y347723D01*
X14842467Y337309D01*
X14837387Y326895D01*
X14832053Y321815D01*
X14816559Y316735D01*
X14769823Y316735D02*
G01*
X14816559Y316735D01*
X14832053Y311401D01*
X14837387Y306321D01*
X14842467Y295907D01*
X14842467Y280159D01*
X14837387Y269745D01*
X14832053Y264665D01*
X14816559Y259585D01*
X14769823Y259585D01*
X14882091Y342643D02*
G01*
X14882091Y347723D01*
X14887171Y358137D01*
X14892251Y363471D01*
X14902665Y368551D01*
X14923493Y368551D01*
X14933907Y363471D01*
X14939241Y358137D01*
X14944321Y347723D01*
X14944321Y337309D01*
X14939241Y326895D01*
X14928827Y311401D01*
X14876757Y259585D01*
X14949401Y259585D01*
G36*
X16235781Y80162D02*
G01*
X16185794Y30124D01*
X16235781Y30124D01*
G37*
D10*
X16020793Y2271336D02*
G01*
X16130899Y2271336D01*
X16020796Y2121334D02*
G01*
X16130899Y2121334D01*
X15960735Y2270826D02*
G01*
X15850702Y2270826D01*
X15960735Y2120823D02*
G01*
X15850702Y2120823D01*
X15850702Y2121334D02*
G01*
X15850737Y2271336D01*
X16130798Y2121334D02*
G01*
X16130798Y2271336D01*
X15948108Y2388034D02*
G01*
X15838002Y2388034D01*
X15948106Y2538036D02*
G01*
X15838002Y2538036D01*
X16008167Y2388544D02*
G01*
X16118199Y2388544D01*
X16008167Y2538547D02*
G01*
X16118199Y2538547D01*
X16118199Y2538036D02*
G01*
X16118164Y2388034D01*
X15838104Y2538036D02*
G01*
X15838104Y2388034D01*
X15966600Y664227D02*
G01*
X15966600Y774334D01*
X16116602Y664230D02*
G01*
X16116602Y774334D01*
X15967110Y604169D02*
G01*
X15967110Y494136D01*
X16117112Y604169D02*
G01*
X16117112Y494136D01*
X16116602Y494136D02*
G01*
X15966600Y494172D01*
X16116602Y774232D02*
G01*
X15966600Y774232D01*
X20723308Y1854634D02*
G01*
X20613202Y1854634D01*
X20723306Y2004636D02*
G01*
X20613202Y2004636D01*
X20783367Y1855144D02*
G01*
X20893399Y1855144D01*
X20783367Y2005147D02*
G01*
X20893399Y2005147D01*
X20893399Y2004636D02*
G01*
X20893364Y1854634D01*
X20613304Y2004636D02*
G01*
X20613304Y1854634D01*
X16080900Y2785127D02*
G01*
X16080900Y2895234D01*
X16230902Y2785130D02*
G01*
X16230902Y2895234D01*
X16081410Y2725069D02*
G01*
X16081410Y2615036D01*
X16231412Y2725069D02*
G01*
X16231412Y2615036D01*
X16230902Y2615036D02*
G01*
X16080900Y2615072D01*
X16230902Y2895132D02*
G01*
X16080900Y2895132D01*
X15738000Y2772427D02*
G01*
X15738000Y2882534D01*
X15888002Y2772430D02*
G01*
X15888002Y2882534D01*
X15738510Y2712369D02*
G01*
X15738510Y2602336D01*
X15888512Y2712369D02*
G01*
X15888512Y2602336D01*
X15888002Y2602336D02*
G01*
X15738000Y2602372D01*
X15888002Y2882432D02*
G01*
X15738000Y2882432D01*
X12944000Y2785127D02*
G01*
X12944000Y2895234D01*
X13094002Y2785130D02*
G01*
X13094002Y2895234D01*
X12944510Y2725069D02*
G01*
X12944510Y2615036D01*
X13094512Y2725069D02*
G01*
X13094512Y2615036D01*
X13094002Y2615036D02*
G01*
X12944000Y2615072D01*
X13094002Y2895132D02*
G01*
X12944000Y2895132D01*
X12639200Y2785127D02*
G01*
X12639200Y2895234D01*
X12789202Y2785130D02*
G01*
X12789202Y2895234D01*
X12639710Y2725069D02*
G01*
X12639710Y2615036D01*
X12789712Y2725069D02*
G01*
X12789712Y2615036D01*
X12789202Y2615036D02*
G01*
X12639200Y2615072D01*
X12789202Y2895132D02*
G01*
X12639200Y2895132D01*
X14529102Y2737843D02*
G01*
X14529102Y2627736D01*
X14379100Y2737840D02*
G01*
X14379100Y2627736D01*
X14528591Y2797901D02*
G01*
X14528591Y2907934D01*
X14378589Y2797901D02*
G01*
X14378589Y2907934D01*
X14379100Y2907934D02*
G01*
X14529102Y2907898D01*
X14379100Y2627838D02*
G01*
X14529102Y2627838D01*
X12660416Y2056973D02*
G01*
X12660416Y1876973D01*
X12465413Y2056973D02*
G01*
X12545415Y2056973D01*
X12350414Y2056973D02*
G01*
X12350414Y1876973D01*
X13383232Y2132835D02*
G01*
X13103324Y2132835D01*
X13103324Y2132835D02*
G01*
X13103324Y2232911D01*
X13383232Y2232911D01*
X13383232Y2132835D01*
X33210802Y2471143D02*
G01*
X33210802Y2361036D01*
X33060800Y2471140D02*
G01*
X33060800Y2361036D01*
X33210291Y2531201D02*
G01*
X33210291Y2641234D01*
X33060289Y2531201D02*
G01*
X33060289Y2641234D01*
X33060800Y2641234D02*
G01*
X33210802Y2641198D01*
X33060800Y2361138D02*
G01*
X33210802Y2361138D01*
X254302Y2407643D02*
G01*
X254302Y2297536D01*
X104300Y2407640D02*
G01*
X104300Y2297536D01*
X253791Y2467701D02*
G01*
X253791Y2577734D01*
X103789Y2467701D02*
G01*
X103789Y2577734D01*
X104300Y2577734D02*
G01*
X254302Y2577698D01*
X104300Y2297638D02*
G01*
X254302Y2297638D01*
X32589800Y2784033D02*
G01*
X32589800Y2904035D01*
X32794798Y2764033D02*
G01*
X32894800Y2764033D01*
X32794798Y2924037D02*
G01*
X32894800Y2924037D01*
X32714791Y2764033D02*
G01*
X32614801Y2764033D01*
X32714791Y2924037D02*
G01*
X32614801Y2924037D01*
X32919802Y2784033D02*
G01*
X32919802Y2904035D01*
X32899802Y2764033D02*
G01*
X32894800Y2764033D01*
X32899799Y2924037D02*
G01*
X32894800Y2924037D01*
X32609800Y2764033D02*
G01*
X32614801Y2764033D01*
X32609802Y2924037D02*
G01*
X32614801Y2924037D01*
X32659236Y2185512D02*
G01*
X32659236Y2065510D01*
X32454237Y2205512D02*
G01*
X32354235Y2205512D01*
X32454237Y2045507D02*
G01*
X32354235Y2045507D01*
X32534245Y2205512D02*
G01*
X32634235Y2205512D01*
X32534245Y2045507D02*
G01*
X32634235Y2045507D01*
X32329234Y2185512D02*
G01*
X32329234Y2065510D01*
X32349234Y2205512D02*
G01*
X32354235Y2205512D01*
X32349236Y2045507D02*
G01*
X32354235Y2045507D01*
X32639236Y2205512D02*
G01*
X32634235Y2205512D01*
X32639233Y2045507D02*
G01*
X32634235Y2045507D01*
X651974Y1988708D02*
G01*
X651974Y2108710D01*
X856973Y1968708D02*
G01*
X956975Y1968708D01*
X856973Y2128713D02*
G01*
X956975Y2128713D01*
X776965Y1968708D02*
G01*
X676976Y1968708D01*
X776965Y2128713D02*
G01*
X676976Y2128713D01*
X981976Y1988708D02*
G01*
X981976Y2108710D01*
X961976Y1968708D02*
G01*
X956975Y1968708D01*
X961974Y2128713D02*
G01*
X956975Y2128713D01*
X671974Y1968708D02*
G01*
X676976Y1968708D01*
X671977Y2128713D02*
G01*
X676976Y2128713D01*
X15340685Y2395260D02*
G01*
X15340685Y2515262D01*
X15545683Y2375260D02*
G01*
X15645686Y2375260D01*
X15545683Y2535265D02*
G01*
X15645686Y2535265D01*
X15465676Y2375260D02*
G01*
X15365686Y2375260D01*
X15465676Y2535265D02*
G01*
X15365686Y2535265D01*
X15670687Y2395260D02*
G01*
X15670687Y2515262D01*
X15650687Y2375260D02*
G01*
X15645686Y2375260D01*
X15650685Y2535265D02*
G01*
X15645686Y2535265D01*
X15360685Y2375260D02*
G01*
X15365686Y2375260D01*
X15360688Y2535265D02*
G01*
X15365686Y2535265D01*
X15750453Y962962D02*
G01*
X15830456Y962962D01*
X15861436Y851982D02*
G01*
X15861436Y931981D01*
X15750453Y820999D02*
G01*
X15830456Y820999D01*
X15692864Y963546D02*
G01*
X15612869Y963546D01*
X15692864Y821583D02*
G01*
X15612869Y821583D01*
X15581886Y852563D02*
G01*
X15581886Y932566D01*
X15750453Y708962D02*
G01*
X15830456Y708962D01*
X15861436Y597982D02*
G01*
X15861436Y677981D01*
X15750453Y566999D02*
G01*
X15830456Y566999D01*
X15692864Y709546D02*
G01*
X15612869Y709546D01*
X15692864Y567583D02*
G01*
X15612869Y567583D01*
X15581886Y598563D02*
G01*
X15581886Y678566D01*
X12737114Y-81178D02*
G01*
X12737114Y58821D01*
X12607112Y-81178D02*
G01*
X12607112Y58821D01*
X12737114Y-81178D02*
G01*
X12607112Y-81178D01*
X13229313Y58821D02*
G01*
X12314697Y58821D01*
X13280113Y265605D02*
G01*
X13280113Y156837D01*
X12264113Y265605D02*
G01*
X12264113Y156837D01*
X12413998Y363621D02*
G01*
X12314697Y363621D01*
X12563998Y363621D02*
G01*
X12530228Y363621D01*
X12863997Y363621D02*
G01*
X12680226Y363621D01*
X13013999Y363621D02*
G01*
X12980225Y363621D01*
X13229529Y363621D02*
G01*
X13130227Y363621D01*
X12673764Y1074574D02*
G01*
X12648760Y1074574D01*
X12673764Y1074574D02*
G01*
X12399378Y1074574D01*
X12173150Y1074574D02*
G01*
X12162513Y1074574D01*
X12162513Y649571D01*
X12173150Y649571D01*
X12399378Y649571D02*
G01*
X12673764Y649571D01*
X12673764Y649571D02*
G01*
X12673764Y758959D01*
X12673764Y965187D02*
G01*
X12673764Y1074574D01*
X20558000Y2226536D02*
G01*
X19958001Y2226536D01*
X19958001Y2826534D01*
X20558000Y2826534D01*
X20558000Y2226536D01*
X32852799Y2338435D02*
G01*
X32813211Y2338435D01*
X32441984Y2338435D02*
G01*
X32402800Y2338435D01*
X32402800Y2338435D02*
G01*
X32402800Y2452844D01*
X32402800Y2524025D02*
G01*
X32402800Y2638435D01*
X32402800Y2638435D02*
G01*
X32441984Y2638435D01*
X32813211Y2638435D02*
G01*
X32852799Y2638435D01*
X32852799Y2638435D02*
G01*
X32852799Y2524025D01*
X32852799Y2452844D02*
G01*
X32852799Y2338435D01*
X487702Y2587635D02*
G01*
X527291Y2587635D01*
X898517Y2587635D02*
G01*
X937702Y2587635D01*
X937702Y2587635D02*
G01*
X937702Y2473225D01*
X937702Y2402044D02*
G01*
X937702Y2287635D01*
X937702Y2287635D02*
G01*
X898517Y2287635D01*
X527291Y2287635D02*
G01*
X487702Y2287635D01*
X487702Y2287635D02*
G01*
X487702Y2402044D01*
X487702Y2473225D02*
G01*
X487702Y2587635D01*
X15342186Y75468D02*
G01*
X15342186Y5468D01*
X15542186Y75468D02*
G01*
X15542186Y5468D01*
X15317190Y5468D02*
G01*
X15567190Y5466D01*
X15365986Y266265D02*
G01*
X15518386Y266265D01*
X15518386Y164665D01*
X15365986Y164665D01*
X15365986Y266265D01*
X15642186Y208569D02*
G01*
X15642186Y222361D01*
X15571520Y355762D02*
G01*
X15550301Y355762D01*
X15334074Y355762D02*
G01*
X15312852Y355762D01*
X15242186Y222361D02*
G01*
X15242186Y208569D01*
X15313002Y75468D02*
G01*
X15571370Y75468D01*
X13177014Y1424680D02*
G01*
X13177014Y1490672D01*
X13177014Y1424680D01*
X13177014Y1490672D01*
X13258523Y1490672D01*
X13258523Y1198671D02*
G01*
X13177014Y1198671D01*
X13177014Y1264665D01*
D50*
X13332005Y1314678D02*
G01*
X13332005Y1374668D01*
D10*
X16876303Y1853534D02*
G01*
X16756301Y1853534D01*
X16896303Y2058532D02*
G01*
X16896303Y2158535D01*
X16736298Y2058532D02*
G01*
X16736298Y2158535D01*
X16896303Y1978525D02*
G01*
X16896303Y1878535D01*
X16736298Y1978525D02*
G01*
X16736298Y1878535D01*
X16876303Y2183536D02*
G01*
X16756301Y2183536D01*
X16896303Y2163536D02*
G01*
X16896303Y2158535D01*
X16736298Y2163533D02*
G01*
X16736298Y2158535D01*
X16896303Y1873534D02*
G01*
X16896303Y1878535D01*
X16736298Y1873537D02*
G01*
X16736298Y1878535D01*
X12340412Y2262571D02*
G01*
X12340412Y2382573D01*
X12545410Y2242571D02*
G01*
X12645412Y2242571D01*
X12545410Y2402575D02*
G01*
X12645412Y2402575D01*
X12465403Y2242571D02*
G01*
X12365413Y2242571D01*
X12465403Y2402575D02*
G01*
X12365413Y2402575D01*
X12670414Y2262571D02*
G01*
X12670414Y2382573D01*
X12650414Y2242571D02*
G01*
X12645412Y2242571D01*
X12650411Y2402575D02*
G01*
X12645412Y2402575D01*
X12360412Y2242571D02*
G01*
X12365413Y2242571D01*
X12360414Y2402575D02*
G01*
X12365413Y2402575D01*
X13241914Y807775D02*
G01*
X13241914Y687773D01*
X13036915Y827775D02*
G01*
X12936913Y827775D01*
X13036915Y667771D02*
G01*
X12936913Y667771D01*
X13116923Y827775D02*
G01*
X13216912Y827775D01*
X13116923Y667771D02*
G01*
X13216912Y667771D01*
X12911912Y807775D02*
G01*
X12911912Y687773D01*
X12931912Y827775D02*
G01*
X12936913Y827775D01*
X12931914Y667771D02*
G01*
X12936913Y667771D01*
X13221914Y827775D02*
G01*
X13216912Y827775D01*
X13221911Y667771D02*
G01*
X13216912Y667771D01*
X13690600Y1399908D02*
G01*
X13690600Y1199908D01*
X13530600Y1399908D02*
G01*
X13530600Y1199908D01*
X13690600Y1335031D02*
G01*
X13530600Y1335031D01*
X14419404Y1832510D02*
G01*
X14299402Y1832510D01*
X14439404Y2037509D02*
G01*
X14439404Y2137511D01*
X14279399Y2037509D02*
G01*
X14279399Y2137511D01*
X14439404Y1957501D02*
G01*
X14439404Y1857512D01*
X14279399Y1957501D02*
G01*
X14279399Y1857512D01*
X14419404Y2162512D02*
G01*
X14299402Y2162512D01*
X14439404Y2142512D02*
G01*
X14439404Y2137511D01*
X14279399Y2142510D02*
G01*
X14279399Y2137511D01*
X14439404Y1852510D02*
G01*
X14439404Y1857512D01*
X14279399Y1852513D02*
G01*
X14279399Y1857512D01*
X14368698Y1129436D02*
G01*
X14488701Y1129436D01*
X14348698Y924438D02*
G01*
X14348698Y824435D01*
X14508703Y924438D02*
G01*
X14508703Y824435D01*
X14348698Y1004445D02*
G01*
X14348698Y1104435D01*
X14508703Y1004445D02*
G01*
X14508703Y1104435D01*
X14368698Y799434D02*
G01*
X14488701Y799434D01*
X14348698Y819434D02*
G01*
X14348698Y824435D01*
X14508703Y819437D02*
G01*
X14508703Y824435D01*
X14348698Y1109436D02*
G01*
X14348698Y1104435D01*
X14508703Y1109433D02*
G01*
X14508703Y1104435D01*
X13285800Y1780733D02*
G01*
X13285800Y1900735D01*
X13490798Y1760733D02*
G01*
X13590800Y1760733D01*
X13490798Y1920737D02*
G01*
X13590800Y1920737D01*
X13410791Y1760733D02*
G01*
X13310801Y1760733D01*
X13410791Y1920737D02*
G01*
X13310801Y1920737D01*
X13615802Y1780733D02*
G01*
X13615802Y1900735D01*
X13595802Y1760733D02*
G01*
X13590800Y1760733D01*
X13595799Y1920737D02*
G01*
X13590800Y1920737D01*
X13305800Y1760733D02*
G01*
X13310801Y1760733D01*
X13305802Y1920737D02*
G01*
X13310801Y1920737D01*
X20060412Y2019112D02*
G01*
X20060412Y1899109D01*
X19855413Y2039112D02*
G01*
X19755411Y2039112D01*
X19855413Y1879107D02*
G01*
X19755411Y1879107D01*
X19935421Y2039112D02*
G01*
X20035410Y2039112D01*
X19935421Y1879107D02*
G01*
X20035410Y1879107D01*
X19730410Y2019112D02*
G01*
X19730410Y1899109D01*
X19750410Y2039112D02*
G01*
X19755411Y2039112D01*
X19750412Y1879107D02*
G01*
X19755411Y1879107D01*
X20040412Y2039112D02*
G01*
X20035410Y2039112D01*
X20040409Y1879107D02*
G01*
X20035410Y1879107D01*
X13396953Y454403D02*
G01*
X13396953Y307083D01*
X13569673Y454403D02*
G01*
X13569673Y307083D01*
X13569673Y454403D02*
G01*
X13396953Y454403D01*
X13396953Y248663D02*
G01*
X13396953Y131823D01*
X13569673Y246123D02*
G01*
X13569673Y131823D01*
X13569673Y131823D02*
G01*
X13534113Y96263D01*
X13432513Y96263D01*
X13396953Y131823D01*
D51*
X13523953Y285493D02*
G01*
X13445213Y285493D01*
X13484108Y285493D02*
G01*
X13484108Y267957D01*
D10*
X13823673Y88643D02*
G01*
X13823673Y235963D01*
X13650953Y88643D02*
G01*
X13650953Y235963D01*
X13650953Y88643D02*
G01*
X13823673Y88643D01*
X13823673Y294383D02*
G01*
X13823673Y411223D01*
X13650953Y296923D02*
G01*
X13650953Y411223D01*
X13650953Y411223D02*
G01*
X13686513Y446783D01*
X13788113Y446783D01*
X13823673Y411223D01*
D51*
X13696673Y257553D02*
G01*
X13775413Y257553D01*
X13736518Y257553D02*
G01*
X13736518Y275089D01*
D10*
X15071346Y2528923D02*
G01*
X15071346Y2457803D01*
X15051026Y2457803D01*
X14791946Y2457803D02*
G01*
X14771626Y2457803D01*
X14771626Y2528923D01*
X14771626Y2686403D02*
G01*
X14771626Y2757523D01*
X14791946Y2757523D01*
X15051026Y2757523D02*
G01*
X15071346Y2757523D01*
X15071346Y2686403D01*
X14525787Y1970963D02*
G01*
X14525787Y1440962D01*
X15545785Y1440962D02*
G01*
X15545785Y1629763D01*
X15545785Y1970963D02*
G01*
X15545785Y1782163D01*
X15545785Y1440962D02*
G01*
X15501602Y1440962D01*
X14569970Y1440962D02*
G01*
X14525787Y1440962D01*
X14525787Y1970963D02*
G01*
X14569970Y1970963D01*
X15501602Y1970963D02*
G01*
X15545785Y1970963D01*
X15682587Y1839097D02*
G01*
X15651990Y1839097D01*
X15841972Y1839097D02*
G01*
X15811365Y1839097D01*
X15841972Y1839097D02*
G01*
X15841972Y1934933D01*
X15651990Y1841926D02*
G01*
X15651990Y1934933D01*
X16114387Y1839097D02*
G01*
X16083790Y1839097D01*
X16273772Y1839097D02*
G01*
X16243165Y1839097D01*
X16273772Y1839097D02*
G01*
X16273772Y1934933D01*
X16083790Y1841926D02*
G01*
X16083790Y1934933D01*
X15160190Y973165D02*
G01*
X15160190Y813160D01*
X15345252Y813671D02*
G01*
X15470248Y813671D01*
X15345252Y973675D02*
G01*
X15470248Y973675D01*
X15285194Y813160D02*
G01*
X15160190Y813160D01*
X15285194Y973165D02*
G01*
X15160190Y973165D01*
X15470248Y973675D02*
G01*
X15470248Y813671D01*
X15160190Y719165D02*
G01*
X15160190Y559160D01*
X15345252Y559671D02*
G01*
X15470248Y559671D01*
X15345252Y719675D02*
G01*
X15470248Y719675D01*
X15285194Y559160D02*
G01*
X15160190Y559160D01*
X15285194Y719165D02*
G01*
X15160190Y719165D01*
X15470248Y719675D02*
G01*
X15470248Y559671D01*
X17197301Y2129025D02*
G01*
X18721301Y2129025D01*
X17060141Y2817365D02*
G01*
X17060141Y2141217D01*
X17060141Y343913D02*
G01*
X17060141Y267205D01*
X18858461Y2817365D02*
G01*
X18858461Y2141217D01*
X18858461Y343913D02*
G01*
X18858461Y267205D01*
X17060141Y267205D02*
G01*
X17317189Y267205D01*
X18606493Y267205D02*
G01*
X18858461Y267205D01*
X17060141Y2811444D02*
G01*
X18858461Y2811444D01*
X19505094Y473450D02*
G01*
X19505094Y130550D01*
X21146444Y130550D01*
X21146444Y473450D01*
X21146495Y464924D01*
X19505094Y1476629D02*
G01*
X19505094Y752729D01*
X21146444Y1454912D02*
G01*
X21147295Y752729D01*
X20609994Y1743329D02*
G01*
X21147295Y1743329D01*
X21146495Y1454929D01*
X19505094Y1667129D02*
G01*
X19505094Y1743329D01*
X19606694Y1743329D01*
X690374Y2731109D02*
G01*
X690374Y2851111D01*
X895372Y2711109D02*
G01*
X995375Y2711109D01*
X895372Y2871114D02*
G01*
X995375Y2871114D01*
X815365Y2711109D02*
G01*
X715375Y2711109D01*
X815365Y2871114D02*
G01*
X715375Y2871114D01*
X1020376Y2731109D02*
G01*
X1020376Y2851111D01*
X1000376Y2711109D02*
G01*
X995375Y2711109D01*
X1000373Y2871114D02*
G01*
X995375Y2871114D01*
X710374Y2711109D02*
G01*
X715375Y2711109D01*
X710377Y2871114D02*
G01*
X715375Y2871114D01*
X13551202Y2763243D02*
G01*
X13551202Y2653136D01*
X13401200Y2763240D02*
G01*
X13401200Y2653136D01*
X13550691Y2823301D02*
G01*
X13550691Y2933334D01*
X13400689Y2823301D02*
G01*
X13400689Y2933334D01*
X13401200Y2933334D02*
G01*
X13551202Y2933298D01*
X13401200Y2653238D02*
G01*
X13551202Y2653238D01*
X13657199Y2823227D02*
G01*
X13657199Y2933334D01*
X13807201Y2823230D02*
G01*
X13807201Y2933334D01*
X13657709Y2763169D02*
G01*
X13657709Y2653136D01*
X13807711Y2763169D02*
G01*
X13807711Y2653136D01*
X13807201Y2653136D02*
G01*
X13657199Y2653172D01*
X13807201Y2933232D02*
G01*
X13657199Y2933232D01*
X13602401Y770717D02*
G01*
X13602401Y660610D01*
X13452398Y770714D02*
G01*
X13452398Y660610D01*
X13601890Y830775D02*
G01*
X13601890Y940808D01*
X13451888Y830775D02*
G01*
X13451888Y940808D01*
X13452398Y940808D02*
G01*
X13602401Y940772D01*
X13452398Y660712D02*
G01*
X13602401Y660712D01*
X15260601Y2796702D02*
G01*
X15260601Y2876704D01*
X15371582Y2907685D02*
G01*
X15291582Y2907685D01*
X15402565Y2796702D02*
G01*
X15402565Y2876704D01*
X15260017Y2739113D02*
G01*
X15260017Y2659118D01*
X15401980Y2739113D02*
G01*
X15401980Y2659118D01*
X15371000Y2628135D02*
G01*
X15290998Y2628135D01*
X620334Y1821736D02*
G01*
X540331Y1821736D01*
X509351Y1932716D02*
G01*
X509351Y1852716D01*
X620334Y1963699D02*
G01*
X540331Y1963699D01*
X677923Y1821152D02*
G01*
X757918Y1821152D01*
X677923Y1963115D02*
G01*
X757918Y1963115D01*
X788901Y1932134D02*
G01*
X788901Y1852132D01*
X32560834Y2952036D02*
G01*
X32480831Y2952036D01*
X32449851Y3063016D02*
G01*
X32449851Y2983016D01*
X32560834Y3093999D02*
G01*
X32480831Y3093999D01*
X32618423Y2951452D02*
G01*
X32698418Y2951452D01*
X32618423Y3093415D02*
G01*
X32698418Y3093415D01*
X32729401Y3062434D02*
G01*
X32729401Y2982432D01*
X32745568Y2037534D02*
G01*
X32825570Y2037534D01*
X32856551Y1926554D02*
G01*
X32856551Y2006554D01*
X32745568Y1895571D02*
G01*
X32825570Y1895571D01*
X32687978Y2038118D02*
G01*
X32607984Y2038118D01*
X32687978Y1896155D02*
G01*
X32607984Y1896155D01*
X32577001Y1927136D02*
G01*
X32577001Y2007138D01*
X633034Y2888536D02*
G01*
X553031Y2888536D01*
X522051Y2999516D02*
G01*
X522051Y2919516D01*
X633034Y3030499D02*
G01*
X553031Y3030499D01*
X690623Y2887952D02*
G01*
X770618Y2887952D01*
X690623Y3029915D02*
G01*
X770618Y3029915D01*
X801601Y2998934D02*
G01*
X801601Y2918932D01*
D52*
X15815795Y40134D02*
G01*
X16165794Y40134D01*
X15815795Y390133D02*
G01*
X16165794Y390133D01*
X15815795Y390133D02*
G01*
X15815795Y373169D01*
X15815795Y237101D02*
G01*
X15815795Y193169D01*
X15815795Y57101D02*
G01*
X15815795Y40134D01*
X16165794Y390133D02*
G01*
X16165794Y373169D01*
X16165794Y237101D02*
G01*
X16165794Y193169D01*
X16165794Y57101D02*
G01*
X16165794Y40134D01*
X15720801Y305135D02*
G01*
X15763301Y305135D01*
X15740801Y285135D02*
G01*
X15740801Y327634D01*
X16210800Y125135D02*
G01*
X16253300Y125135D01*
D10*
X15928500Y1426227D02*
G01*
X15928500Y1536334D01*
X16078502Y1426230D02*
G01*
X16078502Y1536334D01*
X15929010Y1366169D02*
G01*
X15929010Y1256136D01*
X16079012Y1366169D02*
G01*
X16079012Y1256136D01*
X16078502Y1256136D02*
G01*
X15928500Y1256172D01*
X16078502Y1536232D02*
G01*
X15928500Y1536232D01*
X15661800Y1438927D02*
G01*
X15661800Y1549034D01*
X15811802Y1438930D02*
G01*
X15811802Y1549034D01*
X15662310Y1378869D02*
G01*
X15662310Y1268836D01*
X15812312Y1378869D02*
G01*
X15812312Y1268836D01*
X15811802Y1268836D02*
G01*
X15661800Y1268872D01*
X15811802Y1548932D02*
G01*
X15661800Y1548932D01*
X12357402Y1328143D02*
G01*
X12357402Y1218036D01*
X12207400Y1328140D02*
G01*
X12207400Y1218036D01*
X12356891Y1388201D02*
G01*
X12356891Y1498234D01*
X12206889Y1388201D02*
G01*
X12206889Y1498234D01*
X12207400Y1498234D02*
G01*
X12357402Y1498198D01*
X12207400Y1218138D02*
G01*
X12357402Y1218138D01*
X12635999Y1333916D02*
G01*
X12635999Y1223810D01*
X12485997Y1333914D02*
G01*
X12485997Y1223810D01*
X12635489Y1393974D02*
G01*
X12635489Y1504007D01*
X12485486Y1393974D02*
G01*
X12485486Y1504007D01*
X12485997Y1504007D02*
G01*
X12635999Y1503972D01*
X12485997Y1223911D02*
G01*
X12635999Y1223911D01*
X13655200Y829327D02*
G01*
X13655200Y939434D01*
X13805202Y829330D02*
G01*
X13805202Y939434D01*
X13655710Y769269D02*
G01*
X13655710Y659236D01*
X13805712Y769269D02*
G01*
X13805712Y659236D01*
X13805202Y659236D02*
G01*
X13655200Y659272D01*
X13805202Y939332D02*
G01*
X13655200Y939332D01*
X13411502Y769343D02*
G01*
X13411502Y659236D01*
X13261500Y769340D02*
G01*
X13261500Y659236D01*
X13410991Y829401D02*
G01*
X13410991Y939434D01*
X13260989Y829401D02*
G01*
X13260989Y939434D01*
X13261500Y939434D02*
G01*
X13411502Y939398D01*
X13261500Y659338D02*
G01*
X13411502Y659338D01*
X14937364Y144434D02*
G01*
X14871321Y144434D01*
X14944979Y157134D02*
G01*
X14937364Y157134D01*
X14937364Y152057D01*
X14955141Y192697D02*
G01*
X14955141Y167297D01*
X14937364Y289219D02*
G01*
X14937364Y213019D01*
X14881479Y299377D02*
G01*
X14927201Y299377D01*
X14871321Y213019D02*
G01*
X14871321Y289219D01*
X14853541Y167297D02*
G01*
X14853541Y192697D01*
X14863701Y157134D02*
G01*
X14871321Y157134D01*
X14871321Y152057D01*
X14871321Y144434D01*
X14871321Y121577D01*
X14937364Y121577D01*
X14937364Y144434D01*
X14937364Y152057D01*
X14871321Y152057D01*
X14523341Y139357D02*
G01*
X14457301Y139357D01*
X14530964Y152057D02*
G01*
X14523341Y152057D01*
X14523341Y146977D01*
X14541121Y187619D02*
G01*
X14541121Y162219D01*
X14523341Y284134D02*
G01*
X14523341Y207934D01*
X14467464Y294297D02*
G01*
X14513179Y294297D01*
X14457301Y207934D02*
G01*
X14457301Y284134D01*
X14439521Y162219D02*
G01*
X14439521Y187619D01*
X14449679Y152057D02*
G01*
X14457301Y152057D01*
X14457301Y146977D01*
X14457301Y139357D01*
X14457301Y116497D01*
X14523341Y116497D01*
X14523341Y139357D01*
X14523341Y146977D01*
X14457301Y146977D01*
X15053518Y23380D02*
G01*
X14333524Y23380D01*
X14936028Y553377D02*
G01*
X14872235Y553377D01*
X14520903Y553377D02*
G01*
X14451012Y553377D01*
X14333524Y23380D02*
G01*
X14333524Y170314D01*
X14333524Y396435D02*
G01*
X14333524Y491741D01*
X15053518Y23380D02*
G01*
X15053518Y170284D01*
X15053518Y396466D02*
G01*
X15053518Y491741D01*
D53*
G75*
G01*
X13064084Y2030727D02*
G02*
X13064338Y2030727I127J12446D01*
D10*
G75*
G01*
X32919802Y2784033D02*
G02*
X32899802Y2764033I-20000J0D01*
G75*
G01*
X32919802Y2904035D02*
G03*
X32899800Y2924038I-20002J0D01*
G75*
G01*
X32589800Y2784033D02*
G03*
X32609800Y2764033I20000J0D01*
G75*
G01*
X32589800Y2904035D02*
G02*
X32609803Y2924038I20003J0D01*
G75*
G01*
X32329234Y2185513D02*
G02*
X32349234Y2205512I20000J0D01*
G75*
G01*
X32329234Y2065510D02*
G03*
X32349237Y2045508I20003J0D01*
G75*
G01*
X32659236Y2185513D02*
G03*
X32639236Y2205512I-20000J0D01*
G75*
G01*
X32659236Y2065510D02*
G02*
X32639234Y2045508I-20002J0D01*
G75*
G01*
X981977Y1988708D02*
G02*
X961977Y1968708I-20000J0D01*
G75*
G01*
X981977Y2108711D02*
G03*
X961974Y2128713I-20003J0D01*
G75*
G01*
X651975Y1988708D02*
G03*
X671975Y1968708I20000J0D01*
G75*
G01*
X651975Y2108711D02*
G02*
X671977Y2128713I20002J0D01*
G75*
G01*
X15670688Y2395261D02*
G02*
X15650688Y2375261I-20000J0D01*
G75*
G01*
X15670688Y2515263D02*
G03*
X15650685Y2535265I-20003J0D01*
G75*
G01*
X15340686Y2395261D02*
G03*
X15360686Y2375261I20000J0D01*
G75*
G01*
X15340686Y2515263D02*
G02*
X15360688Y2535265I20002J0D01*
G75*
G01*
X15861439Y851982D02*
G02*
X15830456Y820999I-30983J0D01*
G75*
G01*
X15830456Y962965D02*
G02*
X15861439Y931982I0J-30983D01*
G75*
G01*
X15612870Y821581D02*
G02*
X15581887Y852564I0J30983D01*
G75*
G01*
X15581887Y932564D02*
G02*
X15612870Y963546I30983J0D01*
G75*
G01*
X15861439Y597982D02*
G02*
X15830456Y566999I-30983J0D01*
G75*
G01*
X15830456Y708965D02*
G02*
X15861439Y677982I0J-30983D01*
G75*
G01*
X15612870Y567581D02*
G02*
X15581887Y598564I0J30983D01*
G75*
G01*
X15581887Y678564D02*
G02*
X15612870Y709546I30983J0D01*
G75*
G01*
X16876304Y2183536D02*
G02*
X16896304Y2163536I0J-20000D01*
G75*
G01*
X16756301Y2183536D02*
G03*
X16736299Y2163534I0J-20002D01*
G75*
G01*
X16876304Y1853535D02*
G03*
X16896304Y1873534I0J19999D01*
G75*
G01*
X16756301Y1853535D02*
G02*
X16736299Y1873537I0J20002D01*
G75*
G01*
X12670414Y2262571D02*
G02*
X12650414Y2242571I-20000J0D01*
G75*
G01*
X12670414Y2382573D02*
G03*
X12650412Y2402576I-20002J0D01*
G75*
G01*
X12340412Y2262571D02*
G03*
X12360412Y2242571I20000J0D01*
G75*
G01*
X12340412Y2382573D02*
G02*
X12360415Y2402576I20003J0D01*
G75*
G01*
X12911912Y807776D02*
G02*
X12931912Y827776I20000J0D01*
G75*
G01*
X12911912Y687774D02*
G03*
X12931915Y667771I20003J0D01*
G75*
G01*
X13241914Y807776D02*
G03*
X13221914Y827776I-20000J0D01*
G75*
G01*
X13241914Y687774D02*
G02*
X13221912Y667771I-20002J0D01*
G75*
G01*
X14419405Y2162513D02*
G02*
X14439405Y2142513I0J-20000D01*
G75*
G01*
X14299402Y2162513D02*
G03*
X14279400Y2142510I0J-20003D01*
G75*
G01*
X14419405Y1832511D02*
G03*
X14439405Y1852511I0J20000D01*
G75*
G01*
X14299402Y1832511D02*
G02*
X14279400Y1852513I0J20002D01*
G75*
G01*
X14368699Y799435D02*
G02*
X14348699Y819434I0J19999D01*
G75*
G01*
X14488701Y799435D02*
G03*
X14508704Y819437I0J20002D01*
G75*
G01*
X14368699Y1129436D02*
G03*
X14348699Y1109436I0J-20000D01*
G75*
G01*
X14488701Y1129436D02*
G02*
X14508704Y1109434I0J-20002D01*
G75*
G01*
X13615802Y1780733D02*
G02*
X13595802Y1760733I-20000J0D01*
G75*
G01*
X13615802Y1900735D02*
G03*
X13595800Y1920738I-20002J0D01*
G75*
G01*
X13285800Y1780733D02*
G03*
X13305800Y1760733I20000J0D01*
G75*
G01*
X13285800Y1900735D02*
G02*
X13305803Y1920738I20003J0D01*
G75*
G01*
X19730410Y2019112D02*
G02*
X19750410Y2039112I20000J0D01*
G75*
G01*
X19730410Y1899110D02*
G03*
X19750413Y1879107I20003J0D01*
G75*
G01*
X20060412Y2019112D02*
G03*
X20040412Y2039112I-20000J0D01*
G75*
G01*
X20060412Y1899110D02*
G02*
X20040410Y1879107I-20002J0D01*
G75*
G01*
X15545786Y1629763D02*
G02*
X15545819Y1782163I16J76200D01*
D53*
G75*
G01*
X15894550Y2011769D02*
G03*
X15894550Y2012023I12446J127D01*
G75*
G01*
X16326350Y2011769D02*
G03*
X16326350Y2012023I12446J127D01*
D10*
G75*
G01*
X1020376Y2731110D02*
G02*
X1000377Y2711110I-19999J0D01*
G75*
G01*
X1020376Y2851112D02*
G03*
X1000374Y2871114I-20002J0D01*
G75*
G01*
X690375Y2731110D02*
G03*
X710375Y2711110I20000J0D01*
G75*
G01*
X690375Y2851112D02*
G02*
X710377Y2871114I20002J0D01*
G75*
G01*
X15371582Y2907688D02*
G02*
X15402565Y2876705I0J-30983D01*
G75*
G01*
X15260599Y2876705D02*
G02*
X15291582Y2907688I30983J0D01*
G75*
G01*
X15401983Y2659118D02*
G02*
X15371001Y2628135I-30982J0D01*
G75*
G01*
X15291001Y2628135D02*
G02*
X15260018Y2659118I0J30983D01*
G75*
G01*
X509349Y1932716D02*
G02*
X540332Y1963699I30983J0D01*
G75*
G01*
X540332Y1821734D02*
G02*
X509349Y1852717I0J30983D01*
G75*
G01*
X757918Y1963118D02*
G02*
X788901Y1932135I0J-30983D01*
G75*
G01*
X788901Y1852135D02*
G02*
X757918Y1821152I-30983J0D01*
G75*
G01*
X32449849Y3063016D02*
G02*
X32480832Y3093999I30983J0D01*
G75*
G01*
X32480832Y2952034D02*
G02*
X32449849Y2983017I0J30983D01*
G75*
G01*
X32698418Y3093418D02*
G02*
X32729401Y3062435I0J-30983D01*
G75*
G01*
X32729401Y2982435D02*
G02*
X32698418Y2951452I-30983J0D01*
G75*
G01*
X32856554Y1926554D02*
G02*
X32825571Y1895572I-30983J0D01*
G75*
G01*
X32825571Y2037537D02*
G02*
X32856554Y2006554I0J-30983D01*
G75*
G01*
X32607984Y1896153D02*
G02*
X32577001Y1927136I0J30983D01*
G75*
G01*
X32577001Y2007136D02*
G02*
X32607984Y2038119I30983J0D01*
G75*
G01*
X522049Y2999516D02*
G02*
X553032Y3030499I30983J0D01*
G75*
G01*
X553032Y2888534D02*
G02*
X522049Y2919517I0J30983D01*
G75*
G01*
X770618Y3029918D02*
G02*
X801601Y2998935I0J-30983D01*
G75*
G01*
X801601Y2918935D02*
G02*
X770618Y2887952I-30983J0D01*
G75*
G01*
X14440042Y163259D02*
G03*
X14450042Y153256I10008J5D01*
G75*
G01*
X14448843Y198257D02*
G03*
X14457528Y208158I-1298J9898D01*
G75*
G01*
X14467543Y293256D02*
G03*
X14457543Y283256I7J-10008D01*
G75*
G01*
X14522541Y283256D02*
G03*
X14512542Y293256I-10007J-8D01*
G75*
G01*
X14522541Y208158D02*
G03*
X14531343Y198234I10008J11D01*
G75*
G01*
X14449842Y198158D02*
G03*
X14439842Y188158I7J-10007D01*
G75*
G01*
X14530141Y153358D02*
G03*
X14540141Y163358I-7J10007D01*
G75*
G01*
X14539943Y188158D02*
G03*
X14529943Y198158I-10008J-7D01*
G75*
G01*
X14854062Y168339D02*
G03*
X14864062Y158336I10008J5D01*
G75*
G01*
X14862863Y203337D02*
G03*
X14871548Y213238I-1298J9898D01*
G75*
G01*
X14881563Y298336D02*
G03*
X14871563Y288336I7J-10008D01*
G75*
G01*
X14936561Y288336D02*
G03*
X14926562Y298336I-10007J-8D01*
G75*
G01*
X14936561Y213238D02*
G03*
X14945363Y203314I10008J11D01*
G75*
G01*
X14863862Y203238D02*
G03*
X14853862Y193238I7J-10007D01*
G75*
G01*
X14944161Y158438D02*
G03*
X14954161Y168438I-7J10007D01*
G75*
G01*
X14953963Y193238D02*
G03*
X14943963Y203238I-10008J-7D01*
G75*
G01
X12353013Y1814573D02*
G03X12353013Y1814573I-12700J0D01*
G75*
G01
X12642497Y1024557D02*
G03X12642497Y1024557I-12497J0D01*
G75*
G01
X20410935Y2526535D02*
G03X20410935Y2526535I-152933J0D01*
G75*
G01
X20105601Y2729735D02*
G03X20105601Y2729735I-50800J0D01*
G75*
G01
X20512001Y2729735D02*
G03X20512001Y2729735I-50800J0D01*
G75*
G01
X20105601Y2323335D02*
G03X20105601Y2323335I-50800J0D01*
G75*
G01
X20511798Y2323488D02*
G03X20511798Y2323488I-50800J0D01*
G75*
G01
X32898972Y2368446D02*
G03X32898972Y2368446I-11176J0D01*
G75*
G01
X463883Y2557625D02*
G03X463883Y2557625I-11176J0D01*
G75*
G01
X15111987Y2772763D02*
G03X15111987Y2772763I-25400J0D01*
G75*
G01
X15569187Y2086963D02*
G03X15569187Y2086963I-25400J0D01*
M02*
