G04 Layer: BoardOutline*
G04 EasyEDA v6.4.14, 2021-01-19T22:22:16+01:00*
G04 02485e9e15114f7e80ffde9a8eea953d,da693c564b984109b00d12f045165e1a,10*
G04 Gerber Generator version 0.2*
G04 Scale: 100 percent, Rotated: No, Reflected: No *
G04 Dimensions in millimeters *
G04 leading zeros omitted , absolute positions ,4 integer and 5 decimal *
%FSLAX45Y45*%
%MOMM*%

%ADD10C,0.2540*%
D10*
X13936997Y2970316D02*
G01*
X18861001Y2958335D01*
X20829501Y2958335D02*
G01*
X21038246Y2958335D01*
X20695389Y7109D02*
G01*
X20898589Y7109D01*
X20898619Y7104D02*
G01*
X21047001Y7104D01*
X21247000Y213535D02*
G01*
X21249419Y2003912D01*
X31813141Y2688714D02*
G01*
X21409411Y2688714D01*
X31877137Y2195913D02*
G01*
X21439101Y2196335D01*
X18861001Y2958335D02*
G01*
X19087823Y2958335D01*
X19087815Y2957509D02*
G01*
X20829501Y2958335D01*
X11914596Y2189510D02*
G01*
X1476176Y2176711D01*
X1482575Y2701513D02*
G01*
X11952028Y2697533D01*
X12117301Y1993135D02*
G01*
X12100196Y199108D01*
X20695414Y7106D02*
G01*
X13937000Y706D01*
X13940513Y2970273D02*
G01*
X12302213Y2970273D01*
X12300686Y0D02*
G01*
X13940513Y0D01*
G75*
G01*
X1474356Y2177435D02*
G03*
X1295804Y2069907I-1212J-199996D01*
G75*
G01*
X1295728Y2805212D02*
G03*
X1295679Y2069983I-595727J-367576D01*
G75*
G01*
X31814714Y2688504D02*
G03*
X32003075Y2817965I1213J199996D01*
G75*
G01*
X1296901Y2805935D02*
G03*
X1481846Y2700952I176094J94821D01*
G75*
G01*
X32059207Y2092124D02*
G03*
X31874262Y2197108I-176094J-94820D01*
G75*
G01*
X21228825Y2823510D02*
G03*
X21415787Y2686776I189735J63247D01*
G75*
G01*
X32035300Y2128383D02*
G03*
X32003497Y2817752I592501J372752D01*
G75*
G01*
X12117301Y1993135D02*
G03*
X11917302Y2193135I-199999J0D01*
G75*
G01*
X12100616Y200073D02*
G03*
X12300616Y74I200000J0D01*
G75*
G01*
X12302213Y2970273D02*
G03*
X12116448Y2844376I0J-199999D01*
G75*
G01*
X11952028Y2692278D02*
G03*
X12114027Y2841330I-32066J197412D01*
G75*
G01*
X21230179Y2815229D02*
G03*
X21038246Y2958996I-191932J-56233D01*
G75*
G01*
X21045815Y7107D02*
G03*
X21245815Y207107I0J200000D01*
G75*
G01*
X21447813Y2197511D02*
G03*
X21247814Y1997512I0J-199999D01*

%LPD*%
M02*
