M48
METRIC,LZ,0000.00
;FILE_FORMAT=4:2
;TYPE=PLATED
;Layer: Drill PTH
;EasyEDA v6.4.14, 2021-01-19T22:22:16+01:00
;02485e9e15114f7e80ffde9a8eea953d,da693c564b984109b00d12f045165e1a,10
;Gerber Generator version 0.2
;Holesize 1 = 0.351 mm
T01C0.351
;Holesize 2 = 0.600 mm
T02C0.600
;Holesize 3 = 0.800 mm
T03C0.800
%
G05
G90
T01
X015031Y001518
X014797Y001193
X014416Y000736
X017845Y001841
X018112Y001828
X018505Y001853
X017261Y001765
X017616Y001828
X018205Y001671
X017578Y001447
X000430Y002654
X000992Y002171
X000958Y002654
X000459Y002958
X000281Y002120
X033009Y002869
X032501Y002869
X032361Y002996
X032209Y002285
X032856Y002120
X032270Y002567
X032628Y002488
X032272Y002412
X033009Y002488
X015379Y001033
X015595Y000766
X014363Y001312
X014718Y001617
X015188Y001884
X015391Y001655
X015391Y002252
X015902Y002324
X018747Y000418
X015074Y002912
X014871Y002658
X015671Y002671
X015991Y002612
X012940Y001521
X015150Y002239
X016254Y001633
X016804Y001574
X016734Y001735
X016905Y001790
X000725Y001790
X000713Y003060
X001246Y002438
X012194Y002438
X012569Y002805
X013591Y000088
X013826Y002437
X032666Y003136
X032641Y001841
X032526Y002793
X033047Y002704
X032110Y002350
X001259Y002247
X012196Y002247
X016011Y001031
X015947Y001108
X016247Y001102
X016286Y001025
X016886Y001108
X016777Y001031
X018607Y001434
X018696Y001638
X020220Y001980
X020830Y002069
X017401Y000825
X018239Y000672
X014667Y002468
X015125Y002455
X014655Y002785
X015518Y002709
X017172Y000710
X016893Y000641
X016260Y000686
X012459Y002510
X012542Y002676
X012848Y002665
X013153Y002665
X012790Y001993
X012939Y002068
X013022Y002010
X013131Y001620
X013265Y001588
X013252Y001671
X013265Y001748
X013547Y001729
X013470Y001658
X013579Y001575
X013476Y001518
X014347Y001767
X014391Y001665
X014359Y001473
X014820Y002227
X015734Y000766
X016258Y000139
X018378Y001396
X014363Y002239
X014921Y002227
X019598Y002171
X019521Y001930
X019017Y001812
X017553Y001333
X020957Y002628
X021020Y002565
X021084Y002501
X021115Y002420
X032044Y002285
X021128Y002190
X019674Y001942
X020366Y001428
X020309Y001345
X020366Y001262
X020309Y001180
X019011Y000852
X019017Y000762
X018734Y000329
X019019Y000289
X017159Y000406
X017261Y000266
X018467Y000929
X018537Y000852
X018275Y000852
X018179Y000922
X018467Y000774
X018173Y000775
X014398Y001556
X015991Y002753
X016305Y001460
X016190Y001703
X016190Y001518
X016254Y001390
X016753Y001485
X016753Y001396
X017604Y001193
X017185Y001269
X016242Y000550
X016241Y000769
X016241Y000941
X016791Y000317
X016867Y000974
X016854Y000558
X017502Y000825
X017197Y000926
X016247Y001249
X017261Y001168
X016740Y001185
X016292Y001172
X015435Y001853
X015569Y001528
X017210Y001422
X016893Y001447
X016305Y001313
X015861Y001401
X014947Y001173
X014820Y001693
X016881Y000839
X016255Y000855
X016049Y000884
X013311Y002831
X017197Y002069
X017324Y002069
X017437Y002068
X017553Y002069
X017667Y002069
X017794Y002069
X017909Y002069
X018023Y002069
X018137Y002069
X018251Y002069
X018366Y002069
X018493Y002069
X018607Y002069
X018721Y002069
X018264Y000406
X013718Y002542
X013718Y002146
X012867Y002260
X014487Y002138
X013870Y000939
X013870Y000850
X013870Y000761
X013870Y000672
X014302Y000939
X014302Y000850
X014302Y000761
X014302Y000672
X016296Y002717
X016296Y002628
X016296Y002539
X016296Y002438
X016740Y002717
X016740Y002628
X016740Y002539
X016740Y002438
X019013Y002704
X019013Y002615
X019013Y002527
X019013Y002450
X019471Y002704
X019471Y002615
X019471Y002527
X019471Y002450
X019471Y001295
X019471Y001396
X019471Y001701
X019026Y001701
X019026Y001396
X019026Y001295
X016258Y000228
X016791Y000228
X016791Y000139
X013883Y000101
X014334Y000098
X013870Y002869
X013870Y002781
X013870Y002679
X014302Y002869
X014302Y002781
X014302Y002679
X019473Y000436
X019636Y002387
X013171Y000533
X013184Y000088
T02
X015009Y000563G85X015039Y000563
X014349Y000563G85X014379Y000563
T03
X015056Y000253G85X015056Y000313
X014331Y000253G85X014331Y000313
M30
