G04 Layer: TopSolderMaskLayer*
G04 EasyEDA v6.4.14, 2021-01-19T22:22:16+01:00*
G04 02485e9e15114f7e80ffde9a8eea953d,da693c564b984109b00d12f045165e1a,10*
G04 Gerber Generator version 0.2*
G04 Scale: 100 percent, Rotated: No, Reflected: No *
G04 Dimensions in millimeters *
G04 leading zeros omitted , absolute positions ,4 integer and 5 decimal *
%FSLAX45Y45*%
%MOMM*%

%ADD54C,1.2032*%
%ADD55C,1.4031*%
%ADD86R,0.6532X1.7032*%

%LPD*%
D54*
X15008468Y563293D02*
G01*
X15038468Y563293D01*
X14348576Y563293D02*
G01*
X14378576Y563293D01*
D55*
X15055471Y253380D02*
G01*
X15055471Y313390D01*
X14330555Y253380D02*
G01*
X14330555Y313390D01*
G36*
X19600141Y2438905D02*
G01*
X19600141Y2537965D01*
X19772861Y2537965D01*
X19772861Y2438905D01*
G37*
G36*
X15870659Y2141217D02*
G01*
X15870659Y2251453D01*
X15970989Y2251453D01*
X15970989Y2141217D01*
G37*
G36*
X16010613Y2141217D02*
G01*
X16010613Y2251453D01*
X16110943Y2251453D01*
X16110943Y2141217D01*
G37*
G36*
X15997913Y2407917D02*
G01*
X15997913Y2518153D01*
X16098243Y2518153D01*
X16098243Y2407917D01*
G37*
G36*
X15857959Y2407917D02*
G01*
X15857959Y2518153D01*
X15958289Y2518153D01*
X15958289Y2407917D01*
G37*
G36*
X15986483Y514093D02*
G01*
X15986483Y614423D01*
X16096719Y614423D01*
X16096719Y514093D01*
G37*
G36*
X15986483Y654047D02*
G01*
X15986483Y754377D01*
X16096719Y754377D01*
X16096719Y654047D01*
G37*
G36*
X20773113Y1874517D02*
G01*
X20773113Y1984753D01*
X20873443Y1984753D01*
X20873443Y1874517D01*
G37*
G36*
X20633159Y1874517D02*
G01*
X20633159Y1984753D01*
X20733489Y1984753D01*
X20733489Y1874517D01*
G37*
G36*
X16100783Y2634993D02*
G01*
X16100783Y2735323D01*
X16211019Y2735323D01*
X16211019Y2634993D01*
G37*
G36*
X16100783Y2774947D02*
G01*
X16100783Y2875277D01*
X16211019Y2875277D01*
X16211019Y2774947D01*
G37*
G36*
X15757883Y2622293D02*
G01*
X15757883Y2722623D01*
X15868119Y2722623D01*
X15868119Y2622293D01*
G37*
G36*
X15757883Y2762247D02*
G01*
X15757883Y2862577D01*
X15868119Y2862577D01*
X15868119Y2762247D01*
G37*
G36*
X12963883Y2634993D02*
G01*
X12963883Y2735323D01*
X13074119Y2735323D01*
X13074119Y2634993D01*
G37*
G36*
X12963883Y2774947D02*
G01*
X12963883Y2875277D01*
X13074119Y2875277D01*
X13074119Y2774947D01*
G37*
G36*
X12659083Y2634993D02*
G01*
X12659083Y2735323D01*
X12769319Y2735323D01*
X12769319Y2634993D01*
G37*
G36*
X12659083Y2774947D02*
G01*
X12659083Y2875277D01*
X12769319Y2875277D01*
X12769319Y2774947D01*
G37*
G36*
X14398983Y2787647D02*
G01*
X14398983Y2887977D01*
X14509219Y2887977D01*
X14509219Y2787647D01*
G37*
G36*
X14398983Y2647693D02*
G01*
X14398983Y2748023D01*
X14509219Y2748023D01*
X14509219Y2647693D01*
G37*
G36*
X12372825Y2056889D02*
G01*
X12372825Y2177031D01*
X12448009Y2177031D01*
X12448009Y2056889D01*
G37*
G36*
X12562817Y2056889D02*
G01*
X12562817Y2177031D01*
X12638001Y2177031D01*
X12638001Y2056889D01*
G37*
G36*
X12562817Y1756915D02*
G01*
X12562817Y1877057D01*
X12638001Y1877057D01*
X12638001Y1756915D01*
G37*
G36*
X12467821Y1756915D02*
G01*
X12467821Y1877057D01*
X12543005Y1877057D01*
X12543005Y1756915D01*
G37*
G36*
X12372825Y1756915D02*
G01*
X12372825Y1877057D01*
X12448009Y1877057D01*
X12448009Y1756915D01*
G37*
G36*
X13295861Y1977641D02*
G01*
X13295861Y2108451D01*
X13378411Y2108451D01*
X13378411Y1977641D01*
G37*
G36*
X13201881Y1977641D02*
G01*
X13201881Y2108451D01*
X13284431Y2108451D01*
X13284431Y1977641D01*
G37*
G36*
X13105615Y1977641D02*
G01*
X13105615Y2108451D01*
X13188165Y2108451D01*
X13188165Y1977641D01*
G37*
G36*
X13107901Y2257041D02*
G01*
X13107901Y2387851D01*
X13190451Y2387851D01*
X13190451Y2257041D01*
G37*
G36*
X13295861Y2257041D02*
G01*
X13295861Y2387851D01*
X13378411Y2387851D01*
X13378411Y2257041D01*
G37*
G36*
X33080683Y2520947D02*
G01*
X33080683Y2621277D01*
X33190919Y2621277D01*
X33190919Y2520947D01*
G37*
G36*
X33080683Y2380993D02*
G01*
X33080683Y2481323D01*
X33190919Y2481323D01*
X33190919Y2380993D01*
G37*
G36*
X124183Y2457447D02*
G01*
X124183Y2557777D01*
X234419Y2557777D01*
X234419Y2457447D01*
G37*
G36*
X124183Y2317493D02*
G01*
X124183Y2417823D01*
X234419Y2417823D01*
X234419Y2317493D01*
G37*
G36*
X32784519Y2778757D02*
G01*
X32784519Y2909313D01*
X32904915Y2909313D01*
X32904915Y2778757D01*
G37*
G36*
X32604687Y2778757D02*
G01*
X32604687Y2909313D01*
X32724829Y2909313D01*
X32724829Y2778757D01*
G37*
G36*
X32344083Y2060445D02*
G01*
X32344083Y2190747D01*
X32464479Y2190747D01*
X32464479Y2060445D01*
G37*
G36*
X32524169Y2060445D02*
G01*
X32524169Y2190747D01*
X32644311Y2190747D01*
X32644311Y2060445D01*
G37*
G36*
X846813Y1983483D02*
G01*
X846813Y2113785D01*
X967209Y2113785D01*
X967209Y1983483D01*
G37*
G36*
X666727Y1983483D02*
G01*
X666727Y2113785D01*
X787123Y2113785D01*
X787123Y1983483D01*
G37*
G36*
X15535633Y2390137D02*
G01*
X15535633Y2520439D01*
X15655775Y2520439D01*
X15655775Y2390137D01*
G37*
G36*
X15355547Y2390137D02*
G01*
X15355547Y2520439D01*
X15475943Y2520439D01*
X15475943Y2390137D01*
G37*
G36*
X15741373Y837943D02*
G01*
X15741373Y948433D01*
X15841703Y948433D01*
X15841703Y837943D01*
G37*
G36*
X15601419Y837943D02*
G01*
X15601419Y948433D01*
X15701749Y948433D01*
X15701749Y837943D01*
G37*
G36*
X15741373Y583943D02*
G01*
X15741373Y694433D01*
X15841703Y694433D01*
X15841703Y583943D01*
G37*
G36*
X15601419Y583943D02*
G01*
X15601419Y694433D01*
X15701749Y694433D01*
X15701749Y583943D01*
G37*
G36*
X12426927Y330959D02*
G01*
X12426927Y481327D01*
X12517351Y481327D01*
X12517351Y330959D01*
G37*
G36*
X12577041Y330959D02*
G01*
X12577041Y481327D01*
X12667211Y481327D01*
X12667211Y330959D01*
G37*
G36*
X12877015Y330959D02*
G01*
X12877015Y481327D01*
X12967185Y481327D01*
X12967185Y330959D01*
G37*
G36*
X13026875Y330959D02*
G01*
X13026875Y481327D01*
X13117299Y481327D01*
X13117299Y330959D01*
G37*
G36*
X13242013Y278635D02*
G01*
X13242013Y368805D01*
X13362155Y368805D01*
X13362155Y278635D01*
G37*
G36*
X13242013Y53591D02*
G01*
X13242013Y143761D01*
X13362155Y143761D01*
X13362155Y53591D01*
G37*
G36*
X12182071Y53591D02*
G01*
X12182071Y143761D01*
X12302213Y143761D01*
X12302213Y53591D01*
G37*
G36*
X12182071Y278635D02*
G01*
X12182071Y368805D01*
X12302213Y368805D01*
X12302213Y278635D01*
G37*
G36*
X12186135Y971801D02*
G01*
X12186135Y1112263D01*
X12386541Y1112263D01*
X12386541Y971801D01*
G37*
G36*
X12186135Y611883D02*
G01*
X12186135Y752345D01*
X12386541Y752345D01*
X12386541Y611883D01*
G37*
G36*
X12586185Y771903D02*
G01*
X12586185Y852167D01*
X12761445Y852167D01*
X12761445Y771903D01*
G37*
G36*
X12586185Y871979D02*
G01*
X12586185Y952243D01*
X12761445Y952243D01*
X12761445Y871979D01*
G37*
G36*
X20597853Y2221481D02*
G01*
X20597853Y2381755D01*
X20828231Y2381755D01*
X20828231Y2221481D01*
G37*
G36*
X19687771Y2221481D02*
G01*
X19687771Y2381755D01*
X19918149Y2381755D01*
X19918149Y2221481D01*
G37*
G36*
X20597853Y2671315D02*
G01*
X20597853Y2831589D01*
X20828231Y2831589D01*
X20828231Y2671315D01*
G37*
G36*
X19687771Y2671315D02*
G01*
X19687771Y2831589D01*
X19918149Y2831589D01*
X19918149Y2671315D01*
G37*
G36*
X32754801Y2228339D02*
G01*
X32754801Y2378707D01*
X32800267Y2378707D01*
X32800267Y2228339D01*
G37*
G36*
X32705017Y2228339D02*
G01*
X32705017Y2378707D01*
X32750229Y2378707D01*
X32750229Y2228339D01*
G37*
G36*
X32654979Y2228339D02*
G01*
X32654979Y2378707D01*
X32700191Y2378707D01*
X32700191Y2228339D01*
G37*
G36*
X32604941Y2228339D02*
G01*
X32604941Y2378707D01*
X32650153Y2378707D01*
X32650153Y2228339D01*
G37*
G36*
X32554903Y2228339D02*
G01*
X32554903Y2378707D01*
X32600369Y2378707D01*
X32600369Y2228339D01*
G37*
G36*
X32504865Y2228339D02*
G01*
X32504865Y2378707D01*
X32550331Y2378707D01*
X32550331Y2228339D01*
G37*
G36*
X32454827Y2228339D02*
G01*
X32454827Y2378707D01*
X32500293Y2378707D01*
X32500293Y2228339D01*
G37*
G36*
X32296077Y2465829D02*
G01*
X32296077Y2511041D01*
X32446445Y2511041D01*
X32446445Y2465829D01*
G37*
G36*
X32454827Y2598163D02*
G01*
X32454827Y2748531D01*
X32500293Y2748531D01*
X32500293Y2598163D01*
G37*
G36*
X32504865Y2598163D02*
G01*
X32504865Y2748531D01*
X32550331Y2748531D01*
X32550331Y2598163D01*
G37*
G36*
X32554903Y2598163D02*
G01*
X32554903Y2748531D01*
X32600369Y2748531D01*
X32600369Y2598163D01*
G37*
G36*
X32604941Y2598163D02*
G01*
X32604941Y2748531D01*
X32650153Y2748531D01*
X32650153Y2598163D01*
G37*
G36*
X32654979Y2598163D02*
G01*
X32654979Y2748531D01*
X32700191Y2748531D01*
X32700191Y2598163D01*
G37*
G36*
X32705017Y2598163D02*
G01*
X32705017Y2748531D01*
X32750229Y2748531D01*
X32750229Y2598163D01*
G37*
G36*
X32754801Y2598163D02*
G01*
X32754801Y2748531D01*
X32800267Y2748531D01*
X32800267Y2598163D01*
G37*
G36*
X32809157Y2465829D02*
G01*
X32809157Y2511041D01*
X32959525Y2511041D01*
X32959525Y2465829D01*
G37*
G36*
X540235Y2547363D02*
G01*
X540235Y2697731D01*
X585701Y2697731D01*
X585701Y2547363D01*
G37*
G36*
X590273Y2547363D02*
G01*
X590273Y2697731D01*
X635485Y2697731D01*
X635485Y2547363D01*
G37*
G36*
X640311Y2547363D02*
G01*
X640311Y2697731D01*
X685523Y2697731D01*
X685523Y2547363D01*
G37*
G36*
X690349Y2547363D02*
G01*
X690349Y2697731D01*
X735561Y2697731D01*
X735561Y2547363D01*
G37*
G36*
X740133Y2547363D02*
G01*
X740133Y2697731D01*
X785599Y2697731D01*
X785599Y2547363D01*
G37*
G36*
X790171Y2547363D02*
G01*
X790171Y2697731D01*
X835637Y2697731D01*
X835637Y2547363D01*
G37*
G36*
X840209Y2547363D02*
G01*
X840209Y2697731D01*
X885675Y2697731D01*
X885675Y2547363D01*
G37*
G36*
X894057Y2415029D02*
G01*
X894057Y2460241D01*
X1044425Y2460241D01*
X1044425Y2415029D01*
G37*
G36*
X840209Y2177539D02*
G01*
X840209Y2327907D01*
X885675Y2327907D01*
X885675Y2177539D01*
G37*
G36*
X790171Y2177539D02*
G01*
X790171Y2327907D01*
X835637Y2327907D01*
X835637Y2177539D01*
G37*
G36*
X740133Y2177539D02*
G01*
X740133Y2327907D01*
X785599Y2327907D01*
X785599Y2177539D01*
G37*
G36*
X690349Y2177539D02*
G01*
X690349Y2327907D01*
X735561Y2327907D01*
X735561Y2177539D01*
G37*
G36*
X640311Y2177539D02*
G01*
X640311Y2327907D01*
X685523Y2327907D01*
X685523Y2177539D01*
G37*
G36*
X590273Y2177539D02*
G01*
X590273Y2327907D01*
X635485Y2327907D01*
X635485Y2177539D01*
G37*
G36*
X540235Y2177539D02*
G01*
X540235Y2327907D01*
X585701Y2327907D01*
X585701Y2177539D01*
G37*
G36*
X371071Y2415029D02*
G01*
X371071Y2460241D01*
X521439Y2460241D01*
X521439Y2415029D01*
G37*
G36*
X15171905Y235201D02*
G01*
X15171905Y355597D01*
X15302461Y355597D01*
X15302461Y235201D01*
G37*
G36*
X15582115Y235201D02*
G01*
X15582115Y355597D01*
X15712417Y355597D01*
X15712417Y235201D01*
G37*
G36*
X15171905Y75181D02*
G01*
X15171905Y195577D01*
X15302461Y195577D01*
X15302461Y75181D01*
G37*
G36*
X15582115Y75181D02*
G01*
X15582115Y195577D01*
X15712417Y195577D01*
X15712417Y75181D01*
G37*
G36*
X15346911Y305305D02*
G01*
X15346911Y405635D01*
X15537411Y405635D01*
X15537411Y305305D01*
G37*
G36*
X13044401Y1299461D02*
G01*
X13044401Y1389885D01*
X13189689Y1389885D01*
X13189689Y1299461D01*
G37*
G36*
X13294337Y1394457D02*
G01*
X13294337Y1484881D01*
X13439625Y1484881D01*
X13439625Y1394457D01*
G37*
G36*
X13294337Y1204465D02*
G01*
X13294337Y1294889D01*
X13439625Y1294889D01*
X13439625Y1204465D01*
G37*
G36*
X16751023Y2048253D02*
G01*
X16751023Y2168649D01*
X16881579Y2168649D01*
X16881579Y2048253D01*
G37*
G36*
X16751023Y1868421D02*
G01*
X16751023Y1988563D01*
X16881579Y1988563D01*
X16881579Y1868421D01*
G37*
G36*
X12535131Y2257295D02*
G01*
X12535131Y2387851D01*
X12655527Y2387851D01*
X12655527Y2257295D01*
G37*
G36*
X12355299Y2257295D02*
G01*
X12355299Y2387851D01*
X12475441Y2387851D01*
X12475441Y2257295D01*
G37*
G36*
X12926799Y682495D02*
G01*
X12926799Y813051D01*
X13047195Y813051D01*
X13047195Y682495D01*
G37*
G36*
X13106885Y682495D02*
G01*
X13106885Y813051D01*
X13227027Y813051D01*
X13227027Y682495D01*
G37*
G36*
X13550369Y1119629D02*
G01*
X13550369Y1240025D01*
X13670765Y1240025D01*
X13670765Y1119629D01*
G37*
G36*
X13550369Y1359659D02*
G01*
X13550369Y1480055D01*
X13670765Y1480055D01*
X13670765Y1359659D01*
G37*
G36*
X14294335Y2027425D02*
G01*
X14294335Y2147567D01*
X14424637Y2147567D01*
X14424637Y2027425D01*
G37*
G36*
X14294335Y1847339D02*
G01*
X14294335Y1967735D01*
X14424637Y1967735D01*
X14424637Y1847339D01*
G37*
G36*
X14363423Y814321D02*
G01*
X14363423Y934717D01*
X14493979Y934717D01*
X14493979Y814321D01*
G37*
G36*
X14363423Y994407D02*
G01*
X14363423Y1114549D01*
X14493979Y1114549D01*
X14493979Y994407D01*
G37*
G36*
X13480519Y1775457D02*
G01*
X13480519Y1906013D01*
X13600915Y1906013D01*
X13600915Y1775457D01*
G37*
G36*
X13300687Y1775457D02*
G01*
X13300687Y1906013D01*
X13420829Y1906013D01*
X13420829Y1775457D01*
G37*
G36*
X19745175Y1893821D02*
G01*
X19745175Y2024377D01*
X19865571Y2024377D01*
X19865571Y1893821D01*
G37*
G36*
X19925261Y1893821D02*
G01*
X19925261Y2024377D01*
X20045657Y2024377D01*
X20045657Y1893821D01*
G37*
G36*
X13423623Y298193D02*
G01*
X13423623Y427733D01*
X13543003Y427733D01*
X13543003Y298193D01*
G37*
G36*
X13423623Y128013D02*
G01*
X13423623Y257553D01*
X13543003Y257553D01*
X13543003Y128013D01*
G37*
G36*
X13677623Y115313D02*
G01*
X13677623Y244853D01*
X13797003Y244853D01*
X13797003Y115313D01*
G37*
G36*
X13677623Y285493D02*
G01*
X13677623Y415033D01*
X13797003Y415033D01*
X13797003Y285493D01*
G37*
G36*
X14995375Y2732021D02*
G01*
X14995375Y2892295D01*
X15045667Y2892295D01*
X15045667Y2732021D01*
G37*
G36*
X14947115Y2732021D02*
G01*
X14947115Y2892295D01*
X14997407Y2892295D01*
X14997407Y2732021D01*
G37*
G36*
X14896315Y2732021D02*
G01*
X14896315Y2892295D01*
X14946607Y2892295D01*
X14946607Y2732021D01*
G37*
G36*
X14845515Y2732021D02*
G01*
X14845515Y2892295D01*
X14895807Y2892295D01*
X14895807Y2732021D01*
G37*
G36*
X14797255Y2732021D02*
G01*
X14797255Y2892295D01*
X14847547Y2892295D01*
X14847547Y2732021D01*
G37*
G36*
X14636727Y2633215D02*
G01*
X14636727Y2683507D01*
X14797001Y2683507D01*
X14797001Y2633215D01*
G37*
G36*
X14636727Y2582415D02*
G01*
X14636727Y2632707D01*
X14797001Y2632707D01*
X14797001Y2582415D01*
G37*
G36*
X14636727Y2531615D02*
G01*
X14636727Y2581907D01*
X14797001Y2581907D01*
X14797001Y2531615D01*
G37*
G36*
X14797255Y2322827D02*
G01*
X14797255Y2483101D01*
X14847547Y2483101D01*
X14847547Y2322827D01*
G37*
G36*
X14845515Y2322827D02*
G01*
X14845515Y2483101D01*
X14895807Y2483101D01*
X14895807Y2322827D01*
G37*
G36*
X14896315Y2322827D02*
G01*
X14896315Y2483101D01*
X14946607Y2483101D01*
X14946607Y2322827D01*
G37*
G36*
X14947115Y2322827D02*
G01*
X14947115Y2483101D01*
X14997407Y2483101D01*
X14997407Y2322827D01*
G37*
G36*
X14995375Y2322827D02*
G01*
X14995375Y2483101D01*
X15045667Y2483101D01*
X15045667Y2322827D01*
G37*
G36*
X15045921Y2531615D02*
G01*
X15045921Y2581907D01*
X15206195Y2581907D01*
X15206195Y2531615D01*
G37*
G36*
X15045921Y2582415D02*
G01*
X15045921Y2632707D01*
X15206195Y2632707D01*
X15206195Y2582415D01*
G37*
G36*
X15045921Y2633215D02*
G01*
X15045921Y2683507D01*
X15206195Y2683507D01*
X15206195Y2633215D01*
G37*
G36*
X15427683Y1963163D02*
G01*
X15427683Y2163823D01*
X15488643Y2163823D01*
X15488643Y1963163D01*
G37*
G36*
X15362913Y1963163D02*
G01*
X15362913Y2163823D01*
X15423873Y2163823D01*
X15423873Y1963163D01*
G37*
G36*
X15297889Y1963163D02*
G01*
X15297889Y2163823D01*
X15358849Y2163823D01*
X15358849Y1963163D01*
G37*
G36*
X15232865Y1963163D02*
G01*
X15232865Y2163823D01*
X15293825Y2163823D01*
X15293825Y1963163D01*
G37*
G36*
X15167841Y1963163D02*
G01*
X15167841Y2163823D01*
X15228801Y2163823D01*
X15228801Y1963163D01*
G37*
G36*
X15102817Y1963163D02*
G01*
X15102817Y2163823D01*
X15163777Y2163823D01*
X15163777Y1963163D01*
G37*
G36*
X15037793Y1963163D02*
G01*
X15037793Y2163823D01*
X15098753Y2163823D01*
X15098753Y1963163D01*
G37*
G36*
X14972769Y1963163D02*
G01*
X14972769Y2163823D01*
X15033729Y2163823D01*
X15033729Y1963163D01*
G37*
G36*
X14907745Y1963163D02*
G01*
X14907745Y2163823D01*
X14968705Y2163823D01*
X14968705Y1963163D01*
G37*
G36*
X14842721Y1963163D02*
G01*
X14842721Y2163823D01*
X14903681Y2163823D01*
X14903681Y1963163D01*
G37*
G36*
X14777697Y1963163D02*
G01*
X14777697Y2163823D01*
X14838657Y2163823D01*
X14838657Y1963163D01*
G37*
G36*
X14712927Y1963163D02*
G01*
X14712927Y2163823D01*
X14773887Y2163823D01*
X14773887Y1963163D01*
G37*
G36*
X14647903Y1963163D02*
G01*
X14647903Y2163823D01*
X14708863Y2163823D01*
X14708863Y1963163D01*
G37*
G36*
X14582879Y1963163D02*
G01*
X14582879Y2163823D01*
X14643839Y2163823D01*
X14643839Y1963163D01*
G37*
G36*
X14582879Y1248153D02*
G01*
X14582879Y1448813D01*
X14643839Y1448813D01*
X14643839Y1248153D01*
G37*
G36*
X14647903Y1248153D02*
G01*
X14647903Y1448813D01*
X14708863Y1448813D01*
X14708863Y1248153D01*
G37*
G36*
X14712927Y1248153D02*
G01*
X14712927Y1448813D01*
X14773887Y1448813D01*
X14773887Y1248153D01*
G37*
G36*
X14777697Y1248153D02*
G01*
X14777697Y1448813D01*
X14838657Y1448813D01*
X14838657Y1248153D01*
G37*
G36*
X14842721Y1248153D02*
G01*
X14842721Y1448813D01*
X14903681Y1448813D01*
X14903681Y1248153D01*
G37*
G36*
X14907745Y1248153D02*
G01*
X14907745Y1448813D01*
X14968705Y1448813D01*
X14968705Y1248153D01*
G37*
G36*
X14972769Y1248153D02*
G01*
X14972769Y1448813D01*
X15033729Y1448813D01*
X15033729Y1248153D01*
G37*
G36*
X15037793Y1248153D02*
G01*
X15037793Y1448813D01*
X15098753Y1448813D01*
X15098753Y1248153D01*
G37*
G36*
X15102817Y1248153D02*
G01*
X15102817Y1448813D01*
X15163777Y1448813D01*
X15163777Y1248153D01*
G37*
G36*
X15167841Y1248153D02*
G01*
X15167841Y1448813D01*
X15228801Y1448813D01*
X15228801Y1248153D01*
G37*
G36*
X15232865Y1248153D02*
G01*
X15232865Y1448813D01*
X15293825Y1448813D01*
X15293825Y1248153D01*
G37*
G36*
X15297889Y1248153D02*
G01*
X15297889Y1448813D01*
X15358849Y1448813D01*
X15358849Y1248153D01*
G37*
G36*
X15362913Y1248153D02*
G01*
X15362913Y1448813D01*
X15423873Y1448813D01*
X15423873Y1248153D01*
G37*
G36*
X15427683Y1248153D02*
G01*
X15427683Y1448813D01*
X15488643Y1448813D01*
X15488643Y1248153D01*
G37*
G36*
X15695653Y1744723D02*
G01*
X15695653Y1870453D01*
X15798523Y1870453D01*
X15798523Y1744723D01*
G37*
G36*
X15629613Y1947923D02*
G01*
X15629613Y2073653D01*
X15732483Y2073653D01*
X15732483Y1947923D01*
G37*
G36*
X15761693Y1947923D02*
G01*
X15761693Y2073653D01*
X15864563Y2073653D01*
X15864563Y1947923D01*
G37*
G36*
X16127453Y1744723D02*
G01*
X16127453Y1870453D01*
X16230323Y1870453D01*
X16230323Y1744723D01*
G37*
G36*
X16061413Y1947923D02*
G01*
X16061413Y2073653D01*
X16164283Y2073653D01*
X16164283Y1947923D01*
G37*
G36*
X16193493Y1947923D02*
G01*
X16193493Y2073653D01*
X16296363Y2073653D01*
X16296363Y1947923D01*
G37*
G36*
X15334973Y828037D02*
G01*
X15334973Y958339D01*
X15455369Y958339D01*
X15455369Y828037D01*
G37*
G36*
X15174953Y828037D02*
G01*
X15174953Y958339D01*
X15295349Y958339D01*
X15295349Y828037D01*
G37*
G36*
X15334973Y574037D02*
G01*
X15334973Y704339D01*
X15455369Y704339D01*
X15455369Y574037D01*
G37*
G36*
X15174953Y574037D02*
G01*
X15174953Y704339D01*
X15295349Y704339D01*
X15295349Y574037D01*
G37*
G36*
X16949651Y1626867D02*
G01*
X16949651Y1747263D01*
X17120085Y1747263D01*
X17120085Y1626867D01*
G37*
G36*
X16949651Y1499867D02*
G01*
X16949651Y1620263D01*
X17120085Y1620263D01*
X17120085Y1499867D01*
G37*
G36*
X16949651Y1372867D02*
G01*
X16949651Y1493263D01*
X17120085Y1493263D01*
X17120085Y1372867D01*
G37*
G36*
X16949651Y1245867D02*
G01*
X16949651Y1366263D01*
X17120085Y1366263D01*
X17120085Y1245867D01*
G37*
G36*
X16949651Y1118867D02*
G01*
X16949651Y1239263D01*
X17120085Y1239263D01*
X17120085Y1118867D01*
G37*
G36*
X16949651Y991867D02*
G01*
X16949651Y1112263D01*
X17120085Y1112263D01*
X17120085Y991867D01*
G37*
G36*
X16949651Y864867D02*
G01*
X16949651Y985263D01*
X17120085Y985263D01*
X17120085Y864867D01*
G37*
G36*
X16949651Y737867D02*
G01*
X16949651Y858263D01*
X17120085Y858263D01*
X17120085Y737867D01*
G37*
G36*
X18473143Y156461D02*
G01*
X18473143Y326895D01*
X18593539Y326895D01*
X18593539Y156461D01*
G37*
G36*
X18798771Y356867D02*
G01*
X18798771Y477263D01*
X18968951Y477263D01*
X18968951Y356867D01*
G37*
G36*
X18798771Y483867D02*
G01*
X18798771Y604263D01*
X18968951Y604263D01*
X18968951Y483867D01*
G37*
G36*
X18798771Y610867D02*
G01*
X18798771Y731263D01*
X18968951Y731263D01*
X18968951Y610867D01*
G37*
G36*
X18798771Y737867D02*
G01*
X18798771Y858263D01*
X18968951Y858263D01*
X18968951Y737867D01*
G37*
G36*
X18798771Y864867D02*
G01*
X18798771Y985263D01*
X18968951Y985263D01*
X18968951Y864867D01*
G37*
G36*
X18798771Y991867D02*
G01*
X18798771Y1112263D01*
X18968951Y1112263D01*
X18968951Y991867D01*
G37*
G36*
X18798771Y1118867D02*
G01*
X18798771Y1239263D01*
X18968951Y1239263D01*
X18968951Y1118867D01*
G37*
G36*
X17584143Y156461D02*
G01*
X17584143Y326895D01*
X17704539Y326895D01*
X17704539Y156461D01*
G37*
G36*
X16949651Y610867D02*
G01*
X16949651Y731263D01*
X17120085Y731263D01*
X17120085Y610867D01*
G37*
G36*
X16949651Y483867D02*
G01*
X16949651Y604263D01*
X17120085Y604263D01*
X17120085Y483867D01*
G37*
G36*
X16949651Y356867D02*
G01*
X16949651Y477263D01*
X17120085Y477263D01*
X17120085Y356867D01*
G37*
G36*
X17330143Y156461D02*
G01*
X17330143Y326895D01*
X17450539Y326895D01*
X17450539Y156461D01*
G37*
G36*
X17457143Y156461D02*
G01*
X17457143Y326895D01*
X17577539Y326895D01*
X17577539Y156461D01*
G37*
G36*
X16949651Y1753867D02*
G01*
X16949651Y1874263D01*
X17120085Y1874263D01*
X17120085Y1753867D01*
G37*
G36*
X16949651Y1880867D02*
G01*
X16949651Y2001263D01*
X17120085Y2001263D01*
X17120085Y1880867D01*
G37*
G36*
X16949651Y2007867D02*
G01*
X16949651Y2128263D01*
X17120085Y2128263D01*
X17120085Y2007867D01*
G37*
G36*
X17711143Y156461D02*
G01*
X17711143Y326895D01*
X17831539Y326895D01*
X17831539Y156461D01*
G37*
G36*
X17838143Y156461D02*
G01*
X17838143Y326895D01*
X17958539Y326895D01*
X17958539Y156461D01*
G37*
G36*
X17965143Y156461D02*
G01*
X17965143Y326895D01*
X18085539Y326895D01*
X18085539Y156461D01*
G37*
G36*
X18346143Y156461D02*
G01*
X18346143Y326895D01*
X18466539Y326895D01*
X18466539Y156461D01*
G37*
G36*
X18219143Y156461D02*
G01*
X18219143Y326895D01*
X18339539Y326895D01*
X18339539Y156461D01*
G37*
G36*
X18092143Y156461D02*
G01*
X18092143Y326895D01*
X18212539Y326895D01*
X18212539Y156461D01*
G37*
G36*
X18798771Y1245867D02*
G01*
X18798771Y1366263D01*
X18968951Y1366263D01*
X18968951Y1245867D01*
G37*
G36*
X18798771Y1372867D02*
G01*
X18798771Y1493263D01*
X18968951Y1493263D01*
X18968951Y1372867D01*
G37*
G36*
X18798771Y1499867D02*
G01*
X18798771Y1620263D01*
X18968951Y1620263D01*
X18968951Y1499867D01*
G37*
G36*
X18798771Y1626867D02*
G01*
X18798771Y1747263D01*
X18968951Y1747263D01*
X18968951Y1626867D01*
G37*
G36*
X18798771Y1753867D02*
G01*
X18798771Y1874263D01*
X18968951Y1874263D01*
X18968951Y1753867D01*
G37*
G36*
X18798771Y1880867D02*
G01*
X18798771Y2001263D01*
X18968951Y2001263D01*
X18968951Y1880867D01*
G37*
G36*
X18798771Y2007867D02*
G01*
X18798771Y2128263D01*
X18968951Y2128263D01*
X18968951Y2007867D01*
G37*
G36*
X17679647Y985771D02*
G01*
X17679647Y1606039D01*
X18299915Y1606039D01*
X18299915Y985771D01*
G37*
G36*
X20916369Y1489707D02*
G01*
X20916369Y1660141D01*
X21096709Y1660141D01*
X21096709Y1489707D01*
G37*
G36*
X21026351Y494789D02*
G01*
X21026351Y735073D01*
X21166559Y735073D01*
X21166559Y494789D01*
G37*
G36*
X19476443Y494789D02*
G01*
X19476443Y735073D01*
X19616651Y735073D01*
X19616651Y494789D01*
G37*
G36*
X19476443Y1489707D02*
G01*
X19476443Y1660141D01*
X19616651Y1660141D01*
X19616651Y1489707D01*
G37*
G36*
X19621223Y1604769D02*
G01*
X19621223Y1785109D01*
X19711647Y1785109D01*
X19711647Y1604769D01*
G37*
G36*
X19731459Y1604769D02*
G01*
X19731459Y1785109D01*
X19821629Y1785109D01*
X19821629Y1604769D01*
G37*
G36*
X19841441Y1604769D02*
G01*
X19841441Y1785109D01*
X19931611Y1785109D01*
X19931611Y1604769D01*
G37*
G36*
X19951423Y1604769D02*
G01*
X19951423Y1785109D01*
X20041593Y1785109D01*
X20041593Y1604769D01*
G37*
G36*
X20061405Y1604769D02*
G01*
X20061405Y1785109D01*
X20151575Y1785109D01*
X20151575Y1604769D01*
G37*
G36*
X20171387Y1604769D02*
G01*
X20171387Y1785109D01*
X20261557Y1785109D01*
X20261557Y1604769D01*
G37*
G36*
X20281369Y1604769D02*
G01*
X20281369Y1785109D01*
X20371539Y1785109D01*
X20371539Y1604769D01*
G37*
G36*
X20391351Y1604769D02*
G01*
X20391351Y1785109D01*
X20481775Y1785109D01*
X20481775Y1604769D01*
G37*
G36*
X20501333Y1604769D02*
G01*
X20501333Y1785109D01*
X20591757Y1785109D01*
X20591757Y1604769D01*
G37*
G36*
X885167Y2725925D02*
G01*
X885167Y2856227D01*
X1005563Y2856227D01*
X1005563Y2725925D01*
G37*
G36*
X705081Y2725925D02*
G01*
X705081Y2856227D01*
X825477Y2856227D01*
X825477Y2725925D01*
G37*
G36*
X13421083Y2813047D02*
G01*
X13421083Y2913377D01*
X13531319Y2913377D01*
X13531319Y2813047D01*
G37*
G36*
X13421083Y2673093D02*
G01*
X13421083Y2773423D01*
X13531319Y2773423D01*
X13531319Y2673093D01*
G37*
G36*
X13677115Y2673093D02*
G01*
X13677115Y2773423D01*
X13787351Y2773423D01*
X13787351Y2673093D01*
G37*
G36*
X13677115Y2813047D02*
G01*
X13677115Y2913377D01*
X13787351Y2913377D01*
X13787351Y2813047D01*
G37*
G36*
X13472137Y820671D02*
G01*
X13472137Y920747D01*
X13582627Y920747D01*
X13582627Y820671D01*
G37*
G36*
X13472137Y680463D02*
G01*
X13472137Y780793D01*
X13582627Y780793D01*
X13582627Y680463D01*
G37*
G36*
X15275283Y2787647D02*
G01*
X15275283Y2887977D01*
X15385519Y2887977D01*
X15385519Y2787647D01*
G37*
G36*
X15275283Y2647693D02*
G01*
X15275283Y2748023D01*
X15385519Y2748023D01*
X15385519Y2647693D01*
G37*
G36*
X529059Y1836417D02*
G01*
X529059Y1946653D01*
X629389Y1946653D01*
X629389Y1836417D01*
G37*
G36*
X669013Y1836417D02*
G01*
X669013Y1946653D01*
X769343Y1946653D01*
X769343Y1836417D01*
G37*
G36*
X32469559Y2966717D02*
G01*
X32469559Y3076953D01*
X32569889Y3076953D01*
X32569889Y2966717D01*
G37*
G36*
X32609513Y2966717D02*
G01*
X32609513Y3076953D01*
X32709843Y3076953D01*
X32709843Y2966717D01*
G37*
G36*
X32736513Y1912617D02*
G01*
X32736513Y2022853D01*
X32836843Y2022853D01*
X32836843Y1912617D01*
G37*
G36*
X32596559Y1912617D02*
G01*
X32596559Y2022853D01*
X32696889Y2022853D01*
X32696889Y1912617D01*
G37*
G36*
X541759Y2903217D02*
G01*
X541759Y3013453D01*
X642089Y3013453D01*
X642089Y2903217D01*
G37*
G36*
X681713Y2903217D02*
G01*
X681713Y3013453D01*
X782043Y3013453D01*
X782043Y2903217D01*
G37*
G36*
X15780743Y244853D02*
G01*
X15780743Y365249D01*
X15920951Y365249D01*
X15920951Y244853D01*
G37*
G36*
X16060651Y244853D02*
G01*
X16060651Y365249D01*
X16200859Y365249D01*
X16200859Y244853D01*
G37*
G36*
X16060651Y65021D02*
G01*
X16060651Y185417D01*
X16200859Y185417D01*
X16200859Y65021D01*
G37*
G36*
X15780743Y65021D02*
G01*
X15780743Y185417D01*
X15920951Y185417D01*
X15920951Y65021D01*
G37*
G36*
X15948383Y1276093D02*
G01*
X15948383Y1376423D01*
X16058619Y1376423D01*
X16058619Y1276093D01*
G37*
G36*
X15948383Y1416047D02*
G01*
X15948383Y1516377D01*
X16058619Y1516377D01*
X16058619Y1416047D01*
G37*
G36*
X15681683Y1288793D02*
G01*
X15681683Y1389123D01*
X15791919Y1389123D01*
X15791919Y1288793D01*
G37*
G36*
X15681683Y1428747D02*
G01*
X15681683Y1529077D01*
X15791919Y1529077D01*
X15791919Y1428747D01*
G37*
G36*
X12227283Y1377947D02*
G01*
X12227283Y1478277D01*
X12337519Y1478277D01*
X12337519Y1377947D01*
G37*
G36*
X12227283Y1237993D02*
G01*
X12227283Y1338323D01*
X12337519Y1338323D01*
X12337519Y1237993D01*
G37*
G36*
X12505921Y1383789D02*
G01*
X12505921Y1484119D01*
X12616157Y1484119D01*
X12616157Y1383789D01*
G37*
G36*
X12505921Y1243835D02*
G01*
X12505921Y1344165D01*
X12616157Y1344165D01*
X12616157Y1243835D01*
G37*
G36*
X13675083Y679193D02*
G01*
X13675083Y779523D01*
X13785319Y779523D01*
X13785319Y679193D01*
G37*
G36*
X13675083Y819147D02*
G01*
X13675083Y919477D01*
X13785319Y919477D01*
X13785319Y819147D01*
G37*
G36*
X13281383Y819147D02*
G01*
X13281383Y919477D01*
X13391619Y919477D01*
X13391619Y819147D01*
G37*
G36*
X13281383Y679193D02*
G01*
X13281383Y779523D01*
X13391619Y779523D01*
X13391619Y679193D01*
G37*
G36*
X14533857Y468119D02*
G01*
X14533857Y638553D01*
X14599135Y638553D01*
X14599135Y468119D01*
G37*
D86*
G01*
X14631545Y553387D03*
G01*
X14696569Y553387D03*
G01*
X14761593Y553387D03*
G01*
X14826617Y553387D03*
M02*
